<?xml version="1.0" encoding="UTF-8" standalone="no"?>
<svg
   xmlns:dc="http://purl.org/dc/elements/1.1/"
   xmlns:cc="http://creativecommons.org/ns#"
   xmlns:rdf="http://www.w3.org/1999/02/22-rdf-syntax-ns#"
   xmlns:svg="http://www.w3.org/2000/svg"
   xmlns="http://www.w3.org/2000/svg"
   viewBox="0 0 101.55467 91.945335"
   height="100%"
   width="100%"
   xml:space="preserve"
   id="svg2"
   version="1.1"><metadata
     id="metadata8"><rdf:RDF><cc:Work
         rdf:about=""><dc:format>image/svg+xml</dc:format><dc:type
           rdf:resource="http://purl.org/dc/dcmitype/StillImage" /></cc:Work></rdf:RDF></metadata><defs
     id="defs6"><clipPath
       id="clipPath18"
       clipPathUnits="userSpaceOnUse"><path
         id="path16"
         d="M 0,68.959 H 76.166 V 0 H 0 Z" /></clipPath></defs><g
     transform="matrix(1.3333333,0,0,-1.3333333,0,91.945333)"
     id="g10"><g
       id="g12"><g
         clip-path="url(#clipPath18)"
         id="g14"><g
           transform="translate(73.166,15.2109)"
           id="g20"><path
             id="path22"
             style="fill:#81b3d2;fill-opacity:1;fill-rule:nonzero;stroke:none"
             d="m 0,0 c 0,-0.679 -0.573,-1.252 -1.252,-1.252 h -67.662 c -0.679,0 -1.252,0.573 -1.252,1.252 v 3.454 c 0,0.679 0.573,1.252 1.252,1.252 H -1.252 C -0.573,4.706 0,4.133 0,3.454 Z m -5.208,-5.289 c 0,-3.815 -3.104,-6.922 -6.921,-6.922 h -45.908 c -3.816,0 -6.921,3.105 -6.921,6.922 v 1.037 h 59.75 z m 3.956,12.995 h -67.662 c -2.338,0 -4.252,-1.913 -4.252,-4.252 V 0 c 0,-2.338 1.914,-4.252 4.252,-4.252 h 0.956 v -1.037 c 0,-5.457 4.464,-9.922 9.921,-9.922 h 45.908 c 5.456,0 9.921,4.465 9.921,9.922 v 1.037 h 0.956 C 1.087,-4.252 3,-2.338 3,0 V 3.454 C 3,5.793 1.087,7.706 -1.252,7.706" /></g><g
           transform="translate(16.1621,31.1025)"
           id="g24"><path
             id="path26"
             style="fill:#81b3d2;fill-opacity:1;fill-rule:nonzero;stroke:none"
             d="m 0,0 5.473,-4 5.477,4 5.479,-4 5.478,4 5.479,-4 5.478,4 5.479,-4 5.48,4 5.489,-4 6.368,4.645 -1.768,2.423 -4.6,-3.355 -5.489,3.999 -5.48,-3.999 -5.479,4 -5.478,-4 -5.479,4 -5.478,-4 -5.479,4 -5.476,-4 -5.473,4.001 -5.477,-4.001 -4.593,3.354 -1.77,-2.421 L -5.476,-4 Z" /></g><g
           transform="translate(38.083,65.959)"
           id="g28"><path
             id="path30"
             style="fill:#81b3d2;fill-opacity:1;fill-rule:nonzero;stroke:none"
             d="M 0,0 C 16.031,0 29.15,-11.154 29.842,-25.094 H -29.842 C -29.15,-11.154 -16.032,0 0,0 m 32.805,-28.094 c 0.041,0.61 0.054,2.616 0.037,3 C 32.159,-9.476 17.721,3 0,3 -17.72,3 -32.159,-9.476 -32.842,-25.094 c -0.017,-0.384 -0.004,-2.389 0.039,-3 z" /></g><g
           transform="translate(38.083,55.917)"
           id="g32"><path
             id="path34"
             style="fill:#81b3d2;fill-opacity:1;fill-rule:nonzero;stroke:none"
             d="m 0,0 c 1.104,0 2,-0.896 2,-2 0,-1.104 -0.896,-2 -2,-2 -1.104,0 -2,0.896 -2,2 0,1.104 0.896,2 2,2" /></g><g
           transform="translate(30.083,60.876)"
           id="g36"><path
             id="path38"
             style="fill:#81b3d2;fill-opacity:1;fill-rule:nonzero;stroke:none"
             d="m 0,0 c 1.104,0 2,-0.896 2,-2 0,-1.104 -0.896,-2 -2,-2 -1.104,0 -2,0.896 -2,2 0,1.104 0.896,2 2,2" /></g><g
           transform="translate(46.083,60.876)"
           id="g40"><path
             id="path42"
             style="fill:#81b3d2;fill-opacity:1;fill-rule:nonzero;stroke:none"
             d="m 0,0 c 1.104,0 2,-0.896 2,-2 0,-1.104 -0.896,-2 -2,-2 -1.104,0 -2,0.896 -2,2 0,1.104 0.896,2 2,2" /></g></g></g></g></svg>