<svg width="100%" height="100%" viewBox="0 0 18 34" xmlns="http://www.w3.org/2000/svg">
<symbol id="facebook"  viewBox="0 0 18 34"> 
 <defs>
  <style type="text/css">.fil1 {fill:none}
    .fil0 {fill:currentColor;fill-rule:nonzero}</style>
 </defs>
 <g>
  <title>background</title>
  <rect x="-1" y="-1" width="26" height="44" id="canvas_background" fill="none"/>
 </g>
 <g transform="matrix(0.470568,0,0,0.386973,-1.393242,2.452107) ">
  <title>Layer 1</title>
  <g id="Layer_x0020_1" transform="matrix(0.04964051247152697,0,0,0.06392702285797106,-13.18446079741136,13.003521275780496) ">
   <path class="fil0" d="m452.582743,306.839063l180.266,0l0,-229.334c0,-0.70039 0.04488,-1.39016 0.13228,-2.06693c3.71457,-70.48001 17.9599,-134.177 50.7945,-180.93601c34.0571,-48.502 87.0095,-78.3319 167.06,-78.3319l288.683,0c8.83583,0 16.0004,7.16457 16.0004,16.0004l0,231.157c0,8.83583 -7.16457,16.00041 -16.0004,16.00041l-113.958,0c-29.3941,0 -51.4489,4.50237 -65.7556,16.3169l-10.187,-12.3118l10.187,12.33779c-0.30945,0.25513 -0.62598,0.49488 -0.94724,0.72402c-13.2614,11.5039 -20.7366,30.8386 -22.3618,60.73821l0.02244,0l0,149.705l203,0c8.83583,0 16.0004,7.16457 16.0004,16.0004l0,245.333c0,8.83583 -7.16457,16.0004 -16.0004,16.0004l-203,0l0,720.001c0,8.83583 -7.16457,16.0004 -16.0004,16.0004l-271.669,0c-8.83583,0 -16.0004,-7.16457 -16.0004,-16.0004l0,-720.001l-180.266,0c-8.83583,0 -16.0004,-7.16457 -16.0004,-16.0004l0,-245.333c0,-8.83583 7.16457,-16.0004 16.0004,-16.0004l0.00022,0.00091z" id="svg_1"/>
  </g>
  <rect stroke="null" class="fil1" height="70" width="15" id="svg_2" y="-1" x="3"/>
 </g>
 </symbol>
</svg>