<?xml version="1.0" encoding="UTF-8" standalone="no"?>
<svg
   xmlns:dc="http://purl.org/dc/elements/1.1/"
   xmlns:cc="http://creativecommons.org/ns#"
   xmlns:rdf="http://www.w3.org/1999/02/22-rdf-syntax-ns#"
   xmlns:svg="http://www.w3.org/2000/svg"
   xmlns="http://www.w3.org/2000/svg"
   viewBox="0 0 84.00267 100.11067"
   height="100%"
   width="100%"
   xml:space="preserve"
   id="svg2"
   version="1.1"><metadata
     id="metadata8"><rdf:RDF><cc:Work
         rdf:about=""><dc:format>image/svg+xml</dc:format><dc:type
           rdf:resource="http://purl.org/dc/dcmitype/StillImage" /></cc:Work></rdf:RDF></metadata><defs
     id="defs6"><clipPath
       id="clipPath18"
       clipPathUnits="userSpaceOnUse"><path
         id="path16"
         d="M 0,75.083 H 63.002 V 0 H 0 Z" /></clipPath></defs><g
     transform="matrix(1.3333333,0,0,-1.3333333,0,100.11067)"
     id="g10"><g
       id="g12"><g
         clip-path="url(#clipPath18)"
         id="g14"><path
           id="path20"
           style="fill:#81b3d2;fill-opacity:1;fill-rule:nonzero;stroke:none"
           d="M 60,38.999 H 38.053 V 49.853 H 60 Z M 57.125,2.936 H 38.053 v 33.063 h 19.072 z m -22.01,0.002 h -7.063 v 46.916 h 7.063 z M 25.114,38.999 H 3 v 10.854 h 22.114 z m 0,-36.063 H 6.042 v 33.063 h 19.072 z m -5.882,56.426 c -2.19,1.467 -6.444,4.378 -6.342,7.678 0.11,3.552 5.655,6.491 8.68,3.839 3.797,-3.331 5.625,-10.972 7.01,-16.357 -3.199,1.519 -6.23,2.753 -9.348,4.84 m 22.534,9.848 c 2.07,0.306 4.907,-1.283 5.175,-3.171 0.387,-2.723 -3.348,-5.192 -5.007,-6.343 -2.484,-1.723 -4.853,-2.611 -7.178,-4.006 0.872,3.645 2.512,12.854 7.01,13.52 M 60.165,52.853 H 60.063 35.758 c 13.603,6.815 14.687,11.115 14.187,13.52 -1.144,3.916 -5.603,6.938 -9.847,5.341 -5.485,-2.063 -7.03,-10.262 -8.514,-16.19 -1.894,5.998 -3.726,13.649 -8.011,17.525 -1.242,1.125 -3.049,2.237 -5.676,2.003 C 13.932,74.7 8.245,69.735 10.553,64.203 12.77,58.89 20.092,55.533 24.907,52.853 H 2.834 C 1.275,52.853 0,51.577 0,50.018 V 38.833 c 0,-1.559 1.275,-2.834 2.835,-2.834 h 0.27 V 0 h 56.958 v 35.999 h 0.104 c 1.562,0 2.835,1.275 2.835,2.834 V 50.018 C 63,51.577 61.725,52.853 60.165,52.853" /></g></g></g></svg>