<?xml version="1.0" encoding="UTF-8" standalone="no"?>
<svg
   xmlns:dc="http://purl.org/dc/elements/1.1/"
   xmlns:cc="http://creativecommons.org/ns#"
   xmlns:rdf="http://www.w3.org/1999/02/22-rdf-syntax-ns#"
   xmlns:svg="http://www.w3.org/2000/svg"
   xmlns="http://www.w3.org/2000/svg"
   viewBox="0 0 99.593735 96.46093"
   height= "100%"
   width="100%"
   xml:space="preserve"
   id="svg2"
   version="1.1"><metadata
     id="metadata8"><rdf:RDF><cc:Work
         rdf:about=""><dc:format>image/svg+xml</dc:format><dc:type
           rdf:resource="http://purl.org/dc/dcmitype/StillImage" /></cc:Work></rdf:RDF></metadata><defs
     id="defs6"><clipPath
       id="clipPath24"
       clipPathUnits="userSpaceOnUse"><path
         id="path22"
         d="M 0,72.346 H 74.695 V 0 H 0 Z" /></clipPath></defs><g
     transform="matrix(1.3333333,0,0,-1.3333333,0,96.460933)"
     id="g10"><path
       id="path12"
       style="fill:#81b3d2;fill-opacity:1;fill-rule:nonzero;stroke:none"
       d="M 42.566,9.938 H 32.441 V 28.001 H 42.566 Z M 29.503,7.001 h 16 v 23.938 h -16 z" /><g
       transform="translate(37.35,72.3456)"
       id="g14"><path
         id="path16"
         style="fill:#81b3d2;fill-opacity:1;fill-rule:nonzero;stroke:none"
         d="m 0,0 -37.35,-37.363 2.077,-2.078 7.832,7.833 v -37.8 h -3.938 v -2.938 h 63.875 v 2.938 h -5.059 v 37.801 l 7.833,-7.833 2.075,2.079 -9.907,9.912 V -0.47 H 13.624 v -13.16 z m 16.563,-16.571 v 13.163 h 7.939 V -24.511 Z M -24.503,-28.67 -0.002,-4.169 24.501,-28.67 v -40.737 h -49.004 z" /></g><g
       id="g18"><g
         clip-path="url(#clipPath24)"
         id="g20"><g
           transform="translate(37.5029,50.1045)"
           id="g26"><path
             id="path28"
             style="fill:#81b3d2;fill-opacity:1;fill-rule:nonzero;stroke:none"
             d="m 0,0 c 2.745,0 4.971,-2.225 4.971,-4.97 0,-2.745 -2.226,-4.97 -4.971,-4.97 -2.745,0 -4.97,2.225 -4.97,4.97 C -4.97,-2.225 -2.744,0 0,0 m -7.75,-4.969 c 0,-4.28 3.471,-7.75 7.75,-7.75 4.28,0 7.75,3.47 7.75,7.75 0,4.28 -3.47,7.75 -7.75,7.75 -4.279,0 -7.75,-3.469 -7.75,-7.75" /></g><path
           id="path30"
           style="fill:#81b3d2;fill-opacity:1;fill-rule:nonzero;stroke:none"
           d="m 16.909,30.938 h 3 V 27 h -3 z" /><path
           id="path32"
           style="fill:#81b3d2;fill-opacity:1;fill-rule:nonzero;stroke:none"
           d="m 22.847,30.938 h 3 V 27 h -3 z" /><path
           id="path34"
           style="fill:#81b3d2;fill-opacity:1;fill-rule:nonzero;stroke:none"
           d="m 16.909,24.938 h 3 V 21 h -3 z" /><path
           id="path36"
           style="fill:#81b3d2;fill-opacity:1;fill-rule:nonzero;stroke:none"
           d="m 22.847,24.938 h 3 V 21 h -3 z" /><path
           id="path38"
           style="fill:#81b3d2;fill-opacity:1;fill-rule:nonzero;stroke:none"
           d="m 48.847,30.938 h 3 V 27 h -3 z" /><path
           id="path40"
           style="fill:#81b3d2;fill-opacity:1;fill-rule:nonzero;stroke:none"
           d="m 54.784,30.938 h 3 V 27 h -3 z" /><path
           id="path42"
           style="fill:#81b3d2;fill-opacity:1;fill-rule:nonzero;stroke:none"
           d="m 48.847,24.938 h 3 V 21 h -3 z" /><path
           id="path44"
           style="fill:#81b3d2;fill-opacity:1;fill-rule:nonzero;stroke:none"
           d="m 54.784,24.938 h 3 V 21 h -3 z" /></g></g></g></svg>