<?xml version="1.0" standalone="no"?>
<svg version="1.0" xmlns="http://www.w3.org/2000/svg"
 width="100%" height="100%" viewBox="0 0 75.000000 69.000000"
 preserveAspectRatio="xMidYMid meet">
 <symbol id="like-icon" viewBox="0 0 75.000000 69.000000">

<g transform="translate(0.000000,69.000000) scale(0.100000,-0.100000)"
fill="currentColor" stroke="none">
<path d="M332 537 l-102 -102 0 -168 c0 -97 4 -177 10 -188 10 -18 23 -19 174
-19 143 0 165 2 178 18 32 35 108 235 108 283 0 70 -15 79 -140 79 l-103 0 7
38 c16 84 18 120 7 141 -7 11 -17 21 -24 21 -7 0 -58 -46 -115 -103z m68 -73
c-7 -32 -15 -64 -17 -71 -4 -10 24 -13 126 -13 l131 0 0 -28 c0 -15 -20 -75
-44 -132 l-44 -105 -131 -3 -131 -3 0 153 0 152 57 58 c31 32 59 56 61 54 2
-3 -2 -31 -8 -62z"/>
<path d="M50 235 l0 -175 60 0 60 0 0 175 0 175 -60 0 -60 0 0 -175z"/>
</g>
</symbol>
</svg>
