<?xml version="1.0" encoding="UTF-8" standalone="no"?>
<svg
   xmlns:dc="http://purl.org/dc/elements/1.1/"
   xmlns:cc="http://creativecommons.org/ns#"
   xmlns:rdf="http://www.w3.org/1999/02/22-rdf-syntax-ns#"
   xmlns:svg="http://www.w3.org/2000/svg"
   xmlns="http://www.w3.org/2000/svg"
   viewBox="0 0 248.85733 128.56706"
   height="128.56706"
   width="248.85733"
   xml:space="preserve"
   id="svg2"
   version="1.1"><metadata
     id="metadata8"><rdf:RDF><cc:Work
         rdf:about=""><dc:format>image/svg+xml</dc:format><dc:type
           rdf:resource="http://purl.org/dc/dcmitype/StillImage" /></cc:Work></rdf:RDF></metadata><defs
     id="defs6"><clipPath
       id="clipPath18"
       clipPathUnits="userSpaceOnUse"><path
         id="path16"
         d="M 0,96.425 H 186.643 V 0 H 0 Z" /></clipPath></defs><g
     transform="matrix(1.3333333,0,0,-1.3333333,0,128.56707)"
     id="g10"><g
       id="g12"><g
         clip-path="url(#clipPath18)"
         id="g14"><g
           transform="translate(186.6426,96.4253)"
           id="g20"><path
             id="path22"
             style="fill:#81b3d3;fill-opacity:1;fill-rule:nonzero;stroke:none"
             d="m 0,0 h -186.643 l 80.487,-90.474 c 7.06,-7.936 18.61,-7.936 25.67,0 z" /></g><g
           transform="translate(43.2422,95.7041)"
           id="g24"><path
             id="path26"
             style="fill:#23a9e1;fill-opacity:1;fill-rule:nonzero;stroke:none"
             d="M 0,0 49.522,-58.35 98.847,-0.353 Z" /></g><g
           transform="translate(122.0225,79.0933)"
           id="g28"><path
             id="path30"
             style="fill:#ffffff;fill-opacity:1;fill-rule:nonzero;stroke:none"
             d="M 0,0 C -5.062,-0.028 -10.124,-0.056 -15.187,-0.084 -9.186,6.847 -6.489,6.106 0,0" /></g><g
           transform="translate(80.8486,73.7354)"
           id="g32"><path
             id="path34"
             style="fill:#ffffff;fill-opacity:1;fill-rule:nonzero;stroke:none"
             d="M 0,0 H 26.68 C 24.694,1.233 19.972,7.059 17.372,4.893 17.16,4.715 9.867,13.741 5.076,9.392 0.897,5.593 -1.044,9.89 -5.781,6.881 -11.18,3.311 -2.661,1.206 0,0" /></g><g
           transform="translate(137.1074,90.8823)"
           id="g36"><path
             id="path38"
             style="fill:#491213;fill-opacity:1;fill-rule:nonzero;stroke:none"
             d="m 0,0 v 3.75 h 3.203 z m -75.858,-14.494 0.14,-0.13 c 0.035,0.038 3.583,3.869 9.215,7.648 5.187,3.479 13.235,7.615 22.156,7.566 8.901,-0.043 17.064,-4.193 22.346,-7.667 5.646,-3.712 9.284,-7.456 9.446,-7.625 l -3.875,-4.536 c -6.912,-0.949 -11.863,-6.077 -18.603,-4.956 -3.396,0.564 -3.498,2.514 -4.469,4.456 -0.746,1.493 -1.936,1.303 -3.487,1.91 -1.443,0.565 -2.278,1.738 -5.162,1.061 -2.529,-0.593 -2.807,-4.518 -5.953,-4.293 -1.689,0.121 -1.81,2.497 -4.244,5.539 -6.301,7.571 -12.158,6.523 -16.247,-0.475 l 30.251,-35.938 z M -88.745,3.75 V 0.814 l -2.471,2.936 z m 82.992,0 h 4.97 v -4.668 l -4.97,-5.818 z M -12,-13.897 V 3.75 h 5.463 V -7.655 l -5.393,-6.313 c -0.018,0.02 -0.042,0.044 -0.07,0.071 m -0.782,16.004 v -15.241 c -1.051,0.996 -2.945,2.7 -5.479,4.6 z m -6.416,0.552 V -7.845 c -0.713,0.514 -1.463,1.036 -2.256,1.558 -1.024,0.675 -2.156,1.374 -3.381,2.065 z m -6.642,0.204 v -6.532 c -1.489,0.801 -3.099,1.574 -4.806,2.272 z m 0.783,0.887 h 5.74 l -5.74,-7.008 z m 6.641,0 h 5.599 l -5.599,-10.876 z m -13.55,0 h 5.945 l -5.435,-4.818 c -0.168,0.065 -0.341,0.125 -0.511,0.188 V 3.75 Z M -32.75,3.108 v -3.701 c -1.532,0.541 -3.13,1.007 -4.775,1.366 z m -6.475,-0.065 v -1.94 c -1.101,0.184 -2.221,0.316 -3.356,0.388 z m -10.423,0.06 3.464,-1.604 c -1.174,-0.066 -2.33,-0.201 -3.464,-0.39 z m -6.347,0.005 4.723,-2.308 c -1.632,-0.352 -3.209,-0.812 -4.723,-1.347 z m 5.563,-1.847 -5.091,2.489 h 5.091 z m 5.492,0.526 -4.242,1.963 h 4.242 z m 0.938,1.963 h 4.439 l -4.439,-2.055 z m 5.791,0 h 4.99 l -4.99,-2.439 z M -57.33,-1.042 -62.736,3.75 h 5.959 v -4.583 c -0.185,-0.07 -0.37,-0.138 -0.553,-0.209 m -5.573,3.893 4.764,-4.223 c -1.698,-0.704 -3.293,-1.485 -4.764,-2.293 z m -6.643,-0.197 5.608,-6.9 c -1.118,-0.647 -2.158,-1.3 -3.1,-1.932 -0.891,-0.598 -1.725,-1.196 -2.508,-1.783 z m -6.416,-0.551 5.524,-10.744 c -2.753,-2.14 -4.692,-4.012 -5.524,-4.854 z m 5.633,-9.243 -5.599,10.89 h 5.599 z m 6.641,3.828 -5.739,7.062 h 5.739 z m -19.303,-2.708 -4.971,5.904 V 3.75 h 4.971 z m 0.783,9.77 h 5.462 v -17.191 l -5.462,6.489 z m 38.204,1.777 h -50.92 v -22.463 l 50.581,-61.522 0.339,0.423 50.748,60.394 V 5.527 Z" /></g><g
           transform="translate(88.7451,25.5098)"
           id="g40"><path
             id="path42"
             style="fill:#23a9e1;fill-opacity:1;fill-rule:nonzero;stroke:none"
             d="M 0,0 4.02,6.5 8.023,0 4.02,-6.515 Z" /></g><g
           transform="translate(65.4639,64.1602)"
           id="g44"><path
             id="path46"
             style="fill:#ffffff;fill-opacity:1;fill-rule:nonzero;stroke:none"
             d="M 0,0 C 0.513,-0.618 0.891,-1.284 0.806,-2.116 0.747,-2.695 -0.13,-3.666 0.536,-3.962 1.283,-3.017 2.031,-2.073 2.778,-1.128 2.177,-0.977 -2.587,4.72 -2.664,5.344 -3.717,4.766 -4.771,4.188 -5.823,3.61 c 0.164,-0.661 1.294,-0.005 1.854,-0.046 0.828,-0.06 1.425,-0.56 1.953,-1.152 -1.727,-1.449 -5.93,-5.017 -6.374,-5.09 -0.225,-0.036 -1.088,0.601 -1.1,0.056 -0.006,-0.262 0.851,-1.014 1.014,-1.21 0.744,-0.884 1.486,-1.769 2.229,-2.653 0.619,0.282 -0.11,0.732 0.205,1.243 C -5.811,-4.868 -1.141,-0.975 0,0" /></g><g
           transform="translate(60.1904,71.1401)"
           id="g48"><path
             id="path50"
             style="fill:#ffffff;fill-opacity:1;fill-rule:nonzero;stroke:none"
             d="m 0,0 c 0.443,0.095 0.624,-0.434 0.958,0.056 -0.816,0.973 -1.633,1.945 -2.449,2.917 -0.371,0.442 -0.84,0.916 -0.706,-0.018 0.089,-0.63 -6.114,-5.664 -6.493,-5.82 -0.479,-0.197 -0.758,0.417 -1.11,-0.097 0.732,-0.869 1.461,-1.739 2.194,-2.608 0.246,-0.292 0.476,-0.612 0.747,-0.882 0.338,-0.339 0.208,0.672 0.223,0.585 -0.091,0.513 0.528,0.948 0.856,1.228 C -4.234,-3.278 -0.382,-0.051 0,0" /></g><g
           transform="translate(51.4199,72.0571)"
           id="g52"><path
             id="path54"
             style="fill:#ffffff;fill-opacity:1;fill-rule:nonzero;stroke:none"
             d="m 0,0 c -1.767,-0.523 -3.65,0.164 -4.207,2.042 -0.543,1.835 0.614,3.757 2.071,4.801 1.44,1.032 3.589,0.97 4.373,-0.838 C 2.583,5.206 2.396,4.299 2.144,3.503 1.983,2.997 1.547,2.503 2.199,2.214 3.06,3.31 3.92,4.404 4.78,5.5 3.726,6.133 3.263,7.183 2.48,8.095 1.599,9.166 0.416,10.174 -1.002,10.379 -3.872,10.785 -6.576,7.823 -6.797,5.134 -6.933,3.677 -6.423,2.286 -5.551,1.133 c 0.75,-0.994 1.868,-1.623 2.435,-2.754 0.262,-0.095 2.705,1.033 3.286,1.255 C 0.118,-0.255 0.081,-0.091 0,0 -0.761,-0.226 0,0 0,0" /></g><g
           transform="translate(90.7197,35.6484)"
           id="g56"><path
             id="path58"
             style="fill:#ffffff;fill-opacity:1;fill-rule:nonzero;stroke:none"
             d="M 0,0 C -1.15,0.768 -4.025,4.689 -4.573,5.341 -4.682,5.471 -4.792,5.602 -4.902,5.732 -4.913,5.746 -5.187,5.508 -5.148,5.541 -5.321,5.396 -5.015,4.968 -5.2,4.677 c -0.793,-1.241 -5.758,-4.984 -6.016,-5.163 -0.555,-0.384 -1.164,0.159 -1.489,-0.317 0.719,-0.853 2.78,-3.543 3.018,-3.582 0.48,-0.078 0.149,0.816 0.211,1 0.123,0.369 2.633,2.446 3.549,3.211 0.336,0.281 0.688,-0.426 0.888,-0.722 0.327,-0.485 0.474,-1 0.298,-1.569 -0.116,-0.37 -0.717,-0.92 -0.25,-1.174 0.619,0.723 2.361,2.754 2.613,3.049 0.252,0.293 -0.566,0.037 -0.469,0.087 -0.37,-0.191 -0.717,-0.235 -1.063,0.028 -0.096,0.072 -1.089,1.082 -0.99,1.166 0.43,0.362 0.959,0.963 1.516,1.1 0.863,0.213 1.582,-1.516 1.709,-2.129 0.121,-0.578 0.104,-1.185 -0.076,-1.75 -0.124,-0.387 -0.487,-0.696 0.018,-0.93 0.712,0.974 1.421,1.947 2.13,2.92 C 0.254,-0.104 0.122,-0.071 0,0 -0.127,0.085 0.139,-0.07 0,0" /></g><g
           transform="translate(80.0313,44.5322)"
           id="g60"><path
             id="path62"
             style="fill:#ffffff;fill-opacity:1;fill-rule:nonzero;stroke:none"
             d="m 0,0 c -0.647,-1.51 -2.201,-3.063 -3.732,-3.667 -1.819,-0.715 -3.1,0.827 -2.361,2.553 0.651,1.515 2.203,3.056 3.738,3.666 C -0.504,3.287 0.711,1.706 0,0 -0.382,-0.89 0.07,0.169 0,0 M 0.465,-4.753 C 2.67,-2.897 2.947,0.3 1.233,2.586 -0.634,5.075 -4.138,5.682 -6.57,3.638 -8.774,1.784 -9.06,-1.409 -7.328,-3.687 c 1.99,-2.621 5.198,-2.917 7.793,-1.066 1.155,0.975 -0.1,-0.07 0,0" /></g><g
           transform="translate(74.0518,54.3882)"
           id="g64"><path
             id="path66"
             style="fill:#ffffff;fill-opacity:1;fill-rule:nonzero;stroke:none"
             d="M 0,0 C 0.475,-0.06 0.926,-0.55 1.269,-0.042 0.526,0.837 -0.216,1.716 -0.959,2.595 -1.554,2.326 -0.912,2.046 -1.153,1.624 -1.397,1.197 -3.713,0.843 -4.329,0.734 c 0.224,0.644 0.894,2.615 1.157,2.835 0.544,0.445 0.883,-0.432 1.283,0.141 -0.915,1.084 -1.829,2.169 -2.743,3.253 -0.309,0.366 -0.558,1.028 -0.98,0.68 C -5.574,7.674 -5.606,6.171 -5.701,5.91 -5.787,5.674 -6.637,2.272 -7.627,1.44 -8.12,1.026 -9.864,-0.494 -10.329,-0.657 c -0.541,-0.189 -0.825,0.598 -1.22,0.038 0.83,-0.986 1.661,-1.971 2.491,-2.957 0.125,-0.148 0.602,-0.863 0.767,-0.893 0.521,-0.094 0.06,0.893 0.113,1.086 0.152,0.431 2.5,2.719 3.497,2.859 C -3.22,-0.319 -1.481,0.178 0,0 0.339,-0.042 -0.352,0.043 0,0" /></g><g
           transform="translate(67.792,73.5513)"
           id="g68"><path
             id="path70"
             style="fill:#dc6243;fill-opacity:1;fill-rule:nonzero;stroke:none"
             d="M 0,0 C -4.043,0.167 -2.351,3.954 0.395,4.808 3.006,5.621 8.483,3.091 10.237,1.41 7.454,0.555 3.852,0.678 0.79,0.536 0.564,3.656 -0.167,2.568 0,0" /></g><g
           transform="translate(77.2949,61.0024)"
           id="g72"><path
             id="path74"
             style="fill:#dc6243;fill-opacity:1;fill-rule:nonzero;stroke:none"
             d="M 0,0 C -8.62,0.071 -2.792,13.322 0.141,12.521 3.514,11.448 3.136,-0.101 0,0" /></g><g
           transform="translate(83.4004,65.3315)"
           id="g76"><path
             id="path78"
             style="fill:#dc6243;fill-opacity:1;fill-rule:nonzero;stroke:none"
             d="M 0,0 C -0.84,-2.501 -2.361,-2.968 -2.192,0.07 -1.998,3.573 0.286,2.732 2.737,4.074 4.777,5.193 5.876,9.288 9.378,6.839 10.939,5.746 12.729,6.66 13.229,5.006 13.203,5.09 8.684,-5.302 11.197,-5.302 6.236,-5.302 8.424,0.62 10.323,4.597 8.477,3.712 5.481,-2.091 7.941,-3.046 6.66,-4.732 2.747,-6.991 0.707,-5.344 -0.843,-4.095 0.018,-2.019 0,0" /></g><g
           transform="translate(87.5049,55.7285)"
           id="g80"><path
             id="path82"
             style="fill:#dc6243;fill-opacity:1;fill-rule:nonzero;stroke:none"
             d="M 0,0 C -3.489,-1.046 -8.122,1.207 -2.51,2.34 0.973,3.044 4.677,1.562 0,0 0.141,0.042 -0.128,-0.043 0,0" /></g><g
           transform="translate(91.875,55.8691)"
           id="g84"><path
             id="path86"
             style="fill:#dc6243;fill-opacity:1;fill-rule:nonzero;stroke:none"
             d="M 0,0 C -0.736,1.658 0.562,3.635 2.68,2.199 4.526,0.947 1.829,-0.907 0,0" /></g><g
           transform="translate(88.9287,51.2012)"
           id="g88"><path
             id="path90"
             style="fill:#dc6243;fill-opacity:1;fill-rule:nonzero;stroke:none"
             d="M 0,0 C -2.411,0.747 -10.537,0.561 -5.218,2.764 -3.578,3.443 4.937,2.666 0,0" /></g><g
           transform="translate(99.3623,47.8872)"
           id="g92"><path
             id="path94"
             style="fill:#dc6243;fill-opacity:1;fill-rule:nonzero;stroke:none"
             d="M 0,0 C -1.437,1.227 -2.891,1.295 -4.229,0 -6.024,3.293 -12.548,2.19 -15.596,2.651 -13.956,-1.377 -0.73,-2.129 0,0" /></g><g
           transform="translate(97.46,45.4629)"
           id="g96"><path
             id="path98"
             style="fill:#dc6243;fill-opacity:1;fill-rule:nonzero;stroke:none"
             d="m 0,0 c -3.151,0.146 -6.671,0.563 -9.646,-0.084 1.86,-0.466 6.395,-1.795 2.171,-2.918 1.515,-2.168 3.973,-2.029 5.584,-0.127 C -2.546,-2.807 -2.9,-2.41 -3.442,-2.072 -1.771,-1.769 -0.208,-0.805 0,0" /></g><g
           transform="translate(101.0557,49.3403)"
           id="g100"><path
             id="path102"
             style="fill:#dc6243;fill-opacity:1;fill-rule:nonzero;stroke:none"
             d="m 0,0 c -5.288,3.112 -3.95,5.427 0.354,7.586 2.253,1.131 7.324,5.208 9.447,3.85 C 6.533,7.624 3.266,3.812 0,0" /></g><g
           transform="translate(97.291,56.6162)"
           id="g104"><path
             id="path106"
             style="fill:#f49774;fill-opacity:1;fill-rule:nonzero;stroke:none"
             d="M 0,0 C -4.479,4.601 6.689,4.178 8.487,5.796 9.798,5.359 19.255,14.079 21.559,13.537 19.903,11.596 16.339,5.401 13.783,5.401 11.819,5.401 9.833,5.693 8.312,4.294 6.087,2.246 2.402,1.204 0,0" /></g><g
           transform="translate(98.7578,62.2422)"
           id="g108"><path
             id="path110"
             style="fill:#f4b1a4;fill-opacity:1;fill-rule:nonzero;stroke:none"
             d="M 0,0 C -2.453,-1.319 -4.772,3.907 -0.537,3.398 2.276,3.06 5.125,3.635 7.811,3.172 5.884,0.881 3.104,-0.381 0,0" /></g><g
           transform="translate(111.3896,43.959)"
           id="g112"><path
             id="path114"
             style="fill:#ffffff;fill-opacity:1;fill-rule:nonzero;stroke:none"
             d="m 0,0 c 0.191,-0.648 0.299,-1.332 0.215,-2.009 -0.108,-0.873 -0.979,-2.925 -2.173,-2.34 -1.169,0.574 -2.194,1.728 -3.188,2.552 0.802,0.936 1.507,1.749 2.854,1.295 0.37,-0.123 0.688,0.036 0.299,0.262 -0.405,0.234 -3.114,1.965 -3.261,1.799 -0.27,-0.311 0.528,-0.869 0.221,-1.473 -0.229,-0.447 -0.611,-0.834 -0.932,-1.219 -0.72,0.608 -1.923,1.253 -1.056,2.256 0.542,0.66 1.25,1.172 2.097,1.342 0.566,0.114 1.841,-0.389 2.006,0.223 -1.087,0.523 -2.172,1.044 -3.258,1.565 0.177,-0.799 -3.348,-4.524 -4.131,-5.464 -0.113,-0.137 -0.658,-0.609 -0.664,-0.797 -0.008,-0.429 0.622,-0.096 0.658,-0.084 0.486,0.18 6.816,-5.109 6.972,-5.471 0.1,-0.281 -0.221,-0.574 -0.029,-0.732 -0.011,0.01 0.227,-0.216 0.253,-0.184 0.39,0.468 4.522,5.975 5.374,6.217 C 1.463,-1.047 0.669,0.168 -0.111,1.391 -0.701,1.133 -0.13,0.442 0,0" /></g><g
           transform="translate(105.2285,37.2559)"
           id="g116"><path
             id="path118"
             style="fill:#ffffff;fill-opacity:1;fill-rule:nonzero;stroke:none"
             d="m 0,0 c -2.077,1.34 -5.596,-1.279 -6.125,-1.531 -1.039,-0.492 -1.789,0.543 -1.251,1.502 0.469,0.83 1.393,1.234 2.31,1.289 0.277,0.016 1.349,-0.198 1.459,-0.027 0.129,0.203 0.227,0.22 0.042,0.345 -0.857,0.579 -1.712,1.156 -2.568,1.735 -0.176,-1.055 -1.385,-1.727 -2.076,-2.442 -0.823,-0.854 -1.52,-1.93 -1.52,-3.156 0,-1.135 0.679,-2.142 1.677,-2.66 1.136,-0.592 2.318,-0.117 3.324,0.51 0.627,0.392 1.254,0.857 1.924,1.171 0.996,0.467 2.304,0.063 1.953,-1.269 -0.282,-1.073 -1.35,-2.061 -2.405,-2.34 -0.616,-0.164 -1.269,-0.109 -1.872,0.09 -0.432,0.141 -0.993,0.734 -1.23,0.111 1.161,-0.846 2.321,-1.691 3.482,-2.537 0.103,0.76 0.522,1.09 1.086,1.564 0.735,0.645 1.438,1.321 1.994,2.13 C 1.364,-3.82 1.743,-1.451 0,0" /></g><g
           transform="translate(105.2285,37.2559)"
           id="g120"><path
             id="path122"
             style="fill:#ffffff;fill-opacity:1;fill-rule:nonzero;stroke:none"
             d="M 0,0 C 0.925,-0.598 -0.591,0.494 0,0" /></g><g
           transform="translate(134.4619,74.5703)"
           id="g124"><path
             id="path126"
             style="fill:#ffffff;fill-opacity:1;fill-rule:nonzero;stroke:none"
             d="M 0,0 C -0.007,-0.004 -0.007,-0.004 0,0" /></g><g
           transform="translate(134.5459,74.6245)"
           id="g128"><path
             id="path130"
             style="fill:#ffffff;fill-opacity:1;fill-rule:nonzero;stroke:none"
             d="m 0,0 c 0.077,0.049 0.153,0.098 0,0 -0.051,-0.032 -0.074,-0.047 -0.084,-0.054 0.014,0.008 0.047,0.03 0.082,0.052 C -0.347,-0.222 -0.67,-0.475 -0.96,-0.763 -1.481,0.134 -2.004,1.032 -2.524,1.93 -1.348,1.439 -0.173,0.945 1,0.449 0.646,0.351 0.309,0.196 0,0 M 7.374,2.156 C 6.645,1.427 -1.046,4.497 -1.608,4.92 -1.898,5.036 -1.908,6.241 -2.313,5.753 -2.718,5.265 -3.123,4.777 -3.529,4.29 -3.947,3.785 -4.366,3.281 -4.785,2.777 -5.045,2.463 -5.322,2.319 -4.823,2.057 c 0.837,0.419 5.417,-7.346 5.008,-8.461 -0.725,-0.376 -6.915,5.057 -7.081,5.415 -0.052,0.146 0.273,1.021 -0.211,0.945 -0.229,-0.036 -0.744,-0.896 -0.889,-1.072 -0.297,-0.357 -0.592,-0.715 -0.889,-1.072 0.332,-0.485 0.517,0.021 0.959,-0.042 0.383,-0.077 1.844,-1.331 2.241,-1.664 -0.724,-0.027 -2.684,-0.131 -2.933,-0.113 -0.903,-0.112 -0.422,0.663 -1.015,0.931 -0.759,-0.922 -1.519,-1.843 -2.277,-2.764 -0.442,-0.536 -0.885,-1.072 -1.326,-1.607 -0.054,-0.065 -0.047,-0.032 0.049,-0.112 0.331,-0.273 0.105,-0.168 0.569,-0.006 0.506,0.177 6.558,-4.931 6.776,-5.19 0.377,-0.45 -0.154,-0.975 0.411,-1.221 0.6,0.728 1.199,1.457 1.798,2.184 0.091,0.11 0.141,0.1 0.021,0.198 -0.427,0.353 -0.476,-0.212 -1.002,-0.154 -0.533,0.089 -4.395,3.369 -5.895,4.61 1.822,0.068 7.291,0.271 8.199,0.304 0.3,0.011 1.139,-0.896 1.069,-1.216 -0.081,-0.378 -0.463,-0.558 0.053,-0.794 0.48,0.575 0.986,1.149 1.457,1.734 l 0.226,0.282 c 0.076,0.052 0.146,0.145 0.21,0.265 l 0.168,0.211 c 0.425,0.485 1.8,2.006 1.635,2.15 -0.461,0.4 -0.685,-0.466 -1.298,0.054 -0.348,0.249 -1.223,1.788 -1.443,2.162 -0.264,0.449 0.608,0.897 0.963,1.119 0.777,0.482 3.248,1.183 3.483,-0.348 0.04,-0.258 -0.271,-0.55 -0.084,-0.704 0.044,-0.037 0.204,-0.242 0.269,-0.163 0.164,0.197 2.362,2.843 3.3,3.969 C 7.6,1.969 7.491,2.111 7.374,2.156" /></g><g
           transform="translate(124.5195,56.7993)"
           id="g132"><path
             id="path134"
             style="fill:#ffffff;fill-opacity:1;fill-rule:nonzero;stroke:none"
             d="m 0,0 c -0.019,-0.02 -0.025,-0.027 -0.026,-0.027 -1.233,-1.292 -3.359,-0.096 -4.505,0.731 -1.147,0.829 -3.112,2.57 -1.857,4.104 1.056,1.287 3.124,0.231 4.192,-0.482 C -0.996,3.523 1.216,1.73 0.08,0.11 0.154,0.2 0.206,0.258 0,0 m 0.281,6.614 c -2.375,1.979 -5.63,1.404 -7.586,-0.832 -1.903,-2.312 -1.712,-5.663 0.606,-7.615 2.339,-1.926 5.67,-1.438 7.572,0.846 1.898,2.303 1.768,5.668 -0.592,7.601" /></g><g
           transform="translate(124.8008,63.4131)"
           id="g136"><path
             id="path138"
             style="fill:#ffffff;fill-opacity:1;fill-rule:nonzero;stroke:none"
             d="M 0,0 C 1.171,-0.959 -0.253,0.211 0,0" /></g><g
           transform="translate(124.4922,56.7725)"
           id="g140"><path
             id="path142"
             style="fill:#ffffff;fill-opacity:1;fill-rule:nonzero;stroke:none"
             d="M 0,0 C 0.009,0.01 0.018,0.018 0.026,0.027 0.056,0.064 0.082,0.1 0.106,0.137 0.057,0.076 -0.005,0 0,0" /></g><g
           transform="translate(116.8906,47.5352)"
           id="g144"><path
             id="path146"
             style="fill:#ffffff;fill-opacity:1;fill-rule:nonzero;stroke:none"
             d="M 0,0 C -0.24,-0.296 -0.044,-0.054 -0.665,-0.65 -0.971,-0.943 -7.103,4.025 -6.857,4.294 -6.022,5.212 -4.29,5.85 -3.28,5.591 -1.09,5.031 1.934,2.331 0,0 M 1.318,6.754 C 1.431,6.66 1.592,6.53 1.255,6.811 -1.58,8.938 -4.939,8.315 -7.147,5.654 -8.136,4.465 -9.123,3.276 -10.108,2.087 c 0.35,-0.512 0.762,0.118 1.273,-0.176 0.436,-0.25 6.244,-5.1 6.339,-5.366 0.164,-0.458 -0.255,-0.548 0.143,-0.875 0.172,-0.143 4.537,5.245 4.935,6.191 0.691,1.755 0.141,3.678 -1.264,4.893" /></g></g></g></g></svg>