<?xml version="1.0" encoding="UTF-8" standalone="no"?>
<svg
   xmlns:dc="http://purl.org/dc/elements/1.1/"
   xmlns:cc="http://creativecommons.org/ns#"
   xmlns:rdf="http://www.w3.org/1999/02/22-rdf-syntax-ns#"
   xmlns:svg="http://www.w3.org/2000/svg"
   xmlns="http://www.w3.org/2000/svg"
   viewBox="0 0 36 36"
   height="100%"
   width="100%"
   xml:space="preserve"
   id="svg2"
   version="1.1"><metadata
     id="metadata8"><rdf:RDF><cc:Work
         rdf:about=""><dc:format>image/svg+xml</dc:format><dc:type
           rdf:resource="http://purl.org/dc/dcmitype/StillImage" /></cc:Work></rdf:RDF></metadata><defs
     id="defs6"><clipPath
       id="clipPath18"
       clipPathUnits="userSpaceOnUse"><path
         id="path16"
         d="M 0,27 H 27 V 0 H 0 Z" /></clipPath></defs><g
     transform="matrix(1.3333333,0,0,-1.3333333,0,36)"
     id="g10"><g
       id="g12"><g
         clip-path="url(#clipPath18)"
         id="g14"><g
           transform="translate(13.5,27)"
           id="g20"><path
             id="path22"
             style="fill:#ffffff;fill-opacity:1;fill-rule:nonzero;stroke:none"
             d="M 0,0 C 7.456,0 13.5,-6.044 13.5,-13.5 13.5,-20.956 7.456,-27 0,-27 c -7.456,0 -13.5,6.044 -13.5,13.5 C -13.5,-6.044 -7.456,0 0,0" /></g><g
           transform="translate(13.5,21.8608)"
           id="g24"><path
             id="path26"
             style="fill:#81b3d3;fill-opacity:1;fill-rule:nonzero;stroke:none"
             d="m 0,0 c 4.617,0 8.361,-3.743 8.361,-8.361 0,-4.617 -3.744,-8.361 -8.361,-8.361 -4.618,0 -8.361,3.744 -8.361,8.361 C -8.361,-3.743 -4.618,0 0,0" /></g></g></g></g></svg>