<?xml version="1.0" standalone="no"?>
<svg version="1.0" xmlns="http://www.w3.org/2000/svg"
 width="100%" height="100%" viewBox="0 0 50.000000 63.000000"
 preserveAspectRatio="xMidYMid meet">
 <symbol id="replay" viewBox="0 0 50.000000 63.000000">

<g transform="translate(0.000000,63.000000) scale(0.100000,-0.100000)"
fill="currentColor" stroke="none">
<path d="M170 545 l-75 -75 78 -78 77 -77 0 64 0 64 37 -6 c81 -13 148 -98
148 -187 0 -123 -116 -212 -234 -180 -57 15 -117 76 -132 135 -10 40 -14 45
-40 45 -35 0 -37 -14 -12 -85 31 -92 134 -165 233 -165 183 0 305 203 221 367
-36 72 -124 133 -190 133 -30 0 -30 1 -33 60 l-3 61 -75 -76z"/>
</g>
</symbol>
</svg>
