<?xml version="1.0" encoding="UTF-8" standalone="no"?>
<svg
   xmlns:dc="http://purl.org/dc/elements/1.1/"
   xmlns:cc="http://creativecommons.org/ns#"
   xmlns:rdf="http://www.w3.org/1999/02/22-rdf-syntax-ns#"
   xmlns:svg="http://www.w3.org/2000/svg"
   xmlns="http://www.w3.org/2000/svg"
   viewBox="0 0 613.00531 466.76932"
   height="466.76932"
   width="613.00531"
   xml:space="preserve"
   id="svg2"
   version="1.1"><metadata
     id="metadata8"><rdf:RDF><cc:Work
         rdf:about=""><dc:format>image/svg+xml</dc:format><dc:type
           rdf:resource="http://purl.org/dc/dcmitype/StillImage" /></cc:Work></rdf:RDF></metadata><defs
     id="defs6"><clipPath
       id="clipPath18"
       clipPathUnits="userSpaceOnUse"><path
         id="path16"
         d="M 0,350.077 H 459.754 V 0 H 0 Z" /></clipPath></defs><g
     transform="matrix(1.3333333,0,0,-1.3333333,0,466.76933)"
     id="g10"><g
       id="g12"><g
         clip-path="url(#clipPath18)"
         id="g14"><g
           transform="translate(159.0288,279.873)"
           id="g20"><path
             id="path22"
             style="fill:#766458;fill-opacity:1;fill-rule:nonzero;stroke:none"
             d="m 0,0 h -0.145 c -0.979,0 -1.756,-0.806 -1.756,-1.785 0,-0.373 0.115,-0.72 0.289,-1.009 L -1.641,-2.851 C -3.052,-5.27 -6.479,-4.809 -4.694,-1.7 l 2.274,3.944 1.44,2.447 C 1.122,8.26 4,6.85 2.186,3.741 Z M 6.392,0.203 6.189,-0.026 C 4.836,-1.495 3.167,-2.214 1.668,-2.243 L 4.49,2.622 c 1.813,3.139 0.144,6.104 -2.679,6.104 -2.303,0 -4.088,-0.92 -5.815,-3.916 L -5.472,2.248 -6.699,0.15 -6.853,-0.027 c -2.159,-2.506 -4.262,-4.491 -5.586,-4.491 -0.662,0 -1.037,0.461 -0.346,1.641 l 6.422,11.201 h 2.446 l 0.864,1.44 H -5.53 l 2.822,4.893 H -5.702 L -8.524,9.762 h -2.707 l -0.864,-1.44 h 2.735 l -6.019,-10.423 c -1.267,-2.217 -0.374,-4.262 2.044,-4.262 1.739,0 3.662,1.309 5.512,3.084 -0.006,-3.816 5.297,-4.562 8.539,-0.463 h 0.661 c 1.785,0 4.606,1.094 6.134,2.907 C 7.312,-0.43 6.795,0.03 6.392,0.203" /></g><g
           transform="translate(201.1748,284.2803)"
           id="g24"><path
             id="path26"
             style="fill:#766458;fill-opacity:1;fill-rule:nonzero;stroke:none"
             d="M 0,0 C 1.729,2.965 4.781,2.477 2.996,-0.634 L 2.563,-1.383 C 1.125,-3.83 -0.805,-3.774 -1.928,-3.37 Z M 5.701,-4.204 5.5,-4.433 c -2.16,-2.506 -4.924,-4.491 -7.025,-4.491 -1.844,0 -2.938,1.151 -1.555,3.569 l 0.287,0.52 c 1.93,-0.807 5.558,-0.432 7.804,3.455 l 0.432,0.749 c 1.612,2.764 0.058,4.837 -2.39,4.837 -2.419,0 -4.348,-1.268 -5.615,-3.455 l -2.906,-4.984 -0.173,-0.199 c -2.159,-2.504 -4.261,-4.49 -5.586,-4.49 -0.661,0 -1.036,0.461 -0.346,1.641 l 4.319,7.571 c 1.295,2.274 0.059,3.916 -1.612,3.916 -1.296,0 -2.679,-0.72 -4.175,-2.274 l 4.779,8.32 h -2.994 L -19.61,-4.24 -19.778,-4.431 c -2.159,-2.506 -4.261,-4.491 -5.586,-4.491 -0.662,0 -1.037,0.461 -0.345,1.641 l 6.42,11.201 h 2.447 l 0.864,1.44 h -2.476 l 2.822,4.893 h -2.994 l -2.822,-4.895 h -2.706 l -0.864,-1.44 h 2.735 l -6.019,-10.423 c -1.267,-2.217 -0.373,-4.262 2.045,-4.262 1.213,0 2.517,0.639 3.821,1.627 l -0.771,-1.338 h 3.022 l 4.55,7.916 c 4.606,5.789 6.65,5.039 5.354,2.822 l -3.888,-6.767 c -1.267,-2.218 -0.373,-4.263 2.045,-4.263 1.781,0 3.757,1.375 5.646,3.217 0.145,-1.864 1.653,-3.217 4.055,-3.217 3.396,0 6.766,2.649 9.242,5.529 -0.196,0.404 -0.714,0.864 -1.118,1.037" /></g><g
           transform="translate(285.4141,279.873)"
           id="g28"><path
             id="path30"
             style="fill:#766458;fill-opacity:1;fill-rule:nonzero;stroke:none"
             d="m 0,0 h -0.146 c -0.978,0 -1.755,-0.806 -1.755,-1.785 0,-0.373 0.115,-0.72 0.287,-1.009 L -1.642,-2.851 C -3.052,-5.27 -6.479,-4.809 -4.694,-1.7 l 2.273,3.944 1.44,2.447 C 1.121,8.26 3.998,6.85 2.187,3.741 Z m -29.54,-4.519 c -0.662,0 -1.035,0.461 -0.346,1.641 l 4.176,7.285 c 1.611,2.793 4.809,2.073 3.34,-0.634 l -2.274,-3.974 c -1.813,-2.908 -3.63,-4.318 -4.896,-4.318 m -1.381,-6.68 c -0.635,-1.123 -1.642,-0.951 -1.642,-0.145 0,0.777 0.72,1.67 2.994,2.562 z M -49.748,0 h -0.146 c -0.978,0 -1.755,-0.806 -1.755,-1.785 0,-0.373 0.115,-0.72 0.287,-1.009 l -0.028,-0.057 c -1.41,-2.419 -4.837,-1.958 -3.052,1.151 l 2.273,3.944 1.44,2.447 c 2.103,3.569 4.979,2.159 3.167,-0.95 z m -18.397,-4.519 c -0.662,0 -1.037,0.461 -0.346,1.641 l 4.176,7.285 c 1.611,2.793 4.809,2.073 3.34,-0.634 l -2.273,-3.974 c -1.816,-2.908 -3.63,-4.318 -4.897,-4.318 m -1.383,-6.68 c -0.633,-1.123 -1.641,-0.951 -1.641,-0.145 0,0.777 0.721,1.67 2.994,2.562 z m 57.177,15.606 c 1.728,2.965 4.778,2.477 2.993,-0.634 L -9.79,3.024 C -11.229,0.577 -13.159,0.633 -14.282,1.037 Z M 30.632,0.203 30.431,-0.026 c -1.096,-1.295 -2.42,-2.447 -3.601,-3.254 0.95,2.851 0.749,7.228 2.593,11.057 L 27.177,8.986 C 25.938,7.287 23.233,3.371 20.526,0.204 V 0.203 l -0.2,-0.229 c -2.158,-2.506 -4.261,-4.491 -5.587,-4.491 -0.661,0 -1.035,0.461 -0.343,1.641 l 6.391,11.201 h -2.994 l -5.326,-9.3 C 10.192,-3.047 8.437,-4.2 7.86,-3.94 c -0.748,0.315 0,1.438 0.375,2.072 L 14.08,8.324 H 11.085 L 6.39,0.2 6.192,-0.027 C 4.839,-1.496 3.17,-2.215 1.672,-2.244 L 4.493,2.621 C 6.306,5.76 4.64,8.725 1.815,8.725 -0.489,8.725 -2.274,7.805 -4,4.809 L -5.47,2.247 -6.696,0.15 -6.851,-0.028 c -2.158,-2.506 -4.923,-4.491 -7.024,-4.491 -1.843,0 -2.938,1.151 -1.556,3.569 l 0.289,0.52 c 1.929,-0.807 5.558,-0.432 7.803,3.455 l 0.434,0.749 c 1.61,2.764 0.056,4.837 -2.392,4.837 -2.419,0 -4.349,-1.268 -5.615,-3.455 l -2.903,-4.984 -0.174,-0.199 c -2.478,-2.851 -4.607,-4.691 -6.97,-5.699 l 6.709,11.459 h -1.757 c 0,1.238 -1.267,2.879 -3.139,2.879 -1.611,0 -3.857,-1.268 -5.125,-3.455 l -2.871,-4.957 -0.007,0.004 -0.202,-0.23 c -2.158,-2.504 -4.261,-4.49 -5.586,-4.49 -0.662,0 -1.035,0.461 -0.345,1.641 l 2.994,5.241 c 1.036,1.813 0.547,2.879 -0.433,4.06 l -1.671,2.017 c -0.431,0.547 -0.431,1.151 0.174,1.728 l -1.554,1.699 c -1.7,-1.525 -1.844,-3.225 -0.778,-4.607 l 0.26,-0.346 c -1.324,-1.872 -3.109,-4.404 -5.068,-6.709 l 0.002,-0.004 -0.2,-0.229 c -1.354,-1.467 -3.022,-2.188 -4.521,-2.217 l 2.82,4.866 c 1.815,3.138 0.145,6.104 -2.678,6.104 -2.302,0 -4.087,-0.922 -5.814,-3.916 l -1.47,-2.562 -1.228,-2.101 -0.152,-0.175 c -2.477,-2.851 -4.607,-4.691 -6.969,-5.699 l 6.709,11.459 h -1.756 c 0,1.238 -1.267,2.879 -3.139,2.879 -1.611,0 -3.857,-1.268 -5.125,-3.455 l -4.203,-7.256 c -1.268,-2.217 -0.375,-4.262 2.043,-4.262 0.836,0 1.844,0.375 2.852,1.008 l -0.835,-1.41 c -4.031,-1.238 -6.565,-2.879 -6.565,-5.125 0,-2.88 4.405,-3.484 6.565,0.201 l 2.274,3.945 c 2.396,0.746 4.743,2.155 7.18,4.481 -0.021,-3.832 5.294,-4.585 8.54,-0.479 h 0.661 c 1.785,0 4.607,1.094 6.134,2.908 1.437,1.67 2.561,3.168 4.95,6.42 l 0.402,-0.49 c 0.374,-0.489 0.521,-1.094 0.174,-1.698 l -3.168,-5.5 c -1.269,-2.218 -0.375,-4.263 2.045,-4.263 1.518,0 3.177,0.998 4.802,2.431 -0.05,-1.392 0.879,-2.431 2.597,-2.431 0.834,0 1.843,0.375 2.852,1.009 l -0.836,-1.409 c -4.031,-1.238 -6.563,-2.879 -6.563,-5.125 0,-2.88 4.405,-3.483 6.563,0.201 l 2.273,3.944 c 2.441,0.762 4.83,2.215 7.316,4.617 0.134,-1.875 1.645,-3.236 4.057,-3.236 2.438,0 4.859,1.367 6.947,3.201 -0.116,-3.92 5.266,-4.721 8.541,-0.58 h 0.662 c 0.938,0 2.158,0.309 3.33,0.856 -0.806,-2.081 -0.064,-3.478 1.649,-3.478 1.642,0 3.483,1.498 4.922,2.879 -0.287,-1.611 0.662,-2.879 2.563,-2.879 2.476,0 5.326,2.648 7.804,5.528 l -0.002,0.001 c 1.698,1.959 3.196,4.059 4.262,5.469 -1.181,-3.108 -0.549,-8.694 -3.397,-8.694 -1.008,0 -1.409,1.094 -1.409,1.094 l -1.874,-0.979 c 0,0 0.547,-2.42 3.283,-2.42 0.287,0 0.548,0.029 0.834,0.06 0.029,0 0.059,0.028 0.089,0.028 3.05,0.402 6.073,2.82 8.319,5.441 -0.172,0.461 -0.691,0.922 -1.122,1.037" /></g><path
           id="path32"
           style="fill:#766458;fill-opacity:1;fill-rule:nonzero;stroke:none"
           d="m 101.421,283.254 h 28.918 v -1.957 h -28.918 z" /><path
           id="path34"
           style="fill:#766458;fill-opacity:1;fill-rule:nonzero;stroke:none"
           d="m 328.421,283.254 h 28.918 v -1.957 h -28.918 z" /><g
           transform="translate(163.1821,350.0771)"
           id="g36"><path
             id="path38"
             style="fill:#81b3d3;fill-opacity:1;fill-rule:nonzero;stroke:none"
             d="M 0,0 H 7.707 L 6.498,-44.918 H -8.027 l -1.975,18.545 -1.975,-18.545 H -26.566 L -27.712,0 h 7.645 l 0.637,-37.152 h 0.828 L -13.824,0 h 7.581 l 4.906,-37.152 h 0.765 z" /></g><g
           transform="translate(195.0332,312.9253)"
           id="g40"><path
             id="path42"
             style="fill:#81b3d3;fill-opacity:1;fill-rule:nonzero;stroke:none"
             d="M 0,0 V -7.766 H -20.896 V 37.152 H 0 v -7.7 H -13.251 V 18.608 h 10.575 v -7.7 H -13.251 V 0 Z" /></g><g
           transform="translate(216.3721,312.9253)"
           id="g44"><path
             id="path46"
             style="fill:#81b3d3;fill-opacity:1;fill-rule:nonzero;stroke:none"
             d="m 0,0 v -7.766 h -18.283 v 44.918 h 7.646 V 0 Z" /></g><g
           transform="translate(232.6162,321.7163)"
           id="g48"><path
             id="path50"
             style="fill:#81b3d3;fill-opacity:1;fill-rule:nonzero;stroke:none"
             d="m 0,0 7.708,1.797 v -13.604 c 0,-2.567 -2.166,-4.749 -4.714,-4.749 H -8.475 c -2.611,0 -4.713,2.182 -4.713,4.749 v 35.419 c 0,2.632 2.103,4.749 4.713,4.749 H 2.992 c 2.549,0 4.715,-2.117 4.715,-4.749 V 14.5 l -7.708,-1.796 v 7.957 H -5.544 V -8.791 h 5.543 z" /></g><path
           id="path52"
           style="fill:#81b3d3;fill-opacity:1;fill-rule:nonzero;stroke:none"
           d="m 258.095,342.377 h -5.544 v -29.452 h 5.544 z m 2.993,7.7 c 2.55,0 4.716,-2.117 4.716,-4.749 v -35.42 c 0,-2.567 -2.166,-4.749 -4.716,-4.749 H 249.62 c -2.61,0 -4.714,2.182 -4.714,4.749 v 35.42 c 0,2.631 2.104,4.749 4.714,4.749 z" /><g
           transform="translate(290.8359,350.0771)"
           id="g54"><path
             id="path56"
             style="fill:#81b3d3;fill-opacity:1;fill-rule:nonzero;stroke:none"
             d="m 0,0 h 7.58 v -44.918 h -7.645 v 22.074 l -3.059,-11.422 h -7.453 l -2.994,11.422 v -22.074 h -7.646 V 0 h 7.581 l 6.817,-21.688 z" /></g><g
           transform="translate(323.1328,312.9253)"
           id="g58"><path
             id="path60"
             style="fill:#81b3d3;fill-opacity:1;fill-rule:nonzero;stroke:none"
             d="M 0,0 V -7.766 H -20.896 V 37.152 H 0 v -7.7 H -13.252 V 18.608 h 10.575 v -7.7 H -13.252 V 0 Z" /></g><g
           transform="translate(44.4658,192.4673)"
           id="g62"><path
             id="path64"
             style="fill:#ffffff;fill-opacity:1;fill-rule:nonzero;stroke:none"
             d="m 0,0 c -3.572,2.979 -8.139,4.963 -12.902,4.963 -3.572,0 -8.338,-2.084 -8.338,-6.253 0,-4.368 5.261,-6.055 8.636,-7.146 l 4.964,-1.489 c 10.422,-3.077 18.461,-8.337 18.461,-20.448 0,-7.445 -1.787,-15.087 -7.742,-20.149 -5.855,-4.964 -13.697,-7.048 -21.24,-7.048 -9.43,0 -18.661,3.177 -26.305,8.537 l 8.338,15.683 c 4.865,-4.269 10.621,-7.742 17.271,-7.742 4.566,0 9.43,2.283 9.43,7.545 0,5.459 -7.643,7.344 -11.812,8.535 -12.208,3.475 -20.249,6.649 -20.249,21.143 0,15.188 10.818,25.112 25.807,25.112 7.543,0 16.775,-2.382 23.426,-6.154 z" /></g><g
           transform="translate(91.8311,195.2461)"
           id="g66"><path
             id="path68"
             style="fill:#ffffff;fill-opacity:1;fill-rule:nonzero;stroke:none"
             d="M 0,0 V -12.506 H 21.937 V -28.985 H 0 v -12.9 h 23.127 v -16.479 h -42.582 v 74.84 H 23.127 V -10e-4 L 0,-0.001 Z" /></g><g
           transform="translate(148.8721,153.3594)"
           id="g70"><path
             id="path72"
             style="fill:#ffffff;fill-opacity:1;fill-rule:nonzero;stroke:none"
             d="m 0,0 h 4.367 c 11.612,0 21.539,6.352 21.539,20.942 0,13.401 -8.834,20.944 -21.341,20.944 L 0,41.886 Z M -19.455,58.364 H 8.139 c 20.844,0 38.016,-16.377 38.016,-37.42 0,-21.041 -17.271,-37.42 -38.016,-37.42 h -27.594 z" /></g><g
           transform="translate(224.3389,175.5933)"
           id="g74"><path
             id="path76"
             style="fill:#ffffff;fill-opacity:1;fill-rule:nonzero;stroke:none"
             d="m 0,0 c 0,-12.905 9.529,-22.333 21.141,-22.333 11.613,0 21.143,9.43 21.143,22.333 0,10.323 -9.526,19.752 -21.143,19.752 C 9.528,19.752 0,10.322 0,0 m 62.534,0.099 c 0,-24.219 -17.371,-41.292 -41.393,-41.292 -24.02,0 -41.391,17.071 -41.391,41.292 0,22.632 19.852,38.513 41.391,38.513 21.539,0 41.393,-15.881 41.393,-38.513" /></g><g
           transform="translate(297.2383,211.7231)"
           id="g78"><path
             id="path80"
             style="fill:#ffffff;fill-opacity:1;fill-rule:nonzero;stroke:none"
             d="M 0,0 H 19.454 L 55.09,-45.757 h 0.196 V 0 H 74.739 V -74.839 H 55.286 L 19.651,-28.983 H 19.454 V -74.839 H 0 Z" /></g><g
           transform="translate(420.9453,188.5962)"
           id="g82"><path
             id="path84"
             style="fill:#ffffff;fill-opacity:1;fill-rule:nonzero;stroke:none"
             d="M 0,0 H -0.199 L -8.238,-23.824 H 7.939 Z m -13.601,-38.71 -5.16,-13.002 h -20.645 l 28.785,74.839 H 10.621 L 38.809,-51.712 H 18.063 l -4.862,13.002 z" /></g><g
           transform="translate(102.792,64.0869)"
           id="g86"><path
             id="path88"
             style="fill:#ffffff;fill-opacity:1;fill-rule:nonzero;stroke:none"
             d="M 0,0 3.063,5.252 C 5.834,10.027 9.372,7.221 7.475,3.647 6.019,0.912 3.866,0.073 0,0 m -4.084,-17.285 c -2.261,0 -4.048,0.51 -5.47,1.311 0.656,0.767 1.312,1.715 1.896,2.699 l 6.381,11.05 1.021,-0.108 c 8.9,-1.862 5.362,-14.952 -3.828,-14.952 M 5.288,-1.751 C 12.946,0.838 13.53,10.43 5.981,10.43 3.902,10.43 1.422,8.971 -0.291,5.981 L -10.503,-11.67 c -0.475,-0.839 -0.947,-1.531 -1.458,-2.15 -2.626,3.609 -1.86,9.006 1.823,11.377 l -1.532,1.934 c -7.95,-5.069 -5.616,-19.692 7.659,-19.692 11.342,-0.002 16.593,13.599 9.299,18.45" /></g><g
           transform="translate(119.814,59.6377)"
           id="g90"><path
             id="path92"
             style="fill:#ffffff;fill-opacity:1;fill-rule:nonzero;stroke:none"
             d="M 0,0 C 2.188,3.756 6.054,3.137 3.791,-0.802 L 3.244,-1.75 C 1.422,-4.85 -1.023,-4.776 -2.444,-4.266 Z M 24.184,-9.227 29.472,0 c 2.042,3.539 6.09,2.627 4.229,-0.802 l -2.953,-5.179 c -2.297,-3.609 -4.56,-5.324 -6.127,-5.324 -0.837,0 -1.312,0.583 -0.437,2.078 M 78.375,0 c 2.188,3.756 6.054,3.137 3.791,-0.802 L 81.619,-1.75 c -1.822,-3.1 -4.267,-3.026 -5.688,-2.516 z M 20.346,-9.563 c -0.629,-2.248 0.572,-4.076 3.146,-4.076 1.531,0 3.428,0.985 5.25,2.479 0.184,-1.459 1.351,-2.479 3.283,-2.479 2.02,0 4.234,1.395 6.393,3.358 -0.42,-2.049 0.541,-3.358 2.41,-3.358 2.08,0 4.414,1.897 6.236,3.647 -0.365,-2.043 0.84,-3.647 3.246,-3.647 3.137,0 6.747,3.354 9.883,7.002 -0.025,0.051 -0.068,0.102 -0.101,0.152 2.097,2.438 3.946,5.026 5.269,6.776 -1.496,-3.937 -0.693,-11.014 -4.305,-11.014 -1.275,0 -1.787,1.387 -1.787,1.387 l -2.371,-1.24 c 0,0 0.693,-3.063 4.157,-3.063 0.365,0 0.692,0.037 1.058,0.073 0.037,0 0.073,0.035 0.109,0.035 2.786,0.369 5.55,2.064 7.943,4.225 0.058,-2.495 1.994,-4.333 5.145,-4.333 4.303,0 8.57,3.354 11.707,7.002 -0.255,0.512 -0.912,1.094 -1.422,1.313 L 85.34,-5.617 c -2.735,-3.172 -6.236,-5.688 -8.897,-5.688 -2.334,0 -3.721,1.459 -1.97,4.522 l 0.365,0.656 c 2.442,-1.02 7.038,-0.547 9.883,4.377 l 0.547,0.947 c 2.042,3.502 0.073,6.127 -3.026,6.127 -3.063,0 -5.508,-1.604 -7.111,-4.375 l -3.684,-6.318 c -0.035,0.012 -0.07,0.037 -0.104,0.046 l -0.255,-0.292 c -1.387,-1.641 -3.063,-3.1 -4.559,-4.121 1.203,3.609 0.948,9.152 3.282,14.004 l -2.844,1.531 c -1.568,-2.151 -4.996,-7.111 -8.425,-11.122 0.033,-0.046 0.074,-0.091 0.111,-0.138 l -0.136,-0.154 c -2.735,-3.172 -5.397,-5.688 -7.075,-5.688 -0.838,0 -1.312,0.582 -0.438,2.078 L 59.1,4.963 H 55.307 L 48.56,-6.816 c -2.881,-2.626 -5.104,-4.084 -5.835,-3.756 -0.947,0.4 0,1.822 0.475,2.625 l 7.402,12.91 H 46.809 L 40.773,-5.483 c -0.098,0.061 -0.196,0.123 -0.288,0.162 L 40.23,-5.613 c -2.735,-3.172 -5.397,-5.688 -7.075,-5.688 -0.838,0 -1.312,0.582 -0.438,2.078 L 38.844,1.5 h -2.152 c 0.146,1.604 -1.494,3.83 -3.975,3.83 -2.042,0 -4.887,-1.605 -6.491,-4.377 L 22.38,-5.684 c -0.195,0.152 -0.394,0.286 -0.577,0.365 l -0.255,-0.292 c -2.735,-3.172 -6.236,-5.688 -8.897,-5.688 -2.334,0 -3.721,1.459 -1.971,4.521 l 3.902,6.782 c 2.188,3.757 6.054,3.137 3.791,-0.801 l -0.547,-0.949 h 3.101 l 0.547,0.949 c 2.042,3.5 0.073,6.127 -3.026,6.127 -3.063,0 -5.508,-1.605 -7.111,-4.377 L 7.567,-5.514 C 7.448,-5.437 7.331,-5.367 7.219,-5.319 L 6.964,-5.611 c -2.735,-3.172 -6.236,-5.688 -8.897,-5.688 -2.335,0 -3.721,1.459 -1.971,4.521 l 0.365,0.657 c 2.443,-1.022 7.039,-0.547 9.883,4.375 l 0.547,0.949 c 2.042,3.5 0.073,6.127 -3.027,6.127 -3.062,0 -5.507,-1.605 -7.11,-4.377 l -3.976,-6.818 c -2.371,-4.049 -0.328,-7.768 4.157,-7.768 3.341,0 6.657,2.023 9.442,4.635 -0.098,-2.647 1.865,-4.635 5.141,-4.635 3.1,-0.006 6.176,1.735 8.828,4.07" /></g><g
           transform="translate(251.4609,59.6377)"
           id="g94"><path
             id="path96"
             style="fill:#ffffff;fill-opacity:1;fill-rule:nonzero;stroke:none"
             d="M 0,0 C 2.188,3.756 6.056,3.137 3.793,-0.802 L 3.246,-1.75 c -1.824,-3.1 -4.268,-3.026 -5.69,-2.516 z m -3.063,-13.639 c 4.303,0 8.572,3.354 11.707,7.002 -0.254,0.512 -0.911,1.094 -1.422,1.313 L 6.968,-5.617 c -2.737,-3.172 -6.237,-5.688 -8.901,-5.688 -2.334,0 -3.72,1.459 -1.97,4.522 l 0.365,0.656 c 2.444,-1.02 7.038,-0.547 9.883,4.377 l 0.547,0.947 C 8.935,2.699 6.966,5.324 3.865,5.324 0.804,5.324 -1.64,3.72 -3.245,0.949 l -3.693,-6.337 c -0.038,0.019 -0.077,0.048 -0.113,0.064 l -0.256,-0.293 c -2.734,-3.172 -5.395,-5.688 -7.074,-5.688 -0.839,0 -1.311,0.583 -0.438,2.079 l 5.47,9.591 c 1.642,2.881 0.073,4.961 -2.043,4.961 -1.642,0 -3.392,-0.912 -5.287,-2.882 l 6.054,10.54 h -3.793 l -10.697,-18.56 c -0.147,0.104 -0.297,0.193 -0.434,0.252 l -0.256,-0.292 c -2.735,-3.173 -5.396,-5.689 -7.075,-5.689 -0.838,0 -1.312,0.583 -0.438,2.079 l 8.133,14.187 h 3.101 l 1.095,1.824 h -3.137 l 3.574,6.199 h -3.793 l -3.574,-6.199 h -3.428 l -1.094,-1.824 h 3.463 L -36.6,-8.242 c -1.604,-2.809 -0.474,-5.397 2.589,-5.397 1.885,0 3.941,1.217 5.962,2.975 l -1.504,-2.609 h 3.83 l 5.762,10.029 c 5.835,7.33 8.425,6.382 6.783,3.574 l -4.923,-8.571 c -1.604,-2.808 -0.474,-5.396 2.589,-5.396 2.305,0 4.865,1.812 7.304,4.221 0.111,-2.441 2.041,-4.223 5.145,-4.223" /></g><g
           transform="translate(353.79,53.876)"
           id="g98"><path
             id="path100"
             style="fill:#ffffff;fill-opacity:1;fill-rule:nonzero;stroke:none"
             d="m 0,0 c -2.299,-3.756 -4.633,-5.543 -6.236,-5.543 -0.838,0 -1.312,0.583 -0.438,2.079 l 5.287,9.228 c 2.043,3.537 6.09,2.625 4.23,-0.803 h 0.035 z m -36.702,-0.22 c -2.299,-3.608 -4.56,-5.323 -6.127,-5.323 -0.84,0 -1.312,0.583 -0.439,2.079 l 5.288,9.228 c 2.042,3.537 6.089,2.625 4.23,-0.803 z m -39.693,-13.784 c -0.8,-1.422 -2.078,-1.204 -2.078,-0.184 0,0.985 0.875,2.115 3.793,3.247 z m 8.059,28.591 c 1.131,1.933 2.371,2.771 3.43,2.771 6.017,0 1.787,-12.253 -8.133,-12.253 h -0.766 z M 9.626,0.436 9.37,0.145 C 6.639,-3.027 3.975,-5.544 2.296,-5.544 c -0.838,0 -1.312,0.583 -0.439,2.079 L 14.695,18.744 H 10.902 L 5.323,9.116 c -0.656,1.058 -1.896,1.97 -3.466,1.97 -2.043,0 -4.886,-1.605 -6.491,-4.376 L -8.346,0.305 c -0.079,0.047 -0.161,0.1 -0.235,0.133 L -8.837,0.145 c -2.733,-3.172 -5.395,-5.688 -7.074,-5.688 -0.84,0 -1.312,0.583 -0.439,2.079 l 5.47,9.591 c 1.644,2.881 0.073,4.961 -2.041,4.961 -1.643,0 -3.354,-0.875 -5.252,-2.846 l 1.422,2.479 h -3.793 L -26.605,0.234 c -0.124,0.081 -0.247,0.153 -0.361,0.204 l -0.257,-0.293 c -2.733,-3.172 -5.395,-5.688 -7.073,-5.688 -0.838,0 -1.311,0.583 -0.438,2.079 l 6.127,10.722 h -2.152 c 0.146,1.604 -1.494,3.83 -3.975,3.83 -2.043,0 -4.889,-1.605 -6.493,-4.375 L -44.893,0.383 -45.1,0.148 c -2.733,-3.171 -5.395,-5.687 -7.073,-5.687 -0.839,0 -1.311,0.582 -0.438,2.078 l 3.793,6.637 c 1.312,2.299 0.691,3.646 -0.547,5.142 l -2.115,2.554 c -0.547,0.692 -0.547,1.458 0.219,2.189 l -1.969,2.15 c -2.152,-1.934 -2.334,-4.084 -0.986,-5.835 l 0.33,-0.438 c -1.678,-2.371 -3.939,-5.58 -6.421,-8.497 0.075,-0.107 0.164,-0.214 0.259,-0.321 -3.125,-3.593 -5.781,-5.918 -8.763,-7.19 l 4.813,8.242 h -3.793 l -0.4,-0.658 c -2.006,-3.537 -4.305,-6.054 -7.258,-6.054 -2.59,0 -3.062,2.589 -0.803,6.455 l 1.059,1.859 c 0.691,-0.108 1.386,-0.182 2.15,-0.182 13.494,0 20.022,18.051 8.135,18.051 -2.08,0 -4.561,-1.459 -6.274,-4.449 L -77.089,6.02 c -2.225,1.166 -3.391,3.281 -3.391,5.396 0,1.75 0.803,3.501 2.441,4.776 l -1.238,2.226 c -2.7,-1.934 -3.903,-4.522 -3.903,-7.074 0,-3.028 1.716,-5.945 4.778,-7.55 l -1.131,-1.97 c -2.662,-4.595 -2.188,-9.7 3.174,-9.7 1.604,0 2.953,0.474 4.121,1.204 l -0.987,-1.715 c -5.14,-1.566 -8.313,-3.646 -8.313,-6.49 0,-3.646 5.58,-4.413 8.313,0.255 l 2.918,4.996 c 3.94,1.239 7.806,3.938 11.964,8.752 -0.059,0.117 -0.143,0.237 -0.236,0.356 1.684,1.979 3.113,3.889 5.972,7.776 l 0.509,-0.621 c 0.475,-0.619 0.657,-1.386 0.219,-2.152 l -4.012,-6.964 c -1.605,-2.806 -0.474,-5.395 2.59,-5.395 1.906,0 3.988,1.244 6.033,3.036 -0.045,-1.745 1.148,-3.036 3.311,-3.036 1.531,0 3.428,0.984 5.25,2.479 0.184,-1.459 1.352,-2.479 3.283,-2.479 1.817,0 3.791,1.13 5.742,2.785 L -31.08,-7.51 h 3.828 l 5.799,10.104 c 5.799,7.256 8.389,6.308 6.746,3.5 l -4.922,-8.571 c -1.603,-2.808 -0.475,-5.396 2.588,-5.396 2.018,0 4.227,1.389 6.381,3.346 -0.201,-1.901 1.008,-3.346 3.295,-3.346 1.531,0 3.427,0.984 5.252,2.479 0.182,-1.46 1.35,-2.479 3.281,-2.479 3.137,0 6.746,3.354 9.883,7.002 -0.257,0.506 -0.912,1.09 -1.425,1.307" /></g><g
           transform="translate(210.0591,18.0576)"
           id="g102"><path
             id="path104"
             style="fill:#ffffff;fill-opacity:1;fill-rule:nonzero;stroke:none"
             d="m 0,0 h -0.184 c -1.24,0 -2.225,-1.021 -2.225,-2.263 0,-0.474 0.146,-0.911 0.365,-1.274 L -2.081,-3.61 c -1.786,-3.063 -6.127,-2.48 -3.865,1.459 l 2.881,4.996 1.823,3.1 C 1.421,10.467 5.067,8.68 2.77,4.741 Z m -25.528,-14.185 c -0.803,-1.422 -2.079,-1.204 -2.079,-0.184 0,0.984 0.912,2.114 3.829,3.246 z m -28.851,13.784 c -2.297,-3.61 -4.559,-5.324 -6.127,-5.324 -0.838,0 -1.312,0.583 -0.438,2.079 l 5.288,9.228 c 2.042,3.536 6.09,2.625 4.229,-0.804 z m -13.355,14.806 c 1.13,1.934 2.371,2.772 3.428,2.772 1.423,0 2.079,-0.948 2.079,-2.334 0,-3.538 -4.303,-9.919 -10.211,-9.919 h -0.766 z M 26.653,0.256 26.398,-0.037 c -2.733,-3.172 -5.396,-5.689 -7.074,-5.689 -0.84,0 -1.312,0.583 -0.438,2.08 l 5.471,9.59 c 1.642,2.881 0.071,4.96 -2.043,4.96 -1.642,0 -3.354,-0.875 -5.251,-2.844 l 1.422,2.478 H 14.692 L 8.581,-0.035 C 8.415,0.084 8.249,0.19 8.097,0.256 L 7.841,-0.037 C 6.128,-1.896 4.012,-2.809 2.116,-2.846 l 3.573,6.163 c 2.297,3.977 0.183,7.731 -3.392,7.731 -2.918,0 -5.178,-1.167 -7.367,-4.96 L -6.93,2.843 -8.556,0.062 C -8.673,0.137 -8.79,0.207 -8.899,0.254 l -0.255,-0.293 c -3.137,-3.608 -5.799,-5.942 -8.789,-7.222 l 10.395,17.797 h -3.793 l -6.709,-11.67 c -2.918,-2.697 -5.179,-4.192 -5.908,-3.864 -0.948,0.399 0,1.822 0.474,2.625 l 7.403,12.909 h -3.793 l -6.051,-10.47 c -0.113,0.072 -0.227,0.143 -0.332,0.188 l -0.255,-0.293 c -2.735,-3.173 -5.397,-5.689 -7.075,-5.689 -0.838,0 -1.312,0.583 -0.438,2.08 l 5.47,9.59 c 1.642,2.881 0.073,4.96 -2.042,4.96 -1.641,0 -3.355,-0.875 -5.251,-2.844 l 1.423,2.478 h -3.794 L -44.281,0.051 c -0.123,0.081 -0.246,0.152 -0.36,0.203 l -0.255,-0.293 c -2.734,-3.173 -5.396,-5.689 -7.075,-5.689 -0.838,0 -1.312,0.583 -0.438,2.08 l 6.128,10.72 h -2.152 c 0.146,1.605 -1.495,3.83 -3.976,3.83 -2.041,0 -4.887,-1.604 -6.49,-4.377 l -3.918,-6.762 c -0.26,0.234 -0.559,0.417 -0.831,0.49 l -0.255,-0.293 c -2.735,-3.173 -6.09,-5.689 -9.848,-5.689 -2.588,0 -4.156,2.589 -1.896,6.456 l 1.058,1.859 c 0.693,-0.108 1.387,-0.185 2.151,-0.185 4.048,0 8.644,2.08 11.634,7.295 1.057,1.86 1.531,3.61 1.531,5.105 0,3.428 -2.225,5.651 -5.032,5.651 -2.079,0 -4.559,-1.459 -6.272,-4.448 L -76.485,5.828 c -2.225,1.167 -3.393,3.282 -3.393,5.398 0,1.75 0.803,3.501 2.443,4.776 l -1.24,2.226 c -2.699,-1.935 -3.902,-4.521 -3.902,-7.076 0,-3.025 1.715,-5.943 4.777,-7.548 l -1.13,-1.971 c -2.661,-4.596 -1.094,-9.699 4.267,-9.699 4.242,0 7.354,1.888 9.969,4.372 -0.826,-2.384 0.374,-4.372 3.059,-4.372 1.532,0 3.428,0.984 5.252,2.478 0.182,-1.459 1.35,-2.478 3.281,-2.478 1.816,0 3.792,1.128 5.742,2.783 l -1.398,-2.42 h 3.829 l 5.798,10.102 c 5.799,7.258 8.389,6.311 6.748,3.502 l -4.923,-8.567 c -1.604,-2.81 -0.474,-5.397 2.589,-5.397 2.041,0 4.282,1.425 6.465,3.423 -0.455,-2.086 0.508,-3.423 2.397,-3.423 1.824,0 3.901,1.532 5.616,3.063 l -2.079,-3.574 c -5.142,-1.53 -8.351,-3.647 -8.351,-6.49 0,-3.647 5.58,-4.414 8.313,0.254 l 2.917,4.997 c 3.171,0.998 6.297,2.964 9.562,6.195 -0.523,-5.297 6.533,-6.505 10.787,-1.126 h 0.838 c 1.385,0 3.26,0.522 4.953,1.455 l -2.55,-4.41 h 3.83 l 5.798,10.102 c 5.799,7.258 8.389,6.311 6.747,3.502 l -4.923,-8.57 c -1.604,-2.81 -0.475,-5.397 2.59,-5.397 3.138,0 6.746,3.355 9.883,7.002 -0.256,0.513 -0.911,1.097 -1.423,1.316" /></g><g
           transform="translate(299.4326,19.9912)"
           id="g106"><path
             id="path108"
             style="fill:#ffffff;fill-opacity:1;fill-rule:nonzero;stroke:none"
             d="M 0,0 1.094,1.896 C 5.471,7.987 8.461,6.309 7.111,4.011 L 5.289,0.875 C 4.155,-1.095 0.838,-2.48 0,0 m 25.188,-2.991 c -0.219,0.583 -0.875,1.167 -1.422,1.312 L 23.51,-1.972 c -1.387,-1.641 -3.065,-3.1 -4.56,-4.12 1.203,3.61 0.947,9.153 3.281,14.004 L 19.385,9.444 C 17.819,7.293 14.39,2.333 10.961,-1.679 c 0.006,-0.01 0.017,-0.018 0.021,-0.025 -0.015,0.007 -0.031,0.02 -0.046,0.025 L 10.682,-1.972 C 7.945,-5.144 5.285,-7.66 3.605,-7.66 c -0.837,0 -1.64,0.839 -1.64,2.553 v 1.568 c 2.662,-0.328 5.471,1.423 7.258,4.521 l 1.02,1.75 c 3.535,6.054 -2.226,8.061 -6.092,4.521 l 5.396,9.373 H 5.754 L -5.062,-2.141 c -0.229,0.195 -0.475,0.364 -0.692,0.459 l -0.257,-0.293 c -2.733,-3.172 -6.235,-5.688 -8.897,-5.688 -2.334,0 -3.719,1.459 -1.969,4.521 l 3.899,6.783 c 2.189,3.756 6.055,3.136 3.793,-0.803 L -9.731,1.89 h 3.101 l 0.548,0.948 c 2.041,3.501 0.071,6.127 -3.027,6.127 -3.063,0 -5.508,-1.605 -7.112,-4.377 l -3.732,-6.404 c -0.078,0.047 -0.16,0.101 -0.234,0.133 l -0.256,-0.293 c -2.734,-3.172 -5.396,-5.688 -7.074,-5.688 -0.839,0 -1.311,0.583 -0.438,2.079 l 8.097,14.186 h -3.794 l -6.745,-11.779 c -2.884,-2.625 -5.105,-4.084 -5.836,-3.756 -0.948,0.4 0,1.823 0.474,2.625 l 7.403,12.91 h -3.793 l -7.366,-12.744 c -0.819,-0.746 -1.658,-1.413 -2.449,-1.952 1.203,3.61 0.947,9.153 3.281,14.004 l -2.843,1.532 c -1.569,-2.151 -10.322,-13.75 -13.75,-17.761 0.327,-0.474 0.876,-0.948 1.422,-1.313 2.151,2.48 9.373,11.779 10.723,13.566 -1.496,-3.938 -0.693,-11.014 -4.305,-11.014 -1.275,0 -1.787,1.387 -1.787,1.387 l -2.37,-1.24 c 0,0 0.693,-3.062 4.157,-3.062 0.366,0 0.694,0.036 1.059,0.072 0.035,0 0.072,0.036 0.107,0.036 1.928,0.255 3.842,1.143 5.631,2.379 -0.011,-1.542 0.92,-2.487 2.51,-2.487 2.076,0 4.412,1.896 6.234,3.646 -0.363,-2.043 0.838,-3.646 3.247,-3.646 2.355,0 4.978,1.893 7.466,4.38 0.034,-2.52 1.975,-4.38 5.145,-4.38 3.078,0 6.138,1.72 8.775,4.031 l -2.113,-3.668 h 3.83 l 4.34,7.55 v -3.026 c 0,-3.245 0.619,-4.887 3.683,-4.887 3.136,0 6.748,3.354 9.884,7.002 -0.006,0.011 -0.018,0.021 -0.02,0.034 0.015,-0.013 0.031,-0.023 0.047,-0.034 2.152,2.479 4.049,5.142 5.395,6.93 -1.493,-3.939 -0.69,-11.015 -4.303,-11.015 -1.274,0 -1.787,1.387 -1.787,1.387 l -2.371,-1.24 c 0,0 0.694,-3.062 4.158,-3.062 0.363,0 0.691,0.036 1.06,0.072 0.034,0 0.069,0.036 0.106,0.036 3.867,0.514 7.697,3.575 10.541,6.895" /></g><g
           transform="translate(324.4736,14.4121)"
           id="g110"><path
             id="path112"
             style="fill:#ffffff;fill-opacity:1;fill-rule:nonzero;stroke:none"
             d="m 0,0 c -1.24,0 -2.189,-0.984 -2.189,-2.226 0,-1.242 0.949,-2.188 2.189,-2.188 1.237,0 2.225,0.947 2.225,2.188 C 2.225,-0.985 1.237,0 0,0" /></g><g
           transform="translate(324.6553,15.9063)"
           id="g114"><path
             id="path116"
             style="fill:#ffffff;fill-opacity:1;fill-rule:nonzero;stroke:none"
             d="M 0,0 H 3.83 L 15.717,20.715 H 11.926 Z" /></g><g
           transform="translate(88.2769,72.4961)"
           id="g118"><path
             id="path120"
             style="fill:#ffffff;fill-opacity:1;fill-rule:nonzero;stroke:none"
             d="m 0,0 c 0,-0.293 -0.057,-0.587 -0.17,-0.879 -0.112,-0.293 -0.281,-0.559 -0.506,-0.796 -0.227,-0.236 -0.502,-0.429 -0.83,-0.574 -0.327,-0.147 -0.693,-0.221 -1.1,-0.221 -0.451,0 -0.885,0.084 -1.302,0.253 -0.417,0.17 -0.772,0.411 -1.065,0.728 -0.248,0.293 -0.439,0.643 -0.574,1.049 -0.135,0.406 -0.203,0.834 -0.203,1.285 0,0.855 0.152,1.646 0.457,2.368 0.304,0.722 0.738,1.363 1.302,1.929 0.248,0.248 0.528,0.478 0.847,0.692 0.314,0.214 0.613,0.394 0.896,0.541 0.282,0.146 0.524,0.265 0.728,0.354 0.204,0.088 0.327,0.146 0.372,0.168 L 0.205,4.901 C -0.043,4.812 -0.318,4.692 -0.623,4.548 -0.928,4.401 -1.215,4.222 -1.486,4.007 -1.757,3.793 -1.982,3.539 -2.162,3.246 -2.344,2.953 -2.444,2.614 -2.467,2.229 c 0.653,0 1.229,-0.19 1.725,-0.574 C -0.248,1.272 0,0.722 0,0 m -7.866,0 c 0,-0.293 -0.058,-0.587 -0.169,-0.879 -0.113,-0.295 -0.282,-0.559 -0.507,-0.797 -0.226,-0.236 -0.503,-0.428 -0.829,-0.574 -0.327,-0.147 -0.694,-0.221 -1.1,-0.221 -0.451,0 -0.886,0.084 -1.303,0.253 -0.417,0.171 -0.771,0.412 -1.064,0.729 -0.25,0.293 -0.44,0.643 -0.575,1.049 -0.136,0.406 -0.203,0.834 -0.203,1.285 0,0.855 0.151,1.646 0.457,2.368 0.304,0.722 0.737,1.363 1.302,1.929 0.248,0.248 0.529,0.478 0.846,0.693 0.315,0.213 0.614,0.394 0.896,0.541 0.281,0.146 0.523,0.264 0.727,0.353 0.203,0.091 0.328,0.147 0.373,0.17 L -7.662,4.903 C -7.911,4.813 -8.186,4.694 -8.491,4.549 -8.796,4.401 -9.083,4.222 -9.352,4.009 -9.623,3.794 -9.848,3.54 -10.03,3.247 -10.21,2.954 -10.311,2.614 -10.334,2.231 -9.681,2.231 -9.105,2.04 -8.609,1.656 -8.114,1.272 -7.866,0.722 -7.866,0" /></g><g
           transform="translate(345.5713,13.5537)"
           id="g122"><path
             id="path124"
             style="fill:#ffffff;fill-opacity:1;fill-rule:nonzero;stroke:none"
             d="M 0,0 C 0,0.295 0.057,0.589 0.17,0.881 0.283,1.175 0.451,1.439 0.676,1.676 0.902,1.912 1.18,2.105 1.506,2.25 1.832,2.396 2.199,2.471 2.605,2.471 3.057,2.471 3.49,2.386 3.908,2.218 4.324,2.048 4.68,1.806 4.973,1.488 5.221,1.195 5.412,0.845 5.547,0.44 5.684,0.034 5.75,-0.394 5.75,-0.846 5.75,-1.7 5.598,-2.491 5.293,-3.213 4.99,-3.935 4.555,-4.576 3.992,-5.141 3.744,-5.389 3.463,-5.619 3.146,-5.834 2.828,-6.048 2.531,-6.229 2.25,-6.375 1.969,-6.521 1.727,-6.641 1.521,-6.729 1.318,-6.818 1.195,-6.876 1.15,-6.899 l -1.355,1.996 c 0.25,0.09 0.525,0.209 0.83,0.354 0.305,0.147 0.592,0.327 0.861,0.541 0.271,0.215 0.496,0.469 0.678,0.763 0.18,0.293 0.281,0.631 0.305,1.014 -0.653,0 -1.229,0.191 -1.727,0.576 C 0.248,-1.273 0,-0.72 0,0 m 7.867,0 c 0,0.295 0.057,0.589 0.168,0.881 0.113,0.294 0.283,0.558 0.508,0.795 0.227,0.236 0.502,0.429 0.828,0.574 0.328,0.146 0.692,0.221 1.1,0.221 0.451,0 0.886,-0.085 1.302,-0.253 0.418,-0.17 0.772,-0.412 1.065,-0.73 0.25,-0.293 0.441,-0.643 0.576,-1.048 0.135,-0.406 0.203,-0.834 0.203,-1.286 0,-0.854 -0.152,-1.645 -0.457,-2.367 C 12.854,-3.934 12.422,-4.576 11.857,-5.141 11.609,-5.389 11.328,-5.619 11.009,-5.834 10.697,-6.049 10.398,-6.229 10.113,-6.375 9.832,-6.521 9.591,-6.641 9.385,-6.729 9.182,-6.818 9.061,-6.876 9.014,-6.899 L 7.66,-4.903 c 0.248,0.09 0.523,0.209 0.828,0.354 0.305,0.147 0.592,0.327 0.863,0.541 0.27,0.215 0.496,0.469 0.676,0.763 0.182,0.293 0.283,0.631 0.305,1.014 -0.654,0 -1.229,0.191 -1.725,0.576 C 8.115,-1.273 7.867,-0.72 7.867,0" /></g></g></g></g></svg>