<?xml version="1.0" encoding="UTF-8" standalone="no"?>
<svg
   xmlns:dc="http://purl.org/dc/elements/1.1/"
   xmlns:cc="http://creativecommons.org/ns#"
   xmlns:rdf="http://www.w3.org/1999/02/22-rdf-syntax-ns#"
   xmlns:svg="http://www.w3.org/2000/svg"
   xmlns="http://www.w3.org/2000/svg"
   viewBox="0 0 42.666668 26.666668"
   height="20"
   width="32"
   xml:space="preserve"
   id="svg2"
   version="1.1">
	<symbol id="subtitles" viewBox="0 0 41 27">
	<metadata
     id="metadata8"><rdf:RDF><cc:Work
         rdf:about=""><dc:format>image/svg+xml</dc:format><dc:type
           rdf:resource="http://purl.org/dc/dcmitype/StillImage" /></cc:Work></rdf:RDF></metadata><defs
     id="defs6"><clipPath
       id="clipPath18"
       clipPathUnits="userSpaceOnUse"><path
         id="path16"
         d="M 0,20 H 32 V 0 H 0 Z" /></clipPath></defs><g
     transform="matrix(1.3333333,0,0,-1.3333333,0,26.666667)"
     id="g10"><g
       id="g12"><g
         clip-path="url(#clipPath18)"
         id="g14"><g
           transform="translate(23.1006,4.1455)"
           id="g20"><path
             id="path22"
             style="fill:currentColor;fill-opacity:1;fill-rule:nonzero;stroke:none"
             d="m 0,0 c -0.545,-0.108 -1.105,-0.164 -1.678,-0.164 -0.694,0 -1.353,0.107 -1.975,0.323 -0.623,0.214 -1.172,0.562 -1.646,1.041 -0.473,0.48 -0.851,1.103 -1.133,1.868 -0.281,0.767 -0.421,1.696 -0.421,2.786 0,1.134 0.158,2.085 0.471,2.851 0.315,0.768 0.723,1.384 1.223,1.854 0.502,0.467 1.061,0.803 1.68,1.007 0.616,0.205 1.233,0.307 1.85,0.307 0.661,0 1.221,-0.045 1.678,-0.134 0.458,-0.087 0.836,-0.192 1.133,-0.313 L 0.735,9.508 C 0.482,9.629 0.182,9.717 -0.166,9.772 -0.513,9.827 -0.935,9.854 -1.431,9.854 -2.346,9.854 -3.08,9.529 -3.637,8.878 -4.194,8.227 -4.473,7.215 -4.473,5.847 c 0,-0.598 0.068,-1.142 0.2,-1.632 0.131,-0.493 0.334,-0.913 0.602,-1.26 0.271,-0.349 0.607,-0.619 1.009,-0.811 0.402,-0.194 0.868,-0.29 1.396,-0.29 0.497,0 0.915,0.048 1.257,0.148 0.342,0.099 0.64,0.227 0.894,0.38 L 1.348,0.541 C 0.995,0.29 0.546,0.109 0,0 m -8.697,0 c -0.545,-0.108 -1.105,-0.164 -1.678,-0.164 -0.694,0 -1.354,0.107 -1.976,0.323 -0.623,0.214 -1.171,0.562 -1.645,1.041 -0.474,0.48 -0.852,1.103 -1.133,1.868 -0.281,0.767 -0.421,1.696 -0.421,2.786 0,1.134 0.157,2.085 0.471,2.851 0.315,0.768 0.723,1.384 1.224,1.854 0.501,0.467 1.061,0.803 1.678,1.007 0.616,0.205 1.234,0.307 1.852,0.307 0.66,0 1.22,-0.045 1.678,-0.134 0.457,-0.087 0.834,-0.192 1.132,-0.313 L -7.961,9.508 c -0.254,0.121 -0.555,0.209 -0.902,0.264 -0.347,0.055 -0.768,0.082 -1.265,0.082 -0.915,0 -1.649,-0.325 -2.206,-0.976 -0.558,-0.651 -0.836,-1.663 -0.836,-3.031 0,-0.598 0.067,-1.142 0.199,-1.632 0.132,-0.493 0.334,-0.913 0.603,-1.26 0.27,-0.349 0.607,-0.619 1.01,-0.811 0.402,-0.194 0.867,-0.29 1.396,-0.29 0.496,0 0.915,0.048 1.257,0.148 0.342,0.099 0.639,0.227 0.892,0.38 L -7.35,0.541 C -7.702,0.29 -8.151,0.109 -8.697,0 M 5.899,15.854 h -26 c -1.65,0 -3,-1.349 -3,-3 v -14 c 0,-1.65 1.35,-3 3,-3 h 26 c 1.651,0 3,1.35 3,3 v 14 c 0,1.651 -1.349,3 -3,3" /></g></g></g></g>
				 </symbol>
				 </svg>