<?xml version="1.0" encoding="UTF-8" standalone="no"?>
<svg
   xmlns:dc="http://purl.org/dc/elements/1.1/"
   xmlns:cc="http://creativecommons.org/ns#"
   xmlns:rdf="http://www.w3.org/1999/02/22-rdf-syntax-ns#"
   xmlns:svg="http://www.w3.org/2000/svg"
   xmlns="http://www.w3.org/2000/svg"
   viewBox="0 0 24 24"
   height="18"
   width="18"
   xml:space="preserve"
   id="svg2"
   version="1.1"><metadata
     id="metadata8"><rdf:RDF><cc:Work
         rdf:about=""><dc:format>image/svg+xml</dc:format><dc:type
           rdf:resource="http://purl.org/dc/dcmitype/StillImage" /></cc:Work></rdf:RDF></metadata><defs
     id="defs6"><clipPath
       id="clipPath18"
       clipPathUnits="userSpaceOnUse"><path
         id="path16"
         d="M 0,18 H 18 V 0 H 0 Z" /></clipPath></defs><g
     transform="matrix(1.3333333,0,0,-1.3333333,0,24)"
     id="g10"><g
       id="g12"><g
         clip-path="url(#clipPath18)"
         id="g14"><g
           transform="translate(3.6001,10.2002)"
           id="g20"><path
             id="path22"
             style="fill:#010101;fill-opacity:1;fill-rule:nonzero;stroke:none"
             d="M 0,0 C 1.4,-2.8 3.8,-5.101 6.6,-6.601 L 8.8,-4.4 c 0.3,0.299 0.7,0.4 1,0.2 1.1,-0.401 2.3,-0.6 3.6,-0.6 0.6,0 1,-0.4 1,-1 v -3.4 c 0,-0.6 -0.4,-1 -1,-1 -9.4,0 -17,7.599 -17,17 0,0.6 0.4,1 1,1 h 3.5 c 0.6,0 1,-0.4 1,-1 0,-1.2 0.2,-2.4 0.6,-3.6 0.1,-0.3 0,-0.7 -0.2,-1 z" /></g></g></g></g></svg>