<?xml version="1.0" encoding="UTF-8" standalone="no"?>
<svg
   xmlns:dc="http://purl.org/dc/elements/1.1/"
   xmlns:cc="http://creativecommons.org/ns#"
   xmlns:rdf="http://www.w3.org/1999/02/22-rdf-syntax-ns#"
   xmlns:svg="http://www.w3.org/2000/svg"
   xmlns="http://www.w3.org/2000/svg"
   viewBox="0 0 29 21.5"
   height="16"
   width="24"
   xml:space="preserve"
   id="svg2"
   version="1.1"><metadata
     id="metadata8"><rdf:RDF><cc:Work
         rdf:about=""><dc:format>image/svg+xml</dc:format><dc:type
           rdf:resource="http://purl.org/dc/dcmitype/StillImage" /></cc:Work></rdf:RDF></metadata><defs
     id="defs6"><clipPath
       id="clipPath18"
       clipPathUnits="userSpaceOnUse"><path
         id="path16"
         d="M 0,16.248 H 23.049 V 0 H 0 Z" /></clipPath></defs><g
     transform="matrix(1.3333333,0,0,-1.3333333,0,21.664)"
     id="g10"><g
       id="g12"><g
         clip-path="url(#clipPath18)"
         id="g14"><g
           transform="translate(22.8008,14.9487)"
           id="g20"><path
             id="path22"
             style="fill:#373535;fill-opacity:0.3;fill-rule:nonzero;stroke:none"
             d="m 0,0 -1.051,1.051 c -0.331,0.331 -0.872,0.331 -1.203,0 l -11.853,-11.854 -6.192,6.191 c -0.331,0.331 -0.872,0.331 -1.203,0 l -1.051,-1.051 c -0.331,-0.331 -0.331,-0.872 0,-1.202 l 7.837,-7.837 c 0.167,-0.167 0.388,-0.249 0.609,-0.247 0.22,-0.002 0.44,0.08 0.607,0.247 L 0,-1.202 C 0.331,-0.872 0.331,-0.331 0,0" /></g></g></g></g></svg>