<svg width="100%" height="100%" xmlns="http://www.w3.org/2000/svg" viewBox="0 0 25 21">
<symbol id="twitter" viewBox="0 0 25 21">
 <defs>
  <style type="text/css">.fil1 {fill:none}
    .fil0 {fill:currentColor;fill-rule:nonzero}</style>
 </defs>
 <g>
  <title>background</title>
  <rect x="-1" y="-1" width="30" height="27" id="canvas_background" fill="none"/>
 </g>
 <g transform="matrix(0.229449,0,0,0.20369,7.374547,9.227903) ">
  <title>Layer 1</title>
  <g id="Layer_x0020_1" transform="matrix(0.07394,0,0,0.079627,738.387329,416.734131) ">
   <path class="fil0" d="m-8939.259655,-5500.643557c28.1044,-7.73386 55.3252,-17.4673 81.4241,-28.9654c5.08819,-2.88189 11.5772,-2.86063 16.774,0.60354c7.35119,4.9004 9.3378,14.8358 4.4374,22.187c-20.6847,31.0276 -44.2063,60.1914 -70.2308,87.1477c-23.961,24.8197 -50.0268,47.6894 -77.9339,68.3351l0.68622,29.3988c0.06378,0.5752 0.09567,1.16102 0.09567,1.75394c0,219.372 -90.2292,456.91 -262.303,628.959c-146.659,146.635 -352.59,245.782 -612.569,245.782c-85.2402,0 -167.653,-12.261 -245.685,-35.1059c-80.4249,-23.5453 -156.005,-58.3016 -225.06,-102.426c-5.51457,-3.02362 -8.95276,-9.16182 -8.21575,-15.7996c0.97441,-8.7815 8.88544,-15.1122 17.6669,-14.1378l-0.00354,0.02835c11.7307,1.30158 23.3398,2.28425 34.8685,2.9315c11.2205,0.62953 22.9429,0.95197 35.2453,0.95197c67.6949,0 132.743,-11.289 193.322,-32.1047c49.3134,-16.9453 95.6446,-40.1599 138.018,-68.6977c-51.9638,-8.19922 -99.7465,-28.9004 -140.145,-58.9453c-52.2874,-38.8831 -92.2383,-93.4135 -112.93,-156.721c-1.16929,-2.78977 -1.56142,-5.94331 -0.95906,-9.1382c1.63819,-8.68347 10.0063,-14.3941 18.6898,-12.7559l-0.00709,0.04016c9.06851,1.71024 17.9929,2.96693 26.8158,3.78071c8.58072,0.79134 17.6575,1.18228 27.2681,1.18228c3.17126,0 6.3189,-0.04843 9.44056,-0.14055c-45.4122,-20.4331 -85.2024,-51.215 -116.334,-89.3387c-44.8087,-54.8741 -71.7284,-124.921 -71.7284,-201.183l0,-3.60473c-0.01535,-2.64213 0.62363,-5.32441 1.99016,-7.80355c4.26615,-7.73741 13.9984,-10.5508 21.7358,-6.28465l-0.01299,0.02362c19.9063,10.9748 41.0788,19.7847 63.2304,25.904c3.97441,1.09843 7.98308,2.10945 12.0225,3.03544c-23.5618,-22.8213 -43.6252,-49.317 -59.2713,-78.554c-23.9197,-44.7 -37.5107,-95.7166 -37.5107,-149.707c0,-28.6512 3.80315,-56.5335 10.9583,-83.0871c7.20119,-26.7225 17.8547,-52.1244 31.4918,-75.6331c0.98622,-2.10945 2.45197,-4.03583 4.37717,-5.6067c6.84686,-5.58544 16.9264,-4.5626 22.5118,2.28425l-12.398,10.1138l12.3744,-10.0618c74.3847,91.1918 167.312,166.44 273.078,220.027c96.6166,48.9496 203.922,79.819 317.564,88.2579c-0.78897,-4.89213 -1.46811,-9.79371 -2.03032,-14.7036c-1.3937,-12.1677 -2.12953,-24.4477 -2.12953,-36.8339c0,-87.7312 35.6032,-167.201 93.1371,-224.734c57.5339,-57.5339 137.003,-93.1371 224.734,-93.1371c44.6469,0 87.3757,9.34371 126.195,26.1366c37.4835,16.2154 71.1768,39.3496 99.2965,67.6914c30.2788,-6.35079 59.6776,-15.0331 88.0418,-25.839c31.3618,-11.948 61.3749,-26.4673 89.8489,-43.278c3.94016,-2.65748 9.0189,-3.53977 13.8898,-1.96181c8.40591,2.72362 13.011,11.7484 10.2874,20.1543l-0.04724,-0.01536c-12.013,37.05 -30.4559,71.093 -54.0426,100.759c-9.71221,12.2162 -20.3079,23.7024 -31.6937,34.363c7.30749,-1.70788 14.5512,-3.55158 21.7229,-5.5252l0.00084,-0.00201z" id="svg_1"/>
  </g>
 </g>
 </symbol>
</svg>