<svg width="100%" height="100%" viewBox="0 0 45 28" xmlns="http://www.w3.org/2000/svg">
<symbol id="youtube" viewBox="0 0 45 28">
 <g>
  <title>background</title>
  <rect fill="none" id="canvas_background" height="34" width="51" y="-1" x="-1"/>
 </g>
 <g>
  <title>Layer 1</title>
  <g stroke="null" id="svg_1">
   <path stroke="null" id="svg_2" fill="#fff" fill-opacity="1" d="m24.376434,3.059285c1.844645,0 3.681165,-0.028439 5.52581,0.00711c2.340343,0.042658 4.680686,0.120865 7.012903,0.213291c0.967017,0.042658 1.950286,0.063987 2.909176,0.22751c2.28346,0.383924 3.640534,1.613902 4.26625,3.55485c0.333174,1.030907 0.455067,2.090252 0.560707,3.149597c0.284417,2.85099 0.227533,5.701979 0.146271,8.552969c-0.048757,1.684999 -0.130019,3.384217 -0.617591,5.033668c-0.203155,0.675422 -0.438814,1.350843 -0.885755,1.940948c-0.812619,1.073565 -1.982791,1.684999 -3.413,1.912509c-1.227055,0.199072 -2.470362,0.220401 -3.713669,0.270169c-2.299712,0.092426 -4.599424,0.135084 -6.899136,0.184852c-2.722274,0.063987 -5.444548,0.049768 -8.158696,0.028439c-2.202198,-0.021329 -4.412522,-0.063987 -6.614719,-0.142194c-1.860898,-0.063987 -3.729922,-0.092426 -5.566441,-0.405253c-1.015774,-0.170633 -1.917781,-0.540337 -2.697895,-1.151771c-0.731357,-0.582995 -1.105162,-1.336624 -1.381452,-2.13291c-0.593212,-1.706328 -0.633843,-3.469534 -0.755736,-5.232739c-0.138145,-2.061813 -0.097514,-4.123626 -0.040631,-6.178329c0.048757,-1.734767 0.138145,-3.476643 0.552581,-5.182971c0.243786,-1.009577 0.57696,-2.012045 1.413957,-2.787002c1.032026,-0.9527 2.348469,-1.407721 3.835562,-1.500147c1.779636,-0.106646 3.567398,-0.177743 5.347034,-0.24173c3.055448,-0.113755 6.119022,-0.149304 9.17447,-0.120865zm6.752865,12.171806c-0.032505,-0.085316 -0.121893,-0.099536 -0.186902,-0.127975c-1.909655,-0.881603 -3.827436,-1.763206 -5.745217,-2.644808c-1.519598,-0.696751 -3.039195,-1.400611 -4.558793,-2.104471c-0.422562,-0.191962 -0.430688,-0.184852 -0.430688,0.24173c0,3.064281 0,6.128561 0,9.199952c0,0.056878 0,0.120865 0,0.177743c-0.008126,0.184852 0.073136,0.24173 0.268164,0.149304c0.23566,-0.113755 0.471319,-0.22751 0.715105,-0.341266c3.201719,-1.450379 6.411565,-2.907867 9.613284,-4.358246c0.113767,-0.056878 0.260038,-0.078207 0.325048,-0.191962z"/>
  </g>
 </g>
 </symbol>
</svg>