<svg viewBox="0 0 18 34" xmlns="http://www.w3.org/2000/svg"><symbol id="facebook" viewBox="0 0 18 34"><path id="canvas_background" fill="none" d="M-1-1h26v44H-1z"/><g transform="matrix(.47057 0 0 .38697 -1.393 2.452)"><g id="Layer_x0020_1" transform="matrix(.04964 0 0 .06393 -13.184 13.004)"><path d="M452.583 306.84h180.266V77.504c0-.7.045-1.39.132-2.067 3.715-70.48 17.96-134.177 50.795-180.936 34.057-48.502 87.009-78.332 167.06-78.332h288.683c8.835 0 16 7.165 16 16v231.16c0 8.835-7.165 16-16 16H1025.56c-29.395 0-51.45 4.502-65.756 16.317l-10.187-12.312 10.187 12.338c-.31.255-.626.495-.947.724-13.262 11.504-20.737 30.839-22.362 60.738h.022v149.705h203c8.836 0 16 7.165 16 16v245.334c0 8.835-7.164 16-16 16h-203v720.001c0 8.836-7.164 16-16 16h-271.67c-8.835 0-16-7.164-16-16V584.172H452.584c-8.836 0-16-7.165-16-16V322.839c0-8.836 7.164-16 16-16z" id="svg_1" fill="currentColor" fill-rule="nonzero"/></g><path stroke="null" id="svg_2" fill="none" d="M3-1h15v70H3z"/></g></symbol></svg>