<svg xmlns="http://www.w3.org/2000/svg" viewBox="0 0 84.003 100.111" height="100%" width="100%" xml:space="preserve" id="svg2" version="1.1"><defs id="defs6"><clipPath id="clipPath18" clipPathUnits="userSpaceOnUse"><path id="path16" d="M0 75.083h63.002V0H0z"/></clipPath></defs><g transform="matrix(1.33333 0 0 -1.33333 0 100.11)" id="g10"><g id="g12"><g clip-path="url(#clipPath18)" id="g14"><path id="path20" d="M60 38.999H38.053v10.854H60zM57.125 2.936H38.053v33.063h19.072zm-22.01.002h-7.063v46.916h7.063zM25.114 38.999H3v10.854h22.114zm0-36.063H6.042v33.063h19.072zm-5.882 56.426c-2.19 1.467-6.444 4.378-6.342 7.678.11 3.552 5.655 6.491 8.68 3.839 3.797-3.331 5.625-10.972 7.01-16.357-3.199 1.519-6.23 2.753-9.348 4.84m22.534 9.848c2.07.306 4.907-1.283 5.175-3.171.387-2.723-3.348-5.192-5.007-6.343-2.484-1.723-4.853-2.611-7.178-4.006.872 3.645 2.512 12.854 7.01 13.52m18.399-16.357H35.758c13.603 6.815 14.687 11.115 14.187 13.52-1.144 3.916-5.603 6.938-9.847 5.341-5.485-2.063-7.03-10.262-8.514-16.19-1.894 5.998-3.726 13.649-8.011 17.525-1.242 1.125-3.049 2.237-5.676 2.003-3.965-.352-9.652-5.317-7.344-10.849 2.217-5.313 9.539-8.67 14.354-11.35H2.834A2.843 2.843 0 010 50.018V38.833a2.842 2.842 0 012.835-2.834h.27V0h56.958v35.999h.104a2.84 2.84 0 012.835 2.834v11.185a2.846 2.846 0 01-2.837 2.835" fill="#81b3d2" fill-opacity="1" fill-rule="nonzero" stroke="none"/></g></g></g></svg>