<svg xmlns="http://www.w3.org/2000/svg" viewBox="0 0 99.594 96.461" height="100%" width="100%" xml:space="preserve" id="svg2" version="1.1"><defs id="defs6"><clipPath id="clipPath24" clipPathUnits="userSpaceOnUse"><path id="path22" d="M0 72.346h74.695V0H0z"/></clipPath></defs><g transform="matrix(1.33333 0 0 -1.33333 0 96.46)" id="g10"><path id="path12" d="M42.566 9.938H32.441v18.063h10.125zM29.503 7.001h16v23.938h-16z" fill="#81b3d2" fill-opacity="1" fill-rule="nonzero" stroke="none"/><g transform="translate(37.35 72.346)" id="g14"><path id="path16" d="M0 0l-37.35-37.363 2.077-2.078 7.832 7.833v-37.8h-3.938v-2.938h63.875v2.938h-5.059v37.801l7.833-7.833 2.075 2.079-9.907 9.912V-.47H13.624v-13.16zm16.563-16.571v13.163h7.939v-21.103zM-24.503-28.67L-.002-4.169 24.501-28.67v-40.737h-49.004z" fill="#81b3d2" fill-opacity="1" fill-rule="nonzero" stroke="none"/></g><g id="g18"><g clip-path="url(#clipPath24)" id="g20"><g transform="translate(37.503 50.105)" id="g26"><path id="path28" d="M0 0a4.97 4.97 0 100-9.941A4.97 4.97 0 000 0m-7.75-4.969a7.75 7.75 0 1115.502.002A7.75 7.75 0 01-7.75-4.97" fill="#81b3d2" fill-opacity="1" fill-rule="nonzero" stroke="none"/></g><path id="path30" d="M16.909 30.938h3V27h-3z" fill="#81b3d2" fill-opacity="1" fill-rule="nonzero" stroke="none"/><path id="path32" d="M22.847 30.938h3V27h-3z" fill="#81b3d2" fill-opacity="1" fill-rule="nonzero" stroke="none"/><path id="path34" d="M16.909 24.938h3V21h-3z" fill="#81b3d2" fill-opacity="1" fill-rule="nonzero" stroke="none"/><path id="path36" d="M22.847 24.938h3V21h-3z" fill="#81b3d2" fill-opacity="1" fill-rule="nonzero" stroke="none"/><path id="path38" d="M48.847 30.938h3V27h-3z" fill="#81b3d2" fill-opacity="1" fill-rule="nonzero" stroke="none"/><path id="path40" d="M54.784 30.938h3V27h-3z" fill="#81b3d2" fill-opacity="1" fill-rule="nonzero" stroke="none"/><path id="path42" d="M48.847 24.938h3V21h-3z" fill="#81b3d2" fill-opacity="1" fill-rule="nonzero" stroke="none"/><path id="path44" d="M54.784 24.938h3V21h-3z" fill="#81b3d2" fill-opacity="1" fill-rule="nonzero" stroke="none"/></g></g></g></svg>