<svg xmlns="http://www.w3.org/2000/svg" viewBox="0 0 205.845 260.433" height="100%" width="100%" xml:space="preserve" id="svg2" version="1.1"><symbol id="htmlacademy" viewBox="0 0 205.845 260.433"><defs id="defs6"><clipPath id="clipPath22" clipPathUnits="userSpaceOnUse"><path id="path20" d="M0 195.325h154.384V0H0z"/></clipPath></defs><g transform="matrix(1.33333 0 0 -1.33333 0 260.433)" id="g10"><g transform="translate(143.852 124.97)" id="g12"><path id="path14" d="M0 0l-67.02 39.508v.01l-.008-.005-.008.005v-.01L-133.32.046v52.731l66.661 6.989L0 52.777zm-.054-6.992L-18.29-17.736l-8.419-4.96-40.149 23.884-.066-6.951 34.317-20.407-.304-.18-.739-.435-4.876-2.872-28.332 16.854-.066-6.951 22.362-13.298-5.276-3.529-.128-.077-16.892 9.951-.066-6.95 11.084-6.528-11.291-6.779-66.044 39.259 66.139 39.755v-.007zM0-73.051l-66.66-39.663-66.66 39.663v57.615l66.374-39.505.111-7.16-45.534 27.1-.067-6.951 45.715-27.475.113-7.349-45.7 27.185-.066-6.95 45.714-27.475L-20.508-56.4v6.982l-.057-.034v22.705L0-14.466zm-65.855 142.82l-.807.084-76.69-8.04V-78.755l76.692-45.633 76.692 45.633V61.813z" fill="currentColor" fill-opacity="1" fill-rule="nonzero" stroke="none"/></g><g id="g16"><g clip-path="url(#clipPath22)" id="g18"><g transform="translate(143.852 124.97)" id="g24"><path id="path26" d="M0 0l-67.02 39.508v.01l-.008-.005-.008.005v-.01L-133.32.046v52.731l66.661 6.989L0 52.777zm-.054-6.992L-18.29-17.736l-8.419-4.96-40.149 23.884-.066-6.951 34.317-20.407-.304-.18-.739-.435-4.876-2.872-28.332 16.854-.066-6.951 22.362-13.298-5.276-3.529-.128-.077-16.892 9.951-.066-6.95 11.084-6.528-11.291-6.779-66.044 39.259 66.139 39.755v-.007zM0-73.051l-66.66-39.663-66.66 39.663v57.615l66.374-39.505.111-7.16-45.534 27.1-.067-6.951 45.715-27.475.113-7.349-45.7 27.185-.066-6.95 45.714-27.475L-20.508-56.4v6.982l-.057-.034v22.705L0-14.466zm-65.855 142.82l-.807.084-76.69-8.04V-78.755l76.692-45.633 76.692 45.633V61.813z" fill="none" stroke="#231f20" stroke-width="1" stroke-linecap="butt" stroke-linejoin="miter" stroke-miterlimit="10" stroke-dasharray="none" stroke-opacity="1"/></g></g></g></g></symbol></svg>