<svg xmlns="http://www.w3.org/2000/svg" viewBox="0 0 21.333 16" height="12" width="16" xml:space="preserve" id="svg2" version="1.1"><defs id="defs6"><clipPath id="clipPath18" clipPathUnits="userSpaceOnUse"><path id="path16" d="M0 12h16V0H0z"/></clipPath></defs><g transform="matrix(1.33333 0 0 -1.33333 0 16)" id="g10"><g id="g12"><g clip-path="url(#clipPath18)" id="g14"><g transform="translate(15 12)" id="g20"><path id="path22" d="M0 0h-14c-.55 0-1-.45-1-1v-.758l8-4.205 8 4.205V-1C1-.45.55 0 0 0m-7-8c-.266 0-.5.094-1 .336L-15-4v-7c0-.55.45-1 1-1H0c.55 0 1 .45 1 1v7l-7-3.664C-6.5-7.906-6.734-8-7-8" fill="#000" fill-opacity="1" fill-rule="nonzero" stroke="none"/></g></g></g></g></svg>