<svg xmlns="http://www.w3.org/2000/svg" viewBox="0 0 613.005 466.769" height="100%" width="100%" xml:space="preserve" id="svg2" version="1.1"><defs id="defs6"><clipPath id="clipPath18" clipPathUnits="userSpaceOnUse"><path id="path16" d="M0 350.077h459.754V0H0z"/></clipPath></defs><g transform="matrix(1.33333 0 0 -1.33333 0 466.77)" id="g10"><g id="g12"><g clip-path="url(#clipPath18)" id="g14"><g transform="translate(159.029 279.873)" id="g20"><path id="path22" d="M0 0h-.145c-.979 0-1.756-.806-1.756-1.785 0-.373.115-.72.289-1.009l-.029-.057C-3.052-5.27-6.479-4.809-4.694-1.7l2.274 3.944 1.44 2.447C1.122 8.26 4 6.85 2.186 3.741zm6.392.203l-.203-.229C4.836-1.495 3.167-2.214 1.668-2.243L4.49 2.622c1.813 3.139.144 6.104-2.679 6.104-2.303 0-4.088-.92-5.815-3.916l-1.468-2.562L-6.699.15l-.154-.177c-2.159-2.506-4.262-4.491-5.586-4.491-.662 0-1.037.461-.346 1.641l6.422 11.201h2.446l.864 1.44H-5.53l2.822 4.893h-2.994l-2.822-4.895h-2.707l-.864-1.44h2.735l-6.019-10.423c-1.267-2.217-.374-4.262 2.044-4.262 1.739 0 3.662 1.309 5.512 3.084-.006-3.816 5.297-4.562 8.539-.463h.661c1.785 0 4.606 1.094 6.134 2.907C7.312-.43 6.795.03 6.392.203" fill="#766458" fill-opacity="1" fill-rule="nonzero" stroke="none"/></g><g transform="translate(201.175 284.28)" id="g24"><path id="path26" d="M0 0c1.729 2.965 4.781 2.477 2.996-.634l-.433-.749C1.125-3.83-.805-3.774-1.928-3.37zm5.701-4.204L5.5-4.433C3.34-6.939.576-8.924-1.525-8.924c-1.844 0-2.938 1.151-1.555 3.569l.287.52c1.93-.807 5.558-.432 7.804 3.455l.432.749c1.612 2.764.058 4.837-2.39 4.837-2.419 0-4.348-1.268-5.615-3.455l-2.906-4.984-.173-.199c-2.159-2.504-4.261-4.49-5.586-4.49-.661 0-1.036.461-.346 1.641L-7.254.29c1.295 2.274.059 3.916-1.612 3.916-1.296 0-2.679-.72-4.175-2.274l4.779 8.32h-2.994L-19.61-4.24l-.168-.191c-2.159-2.506-4.261-4.491-5.586-4.491-.662 0-1.037.461-.345 1.641l6.42 11.201h2.447l.864 1.44h-2.476l2.822 4.893h-2.994l-2.822-4.895h-2.706l-.864-1.44h2.735l-6.019-10.423c-1.267-2.217-.373-4.262 2.045-4.262 1.213 0 2.517.639 3.821 1.627l-.771-1.338h3.022l4.55 7.916c4.606 5.789 6.65 5.039 5.354 2.822l-3.888-6.767c-1.267-2.218-.373-4.263 2.045-4.263 1.781 0 3.757 1.375 5.646 3.217.145-1.864 1.653-3.217 4.055-3.217 3.396 0 6.766 2.649 9.242 5.529-.196.404-.714.864-1.118 1.037" fill="#766458" fill-opacity="1" fill-rule="nonzero" stroke="none"/></g><g transform="translate(285.414 279.873)" id="g28"><path id="path30" d="M0 0h-.146c-.978 0-1.755-.806-1.755-1.785 0-.373.115-.72.287-1.009l-.028-.057C-3.052-5.27-6.479-4.809-4.694-1.7l2.273 3.944 1.44 2.447c2.102 3.569 4.979 2.159 3.168-.95zm-29.54-4.519c-.662 0-1.035.461-.346 1.641l4.176 7.285c1.611 2.793 4.809 2.073 3.34-.634l-2.274-3.974c-1.813-2.908-3.63-4.318-4.896-4.318m-1.381-6.68c-.635-1.123-1.642-.951-1.642-.145 0 .777.72 1.67 2.994 2.562zM-49.748 0h-.146c-.978 0-1.755-.806-1.755-1.785 0-.373.115-.72.287-1.009l-.028-.057C-52.8-5.27-56.227-4.809-54.442-1.7l2.273 3.944 1.44 2.447c2.103 3.569 4.979 2.159 3.167-.95zm-18.397-4.519c-.662 0-1.037.461-.346 1.641l4.176 7.285c1.611 2.793 4.809 2.073 3.34-.634l-2.273-3.974c-1.816-2.908-3.63-4.318-4.897-4.318m-1.383-6.68c-.633-1.123-1.641-.951-1.641-.145 0 .777.721 1.67 2.994 2.562zm57.177 15.606c1.728 2.965 4.778 2.477 2.993-.634l-.432-.749C-11.229.577-13.159.633-14.282 1.037zM30.632.203l-.201-.229A18.785 18.785 0 0026.83-3.28c.95 2.851.749 7.228 2.593 11.057l-2.246 1.209c-1.239-1.699-3.944-5.615-6.651-8.782V.203l-.2-.229c-2.158-2.506-4.261-4.491-5.587-4.491-.661 0-1.035.461-.343 1.641l6.391 11.201h-2.994l-5.326-9.3C10.192-3.047 8.437-4.2 7.86-3.94c-.748.315 0 1.438.375 2.072L14.08 8.324h-2.995L6.39.2l-.198-.227C4.839-1.496 3.17-2.215 1.672-2.244l2.821 4.865c1.813 3.139.147 6.104-2.678 6.104-2.304 0-4.089-.92-5.815-3.916l-1.47-2.562L-6.696.15l-.155-.178c-2.158-2.506-4.923-4.491-7.024-4.491-1.843 0-2.938 1.151-1.556 3.569l.289.52c1.929-.807 5.558-.432 7.803 3.455l.434.749c1.61 2.764.056 4.837-2.392 4.837-2.419 0-4.349-1.268-5.615-3.455L-17.815.172l-.174-.199c-2.478-2.851-4.607-4.691-6.97-5.699l6.709 11.459h-1.757c0 1.238-1.267 2.879-3.139 2.879-1.611 0-3.857-1.268-5.125-3.455L-31.142.2l-.007.004-.202-.23c-2.158-2.504-4.261-4.49-5.586-4.49-.662 0-1.035.461-.345 1.641l2.994 5.241c1.036 1.813.547 2.879-.433 4.06l-1.671 2.017c-.431.547-.431 1.151.174 1.728l-1.554 1.699c-1.7-1.525-1.844-3.225-.778-4.607l.26-.346c-1.324-1.872-3.109-4.404-5.068-6.709l.002-.004-.2-.229c-1.354-1.467-3.022-2.188-4.521-2.217l2.82 4.866c1.815 3.138.145 6.104-2.678 6.104-2.302 0-4.087-.922-5.814-3.916l-1.47-2.562-1.228-2.101-.152-.175c-2.477-2.851-4.607-4.691-6.969-5.699l6.709 11.459h-1.756c0 1.238-1.267 2.879-3.139 2.879-1.611 0-3.857-1.268-5.125-3.455l-4.203-7.256c-1.268-2.217-.375-4.262 2.043-4.262.836 0 1.844.375 2.852 1.008l-.835-1.41c-4.031-1.238-6.565-2.879-6.565-5.125 0-2.88 4.405-3.484 6.565.201l2.274 3.945c2.396.746 4.743 2.155 7.18 4.481-.021-3.832 5.294-4.585 8.54-.479h.661c1.785 0 4.607 1.094 6.134 2.908 1.437 1.67 2.561 3.168 4.95 6.42l.402-.49c.374-.489.521-1.094.174-1.698l-3.168-5.5c-1.269-2.218-.375-4.263 2.045-4.263 1.518 0 3.177.998 4.802 2.431-.05-1.392.879-2.431 2.597-2.431.834 0 1.843.375 2.852 1.009l-.836-1.409c-4.031-1.238-6.563-2.879-6.563-5.125 0-2.88 4.405-3.483 6.563.201l2.273 3.944c2.441.762 4.83 2.215 7.316 4.617.134-1.875 1.645-3.236 4.057-3.236 2.438 0 4.859 1.367 6.947 3.201-.116-3.92 5.266-4.721 8.541-.58h.662c.938 0 2.158.309 3.33.856-.806-2.081-.064-3.478 1.649-3.478 1.642 0 3.483 1.498 4.922 2.879-.287-1.611.662-2.879 2.563-2.879 2.476 0 5.326 2.648 7.804 5.528l-.002.001c1.698 1.959 3.196 4.059 4.262 5.469-1.181-3.108-.549-8.694-3.397-8.694-1.008 0-1.409 1.094-1.409 1.094l-1.874-.979s.547-2.42 3.283-2.42c.287 0 .548.029.834.06.029 0 .059.028.089.028 3.05.402 6.073 2.82 8.319 5.441-.172.461-.691.922-1.122 1.037" fill="#766458" fill-opacity="1" fill-rule="nonzero" stroke="none"/></g><path id="path32" d="M101.421 283.254h28.918v-1.957h-28.918z" fill="#766458" fill-opacity="1" fill-rule="nonzero" stroke="none"/><path id="path34" d="M328.421 283.254h28.918v-1.957h-28.918z" fill="#766458" fill-opacity="1" fill-rule="nonzero" stroke="none"/><g transform="translate(163.182 350.077)" id="g36"><path id="path38" d="M0 0h7.707L6.498-44.918H-8.027l-1.975 18.545-1.975-18.545h-14.589L-27.712 0h7.645l.637-37.152h.828L-13.824 0h7.581l4.906-37.152h.765z" fill="#81b3d3" fill-opacity="1" fill-rule="nonzero" stroke="none"/></g><g transform="translate(195.033 312.925)" id="g40"><path id="path42" d="M0 0v-7.766h-20.896v44.918H0v-7.7h-13.251V18.608h10.575v-7.7h-10.575V0z" fill="#81b3d3" fill-opacity="1" fill-rule="nonzero" stroke="none"/></g><g transform="translate(216.372 312.925)" id="g44"><path id="path46" d="M0 0v-7.766h-18.283v44.918h7.646V0z" fill="#81b3d3" fill-opacity="1" fill-rule="nonzero" stroke="none"/></g><g transform="translate(232.616 321.716)" id="g48"><path id="path50" d="M0 0l7.708 1.797v-13.604c0-2.567-2.166-4.749-4.714-4.749H-8.475c-2.611 0-4.713 2.182-4.713 4.749v35.419c0 2.632 2.103 4.749 4.713 4.749H2.992c2.549 0 4.715-2.117 4.715-4.749V14.5l-7.708-1.796v7.957h-5.543V-8.791h5.543z" fill="#81b3d3" fill-opacity="1" fill-rule="nonzero" stroke="none"/></g><path id="path52" d="M258.095 342.377h-5.544v-29.452h5.544zm2.993 7.7c2.55 0 4.716-2.117 4.716-4.749v-35.42c0-2.567-2.166-4.749-4.716-4.749H249.62c-2.61 0-4.714 2.182-4.714 4.749v35.42c0 2.631 2.104 4.749 4.714 4.749z" fill="#81b3d3" fill-opacity="1" fill-rule="nonzero" stroke="none"/><g transform="translate(290.836 350.077)" id="g54"><path id="path56" d="M0 0h7.58v-44.918H-.065v22.074l-3.059-11.422h-7.453l-2.994 11.422v-22.074h-7.646V0h7.581l6.817-21.688z" fill="#81b3d3" fill-opacity="1" fill-rule="nonzero" stroke="none"/></g><g transform="translate(323.133 312.925)" id="g58"><path id="path60" d="M0 0v-7.766h-20.896v44.918H0v-7.7h-13.252V18.608h10.575v-7.7h-10.575V0z" fill="#81b3d3" fill-opacity="1" fill-rule="nonzero" stroke="none"/></g><g transform="translate(44.466 192.467)" id="g62"><path id="path64" d="M0 0c-3.572 2.979-8.139 4.963-12.902 4.963-3.572 0-8.338-2.084-8.338-6.253 0-4.368 5.261-6.055 8.636-7.146l4.964-1.489c10.422-3.077 18.461-8.337 18.461-20.448 0-7.445-1.787-15.087-7.742-20.149-5.855-4.964-13.697-7.048-21.24-7.048-9.43 0-18.661 3.177-26.305 8.537l8.338 15.683c4.865-4.269 10.621-7.742 17.271-7.742 4.566 0 9.43 2.283 9.43 7.545 0 5.459-7.643 7.344-11.812 8.535-12.208 3.475-20.249 6.649-20.249 21.143 0 15.188 10.818 25.112 25.807 25.112 7.543 0 16.775-2.382 23.426-6.154z" fill="#fff" fill-opacity="1" fill-rule="nonzero" stroke="none"/></g><g transform="translate(91.831 195.246)" id="g66"><path id="path68" d="M0 0v-12.506h21.937v-16.479H0v-12.9h23.127v-16.479h-42.582v74.84h42.582V-.001H0z" fill="#fff" fill-opacity="1" fill-rule="nonzero" stroke="none"/></g><g transform="translate(148.872 153.36)" id="g70"><path id="path72" d="M0 0h4.367c11.612 0 21.539 6.352 21.539 20.942 0 13.401-8.834 20.944-21.341 20.944H0zm-19.455 58.364H8.139c20.844 0 38.016-16.377 38.016-37.42 0-21.041-17.271-37.42-38.016-37.42h-27.594z" fill="#fff" fill-opacity="1" fill-rule="nonzero" stroke="none"/></g><g transform="translate(224.339 175.593)" id="g74"><path id="path76" d="M0 0c0-12.905 9.529-22.333 21.141-22.333 11.613 0 21.143 9.43 21.143 22.333 0 10.323-9.526 19.752-21.143 19.752C9.528 19.752 0 10.322 0 0m62.534.099c0-24.219-17.371-41.292-41.393-41.292-24.02 0-41.391 17.071-41.391 41.292 0 22.632 19.852 38.513 41.391 38.513 21.539 0 41.393-15.881 41.393-38.513" fill="#fff" fill-opacity="1" fill-rule="nonzero" stroke="none"/></g><g transform="translate(297.238 211.723)" id="g78"><path id="path80" d="M0 0h19.454L55.09-45.757h.196V0h19.453v-74.839H55.286L19.651-28.983h-.197v-45.856H0z" fill="#fff" fill-opacity="1" fill-rule="nonzero" stroke="none"/></g><g transform="translate(420.945 188.596)" id="g82"><path id="path84" d="M0 0h-.199l-8.039-23.824H7.939zm-13.601-38.71l-5.16-13.002h-20.645l28.785 74.839h21.242l28.188-74.839H18.063L13.201-38.71z" fill="#fff" fill-opacity="1" fill-rule="nonzero" stroke="none"/></g><g transform="translate(102.792 64.087)" id="g86"><path id="path88" d="M0 0l3.063 5.252c2.771 4.775 6.309 1.969 4.412-1.605C6.019.912 3.866.073 0 0m-4.084-17.285c-2.261 0-4.048.51-5.47 1.311.656.767 1.312 1.715 1.896 2.699l6.381 11.05 1.021-.108c8.9-1.862 5.362-14.952-3.828-14.952M5.288-1.751C12.946.838 13.53 10.43 5.981 10.43c-2.079 0-4.559-1.459-6.272-4.449L-10.503-11.67a14.673 14.673 0 00-1.458-2.15c-2.626 3.609-1.86 9.006 1.823 11.377L-11.67-.509c-7.95-5.069-5.616-19.692 7.659-19.692 11.342-.002 16.593 13.599 9.299 18.45" fill="#fff" fill-opacity="1" fill-rule="nonzero" stroke="none"/></g><g transform="translate(119.814 59.638)" id="g90"><path id="path92" d="M0 0c2.188 3.756 6.054 3.137 3.791-.802l-.547-.948c-1.822-3.1-4.267-3.026-5.688-2.516zm24.184-9.227L29.472 0c2.042 3.539 6.09 2.627 4.229-.802l-2.953-5.179c-2.297-3.609-4.56-5.324-6.127-5.324-.837 0-1.312.583-.437 2.078M78.375 0c2.188 3.756 6.054 3.137 3.791-.802l-.547-.948c-1.822-3.1-4.267-3.026-5.688-2.516zM20.346-9.563c-.629-2.248.572-4.076 3.146-4.076 1.531 0 3.428.985 5.25 2.479.184-1.459 1.351-2.479 3.283-2.479 2.02 0 4.234 1.395 6.393 3.358-.42-2.049.541-3.358 2.41-3.358 2.08 0 4.414 1.897 6.236 3.647-.365-2.043.84-3.647 3.246-3.647 3.137 0 6.747 3.354 9.883 7.002-.025.051-.068.102-.101.152 2.097 2.438 3.946 5.026 5.269 6.776-1.496-3.937-.693-11.014-4.305-11.014-1.275 0-1.787 1.387-1.787 1.387l-2.371-1.24s.693-3.063 4.157-3.063c.365 0 .692.037 1.058.073.037 0 .073.035.109.035 2.786.369 5.55 2.064 7.943 4.225.058-2.495 1.994-4.333 5.145-4.333 4.303 0 8.57 3.354 11.707 7.002-.255.512-.912 1.094-1.422 1.313l-.255-.293c-2.735-3.172-6.236-5.688-8.897-5.688-2.334 0-3.721 1.459-1.97 4.522l.365.656c2.442-1.02 7.038-.547 9.883 4.377l.547.947c2.042 3.502.073 6.127-3.026 6.127-3.063 0-5.508-1.604-7.111-4.375l-3.684-6.318c-.035.012-.07.037-.104.046l-.255-.292a23.678 23.678 0 00-4.559-4.121c1.203 3.609.948 9.152 3.282 14.004l-2.844 1.531c-1.568-2.151-4.996-7.111-8.425-11.122.033-.046.074-.091.111-.138l-.136-.154c-2.735-3.172-5.397-5.688-7.075-5.688-.838 0-1.312.582-.438 2.078L59.1 4.963h-3.793L48.56-6.816c-2.881-2.626-5.104-4.084-5.835-3.756-.947.4 0 1.822.475 2.625l7.402 12.91h-3.793L40.773-5.483c-.098.061-.196.123-.288.162l-.255-.292c-2.735-3.172-5.397-5.688-7.075-5.688-.838 0-1.312.582-.438 2.078L38.844 1.5h-2.152c.146 1.604-1.494 3.83-3.975 3.83-2.042 0-4.887-1.605-6.491-4.377L22.38-5.684a2.813 2.813 0 01-.577.365l-.255-.292c-2.735-3.172-6.236-5.688-8.897-5.688-2.334 0-3.721 1.459-1.971 4.521L14.582.004c2.188 3.757 6.054 3.137 3.791-.801l-.547-.949h3.101l.547.949c2.042 3.5.073 6.127-3.026 6.127-3.063 0-5.508-1.605-7.111-4.377l-3.77-6.467a2.425 2.425 0 01-.348.195l-.255-.292C4.229-8.783.728-11.299-1.933-11.299c-2.335 0-3.721 1.459-1.971 4.521l.365.657c2.443-1.022 7.039-.547 9.883 4.375l.547.949c2.042 3.5.073 6.127-3.027 6.127-3.062 0-5.507-1.605-7.11-4.377l-3.976-6.818c-2.371-4.049-.328-7.768 4.157-7.768 3.341 0 6.657 2.023 9.442 4.635-.098-2.647 1.865-4.635 5.141-4.635 3.1-.006 6.176 1.735 8.828 4.07" fill="#fff" fill-opacity="1" fill-rule="nonzero" stroke="none"/></g><g transform="translate(251.46 59.638)" id="g94"><path id="path96" d="M0 0c2.188 3.756 6.056 3.137 3.793-.802l-.547-.948c-1.824-3.1-4.268-3.026-5.69-2.516zm-3.063-13.639c4.303 0 8.572 3.354 11.707 7.002-.254.512-.911 1.094-1.422 1.313l-.254-.293C4.231-8.789.731-11.305-1.933-11.305c-2.334 0-3.72 1.459-1.97 4.522l.365.656c2.444-1.02 7.038-.547 9.883 4.377l.547.947c2.043 3.502.074 6.127-3.027 6.127-3.061 0-5.505-1.604-7.11-4.375l-3.693-6.337c-.038.019-.077.048-.113.064l-.256-.293c-2.734-3.172-5.395-5.688-7.074-5.688-.839 0-1.311.583-.438 2.079l5.47 9.591c1.642 2.881.073 4.961-2.043 4.961-1.642 0-3.392-.912-5.287-2.882l6.054 10.54h-3.793l-10.697-18.56a2.478 2.478 0 01-.434.252l-.256-.292c-2.735-3.173-5.396-5.689-7.075-5.689-.838 0-1.312.583-.438 2.079l8.133 14.187h3.101l1.095 1.824h-3.137l3.574 6.199h-3.793l-3.574-6.199h-3.428l-1.094-1.824h3.463L-36.6-8.242c-1.604-2.809-.474-5.397 2.589-5.397 1.885 0 3.941 1.217 5.962 2.975l-1.504-2.609h3.83l5.762 10.029c5.835 7.33 8.425 6.382 6.783 3.574l-4.923-8.571c-1.604-2.808-.474-5.396 2.589-5.396 2.305 0 4.865 1.812 7.304 4.221.111-2.441 2.041-4.223 5.145-4.223" fill="#fff" fill-opacity="1" fill-rule="nonzero" stroke="none"/></g><g transform="translate(353.79 53.876)" id="g98"><path id="path100" d="M0 0c-2.299-3.756-4.633-5.543-6.236-5.543-.838 0-1.312.583-.438 2.079l5.287 9.228c2.043 3.537 6.09 2.625 4.23-.803h.035zm-36.702-.22c-2.299-3.608-4.56-5.323-6.127-5.323-.84 0-1.312.583-.439 2.079l5.288 9.228c2.042 3.537 6.089 2.625 4.23-.803zm-39.693-13.784c-.8-1.422-2.078-1.204-2.078-.184 0 .985.875 2.115 3.793 3.247zm8.059 28.591c1.131 1.933 2.371 2.771 3.43 2.771 6.017 0 1.787-12.253-8.133-12.253h-.766zM9.626.436L9.37.145C6.639-3.027 3.975-5.544 2.296-5.544c-.838 0-1.312.583-.439 2.079l12.838 22.209h-3.793L5.323 9.116c-.656 1.058-1.896 1.97-3.466 1.97-2.043 0-4.886-1.605-6.491-4.376L-8.346.305c-.079.047-.161.1-.235.133l-.256-.293c-2.733-3.172-5.395-5.688-7.074-5.688-.84 0-1.312.583-.439 2.079l5.47 9.591c1.644 2.881.073 4.961-2.041 4.961-1.643 0-3.354-.875-5.252-2.846l1.422 2.479h-3.793L-26.605.234a2.703 2.703 0 01-.361.204l-.257-.293c-2.733-3.172-5.395-5.688-7.073-5.688-.838 0-1.311.583-.438 2.079l6.127 10.722h-2.152c.146 1.604-1.494 3.83-3.975 3.83-2.043 0-4.889-1.605-6.493-4.375l-3.666-6.33-.207-.235c-2.733-3.171-5.395-5.687-7.073-5.687-.839 0-1.311.582-.438 2.078l3.793 6.637c1.312 2.299.691 3.646-.547 5.142l-2.115 2.554c-.547.692-.547 1.458.219 2.189l-1.969 2.15c-2.152-1.934-2.334-4.084-.986-5.835l.33-.438c-1.678-2.371-3.939-5.58-6.421-8.497.075-.107.164-.214.259-.321-3.125-3.593-5.781-5.918-8.763-7.19l4.813 8.242h-3.793l-.4-.658c-2.006-3.537-4.305-6.054-7.258-6.054-2.59 0-3.062 2.589-.803 6.455l1.059 1.859a13.655 13.655 0 012.15-.182c13.494 0 20.022 18.051 8.135 18.051-2.08 0-4.561-1.459-6.274-4.449L-77.089 6.02c-2.225 1.166-3.391 3.281-3.391 5.396 0 1.75.803 3.501 2.441 4.776l-1.238 2.226c-2.7-1.934-3.903-4.522-3.903-7.074 0-3.028 1.716-5.945 4.778-7.55l-1.131-1.97c-2.662-4.595-2.188-9.7 3.174-9.7 1.604 0 2.953.474 4.121 1.204l-.987-1.715c-5.14-1.566-8.313-3.646-8.313-6.49 0-3.646 5.58-4.413 8.313.255l2.918 4.996c3.94 1.239 7.806 3.938 11.964 8.752a2.235 2.235 0 01-.236.356c1.684 1.979 3.113 3.889 5.972 7.776l.509-.621c.475-.619.657-1.386.219-2.152l-4.012-6.964c-1.605-2.806-.474-5.395 2.59-5.395 1.906 0 3.988 1.244 6.033 3.036-.045-1.745 1.148-3.036 3.311-3.036 1.531 0 3.428.984 5.25 2.479.184-1.459 1.352-2.479 3.283-2.479 1.817 0 3.791 1.13 5.742 2.785L-31.08-7.51h3.828l5.799 10.104c5.799 7.256 8.389 6.308 6.746 3.5l-4.922-8.571c-1.603-2.808-.475-5.396 2.588-5.396 2.018 0 4.227 1.389 6.381 3.346-.201-1.901 1.008-3.346 3.295-3.346 1.531 0 3.427.984 5.252 2.479.182-1.46 1.35-2.479 3.281-2.479 3.137 0 6.746 3.354 9.883 7.002-.257.506-.912 1.09-1.425 1.307" fill="#fff" fill-opacity="1" fill-rule="nonzero" stroke="none"/></g><g transform="translate(210.06 18.058)" id="g102"><path id="path104" d="M0 0h-.184c-1.24 0-2.225-1.021-2.225-2.263 0-.474.146-.911.365-1.274l-.037-.073c-1.786-3.063-6.127-2.48-3.865 1.459l2.881 4.996 1.823 3.1C1.421 10.467 5.067 8.68 2.77 4.741zm-25.528-14.185c-.803-1.422-2.079-1.204-2.079-.184 0 .984.912 2.114 3.829 3.246zM-54.379-.401c-2.297-3.61-4.559-5.324-6.127-5.324-.838 0-1.312.583-.438 2.079l5.288 9.228c2.042 3.536 6.09 2.625 4.229-.804zm-13.355 14.806c1.13 1.934 2.371 2.772 3.428 2.772 1.423 0 2.079-.948 2.079-2.334 0-3.538-4.303-9.919-10.211-9.919h-.766zM26.653.256l-.255-.293c-2.733-3.172-5.396-5.689-7.074-5.689-.84 0-1.312.583-.438 2.08l5.471 9.59c1.642 2.881.071 4.96-2.043 4.96-1.642 0-3.354-.875-5.251-2.844l1.422 2.478h-3.793L8.581-.035a2.782 2.782 0 01-.484.291l-.256-.293C6.128-1.896 4.012-2.809 2.116-2.846l3.573 6.163c2.297 3.977.183 7.731-3.392 7.731-2.918 0-5.178-1.167-7.367-4.96l-1.86-3.245L-8.556.062a2.51 2.51 0 01-.343.192l-.255-.293c-3.137-3.608-5.799-5.942-8.789-7.222l10.395 17.797h-3.793l-6.709-11.67c-2.918-2.697-5.179-4.192-5.908-3.864-.948.399 0 1.822.474 2.625l7.403 12.909h-3.793L-25.925.066a2.481 2.481 0 01-.332.188l-.255-.293c-2.735-3.173-5.397-5.689-7.075-5.689-.838 0-1.312.583-.438 2.08l5.47 9.59c1.642 2.881.073 4.96-2.042 4.96-1.641 0-3.355-.875-5.251-2.844l1.423 2.478h-3.794L-44.281.051a2.622 2.622 0 01-.36.203l-.255-.293c-2.734-3.173-5.396-5.689-7.075-5.689-.838 0-1.312.583-.438 2.08l6.128 10.72h-2.152c.146 1.605-1.495 3.83-3.976 3.83-2.041 0-4.887-1.604-6.49-4.377l-3.918-6.762c-.26.234-.559.417-.831.49l-.255-.293c-2.735-3.173-6.09-5.689-9.848-5.689-2.588 0-4.156 2.589-1.896 6.456l1.058 1.859a13.681 13.681 0 012.151-.185c4.048 0 8.644 2.08 11.634 7.295 1.057 1.86 1.531 3.61 1.531 5.105 0 3.428-2.225 5.651-5.032 5.651-2.079 0-4.559-1.459-6.272-4.448l-5.908-10.176c-2.225 1.167-3.393 3.282-3.393 5.398 0 1.75.803 3.501 2.443 4.776l-1.24 2.226c-2.699-1.935-3.902-4.521-3.902-7.076 0-3.025 1.715-5.943 4.777-7.548l-1.13-1.971c-2.661-4.596-1.094-9.699 4.267-9.699 4.242 0 7.354 1.888 9.969 4.372-.826-2.384.374-4.372 3.059-4.372 1.532 0 3.428.984 5.252 2.478.182-1.459 1.35-2.478 3.281-2.478 1.816 0 3.792 1.128 5.742 2.783l-1.398-2.42h3.829l5.798 10.102c5.799 7.258 8.389 6.311 6.748 3.502l-4.923-8.567c-1.604-2.81-.474-5.397 2.589-5.397 2.041 0 4.282 1.425 6.465 3.423-.455-2.086.508-3.423 2.397-3.423 1.824 0 3.901 1.532 5.616 3.063l-2.079-3.574c-5.142-1.53-8.351-3.647-8.351-6.49 0-3.647 5.58-4.414 8.313.254l2.917 4.997c3.171.998 6.297 2.964 9.562 6.195C-10.4-8.915-3.344-10.123.91-4.744h.838c1.385 0 3.26.522 4.953 1.455l-2.55-4.41h3.83l5.798 10.102c5.799 7.258 8.389 6.311 6.747 3.502l-4.923-8.57c-1.604-2.81-.475-5.397 2.59-5.397 3.138 0 6.746 3.355 9.883 7.002-.256.513-.911 1.097-1.423 1.316" fill="#fff" fill-opacity="1" fill-rule="nonzero" stroke="none"/></g><g transform="translate(299.433 19.991)" id="g106"><path id="path108" d="M0 0l1.094 1.896c4.377 6.091 7.367 4.413 6.017 2.115L5.289.875C4.155-1.095.838-2.48 0 0m25.188-2.991c-.219.583-.875 1.167-1.422 1.312l-.256-.293a23.672 23.672 0 00-4.56-4.12c1.203 3.61.947 9.153 3.281 14.004l-2.846 1.532c-1.566-2.151-4.995-7.111-8.424-11.123.006-.01.017-.018.021-.025-.015.007-.031.02-.046.025l-.254-.293C7.945-5.144 5.285-7.66 3.605-7.66c-.837 0-1.64.839-1.64 2.553v1.568C4.627-3.867 7.436-2.116 9.223.982l1.02 1.75c3.535 6.054-2.226 8.061-6.092 4.521l5.396 9.373H5.754L-5.062-2.141a3 3 0 01-.692.459l-.257-.293c-2.733-3.172-6.235-5.688-8.897-5.688-2.334 0-3.719 1.459-1.969 4.521l3.899 6.783c2.189 3.756 6.055 3.136 3.793-.803l-.546-.948h3.101l.548.948c2.041 3.501.071 6.127-3.027 6.127-3.063 0-5.508-1.605-7.112-4.377l-3.732-6.404c-.078.047-.16.101-.234.133l-.256-.293c-2.734-3.172-5.396-5.688-7.074-5.688-.839 0-1.311.583-.438 2.079l8.097 14.186h-3.794l-6.745-11.779c-2.884-2.625-5.105-4.084-5.836-3.756-.948.4 0 1.823.474 2.625l7.403 12.91h-3.793l-7.366-12.744a22.635 22.635 0 00-2.449-1.952c1.203 3.61.947 9.153 3.281 14.004l-2.843 1.532C-43.095 7.29-51.848-4.309-55.276-8.32c.327-.474.876-.948 1.422-1.313 2.151 2.48 9.373 11.779 10.723 13.566-1.496-3.938-.693-11.014-4.305-11.014-1.275 0-1.787 1.387-1.787 1.387l-2.37-1.24s.693-3.062 4.157-3.062c.366 0 .694.036 1.059.072.035 0 .072.036.107.036 1.928.255 3.842 1.143 5.631 2.379-.011-1.542.92-2.487 2.51-2.487 2.076 0 4.412 1.896 6.234 3.646-.363-2.043.838-3.646 3.247-3.646 2.355 0 4.978 1.893 7.466 4.38.034-2.52 1.975-4.38 5.145-4.38 3.078 0 6.138 1.72 8.775 4.031l-2.113-3.668h3.83l4.34 7.55v-3.026c0-3.245.619-4.887 3.683-4.887 3.136 0 6.748 3.354 9.884 7.002-.006.011-.018.021-.02.034.015-.013.031-.023.047-.034 2.152 2.479 4.049 5.142 5.395 6.93-1.493-3.939-.69-11.015-4.303-11.015-1.274 0-1.787 1.387-1.787 1.387l-2.371-1.24s.694-3.062 4.158-3.062c.363 0 .691.036 1.06.072.034 0 .069.036.106.036 3.867.514 7.697 3.575 10.541 6.895" fill="#fff" fill-opacity="1" fill-rule="nonzero" stroke="none"/></g><g transform="translate(324.474 14.412)" id="g110"><path id="path112" d="M0 0c-1.24 0-2.189-.984-2.189-2.226S-1.24-4.414 0-4.414c1.237 0 2.225.947 2.225 2.188A2.213 2.213 0 010 0" fill="#fff" fill-opacity="1" fill-rule="nonzero" stroke="none"/></g><g transform="translate(324.655 15.906)" id="g114"><path id="path116" d="M0 0h3.83l11.887 20.715h-3.791z" fill="#fff" fill-opacity="1" fill-rule="nonzero" stroke="none"/></g><g transform="translate(88.277 72.496)" id="g118"><path id="path120" d="M0 0c0-.293-.057-.587-.17-.879a2.388 2.388 0 00-.506-.796 2.652 2.652 0 00-1.93-.795c-.451 0-.885.084-1.302.253-.417.17-.772.411-1.065.728A3.134 3.134 0 00-5.547-.44 4.045 4.045 0 00-5.75.845c0 .855.152 1.646.457 2.368a6.02 6.02 0 001.302 1.929c.248.248.528.478.847.692.314.214.613.394.896.541.282.146.524.265.728.354.204.088.327.146.372.168L.205 4.901a9.532 9.532 0 01-.828-.353 4.584 4.584 0 01-.863-.541 2.889 2.889 0 01-.676-.761 2.134 2.134 0 01-.305-1.017c.653 0 1.229-.19 1.725-.574C-.248 1.272 0 .722 0 0m-7.866 0a2.466 2.466 0 00-.676-1.676 2.612 2.612 0 00-.829-.574 2.655 2.655 0 00-1.1-.221 3.44 3.44 0 00-1.303.253 2.946 2.946 0 00-1.064.729c-.25.293-.44.643-.575 1.049a4.017 4.017 0 00-.203 1.285c0 .855.151 1.646.457 2.368a6.003 6.003 0 001.302 1.929c.248.248.529.478.846.693.315.213.614.394.896.541.281.146.523.264.727.353.203.091.328.147.373.17l1.353-1.996a9.444 9.444 0 01-.829-.354 4.655 4.655 0 01-.861-.54 2.953 2.953 0 01-.678-.762 2.159 2.159 0 01-.304-1.016 2.74 2.74 0 001.725-.575c.495-.384.743-.934.743-1.656" fill="#fff" fill-opacity="1" fill-rule="nonzero" stroke="none"/></g><g transform="translate(345.571 13.554)" id="g122"><path id="path124" d="M0 0c0 .295.057.589.17.881.113.294.281.558.506.795a2.6 2.6 0 00.83.574c.326.146.693.221 1.099.221.452 0 .885-.085 1.303-.253.416-.17.772-.412 1.065-.73.248-.293.439-.643.574-1.048.137-.406.203-.834.203-1.286 0-.854-.152-1.645-.457-2.367a6.001 6.001 0 00-1.301-1.928 5.767 5.767 0 00-.846-.693 9.328 9.328 0 00-.896-.541 11.198 11.198 0 00-.729-.354 8.6 8.6 0 01-.371-.17L-.205-4.903c.25.09.525.209.83.354.305.147.592.327.861.541.271.215.496.469.678.763.18.293.281.631.305 1.014-.653 0-1.229.191-1.727.576C.248-1.273 0-.72 0 0m7.867 0c0 .295.057.589.168.881.113.294.283.558.508.795.227.236.502.429.828.574.328.146.692.221 1.1.221a3.45 3.45 0 001.302-.253c.418-.17.772-.412 1.065-.73.25-.293.441-.643.576-1.048.135-.406.203-.834.203-1.286 0-.854-.152-1.645-.457-2.367a6.034 6.034 0 00-1.303-1.928 5.682 5.682 0 00-.848-.693 8.089 8.089 0 00-.896-.541 11.202 11.202 0 00-.728-.354 10.06 10.06 0 01-.371-.17L7.66-4.903c.248.09.523.209.828.354.305.147.592.327.863.541.27.215.496.469.676.763.182.293.283.631.305 1.014-.654 0-1.229.191-1.725.576-.492.382-.74.935-.74 1.655" fill="#fff" fill-opacity="1" fill-rule="nonzero" stroke="none"/></g></g></g></g></svg>