<svg xmlns="http://www.w3.org/2000/svg" viewBox="0 0 42.667 26.667" height="20" width="32" xml:space="preserve" id="svg2" version="1.1"><symbol id="subtitles" viewBox="0 0 41 27"><defs id="defs6"><clipPath id="clipPath18" clipPathUnits="userSpaceOnUse"><path id="path16" d="M0 20h32V0H0z"/></clipPath></defs><g transform="matrix(1.33333 0 0 -1.33333 0 26.667)" id="g10"><g id="g12"><g clip-path="url(#clipPath18)" id="g14"><g transform="translate(23.1 4.146)" id="g20"><path id="path22" d="M0 0a8.618 8.618 0 00-1.678-.164 5.98 5.98 0 00-1.975.323A4.221 4.221 0 00-5.299 1.2c-.473.48-.851 1.103-1.133 1.868-.281.767-.421 1.696-.421 2.786 0 1.134.158 2.085.471 2.851.315.768.723 1.384 1.223 1.854a4.528 4.528 0 001.68 1.007 5.829 5.829 0 001.85.307c.661 0 1.221-.045 1.678-.134a6.05 6.05 0 001.133-.313L.735 9.508a3.269 3.269 0 01-.901.264 8.253 8.253 0 01-1.265.082c-.915 0-1.649-.325-2.206-.976-.557-.651-.836-1.663-.836-3.031 0-.598.068-1.142.2-1.632.131-.493.334-.913.602-1.26a2.77 2.77 0 011.009-.811c.402-.194.868-.29 1.396-.29.497 0 .915.048 1.257.148.342.099.64.227.894.38L1.348.541C.995.29.546.109 0 0m-8.697 0a8.618 8.618 0 00-1.678-.164c-.694 0-1.354.107-1.976.323A4.218 4.218 0 00-13.996 1.2c-.474.48-.852 1.103-1.133 1.868-.281.767-.421 1.696-.421 2.786 0 1.134.157 2.085.471 2.851.315.768.723 1.384 1.224 1.854a4.529 4.529 0 001.678 1.007 5.836 5.836 0 001.852.307c.66 0 1.22-.045 1.678-.134a6.081 6.081 0 001.132-.313l-.446-1.918a3.297 3.297 0 01-.902.264 8.244 8.244 0 01-1.265.082c-.915 0-1.649-.325-2.206-.976-.558-.651-.836-1.663-.836-3.031 0-.598.067-1.142.199-1.632.132-.493.334-.913.603-1.26.27-.349.607-.619 1.01-.811.402-.194.867-.29 1.396-.29.496 0 .915.048 1.257.148.342.099.639.227.892.38L-7.35.541C-7.702.29-8.151.109-8.697 0M5.899 15.854h-26c-1.65 0-3-1.349-3-3v-14c0-1.65 1.35-3 3-3h26c1.651 0 3 1.35 3 3v14c0 1.651-1.349 3-3 3" fill="currentColor" fill-opacity="1" fill-rule="nonzero" stroke="none"/></g></g></g></g></symbol></svg>