<svg xmlns="http://www.w3.org/2000/svg" viewBox="0 0 24 24" height="18" width="18" xml:space="preserve" id="svg2" version="1.1"><defs id="defs6"><clipPath id="clipPath18" clipPathUnits="userSpaceOnUse"><path id="path16" d="M0 18h18V0H0z"/></clipPath></defs><g transform="matrix(1.33333 0 0 -1.33333 0 24)" id="g10"><g id="g12"><g clip-path="url(#clipPath18)" id="g14"><g transform="translate(3.6 10.2)" id="g20"><path id="path22" d="M0 0c1.4-2.8 3.8-5.101 6.6-6.601L8.8-4.4c.3.299.7.4 1 .2 1.1-.401 2.3-.6 3.6-.6.6 0 1-.4 1-1v-3.4c0-.6-.4-1-1-1-9.4 0-17 7.599-17 17 0 .6.4 1 1 1H.9c.6 0 1-.4 1-1 0-1.2.2-2.4.6-3.6.1-.3 0-.7-.2-1z" fill="#010101" fill-opacity="1" fill-rule="nonzero" stroke="none"/></g></g></g></g></svg>