<svg xmlns="http://www.w3.org/2000/svg" viewBox="0 0 25 21"><symbol id="twitter" viewBox="0 0 25 21"><defs><style/></defs><path id="canvas_background" fill="none" d="M-1-1h30v27H-1z"/><g transform="matrix(.22945 0 0 .20369 7.375 9.228)"><g id="Layer_x0020_1" transform="matrix(.07394 0 0 .07963 738.387 416.734)"><path d="M-8939.26-5500.644a590.916 590.916 0 0081.424-28.965c5.089-2.882 11.578-2.86 16.774.604 7.352 4.9 9.338 14.835 4.438 22.187-20.685 31.027-44.206 60.191-70.231 87.147a624.964 624.964 0 01-77.934 68.335l.686 29.4c.064.574.096 1.16.096 1.753 0 219.372-90.23 456.91-262.303 628.96-146.659 146.634-352.59 245.781-612.569 245.781-85.24 0-167.653-12.26-245.685-35.106-80.425-23.545-156.005-58.301-225.06-102.426-5.515-3.023-8.953-9.162-8.216-15.8.975-8.78 8.886-15.112 17.667-14.137l-.003.028a642.725 642.725 0 0034.868 2.932c11.22.63 22.943.952 35.245.952 67.695 0 132.743-11.29 193.322-32.105a590.671 590.671 0 00138.018-68.698c-51.963-8.199-99.746-28.9-140.145-58.945-52.287-38.883-92.238-93.414-112.93-156.721a15.931 15.931 0 01-.959-9.138c1.639-8.684 10.007-14.394 18.69-12.756l-.007.04a286.587 286.587 0 0026.816 3.78c8.58.792 17.657 1.183 27.268 1.183 3.171 0 6.319-.048 9.44-.14-45.412-20.434-85.202-51.216-116.333-89.34-44.81-54.873-71.729-124.92-71.729-201.182v-3.605a15.928 15.928 0 011.99-7.804c4.266-7.737 13.999-10.55 21.736-6.284l-.013.023c19.906 10.975 41.079 19.785 63.23 25.904a279.932 279.932 0 0012.023 3.036 318.899 318.899 0 01-59.271-78.554c-23.92-44.7-37.511-95.717-37.511-149.707 0-28.651 3.803-56.534 10.958-83.087a313.09 313.09 0 0131.492-75.633 15.935 15.935 0 014.377-5.607c6.847-5.585 16.927-4.563 22.512 2.284l-12.398 10.114 12.374-10.062c74.385 91.192 167.312 166.44 273.078 220.027 96.617 48.95 203.922 79.82 317.564 88.258a323.481 323.481 0 01-2.03-14.703c-1.394-12.168-2.13-24.448-2.13-36.834 0-87.732 35.604-167.201 93.138-224.734 57.534-57.534 137.003-93.137 224.734-93.137 44.647 0 87.375 9.343 126.195 26.136 37.483 16.216 71.177 39.35 99.296 67.692a583.846 583.846 0 0088.042-25.84 589.472 589.472 0 0089.849-43.277 15.976 15.976 0 0113.89-1.962c8.406 2.723 13.01 11.748 10.287 20.154l-.047-.015c-12.013 37.05-30.456 71.093-54.043 100.759a319.234 319.234 0 01-31.693 34.363 575.528 575.528 0 0021.723-5.526v-.002z" id="svg_1" fill="currentColor" fill-rule="nonzero"/></g></g></symbol></svg>