<svg xmlns="http://www.w3.org/2000/svg" viewBox="0 0 101.555 91.945" height="100%" width="100%" xml:space="preserve" id="svg2" version="1.1"><defs id="defs6"><clipPath id="clipPath18" clipPathUnits="userSpaceOnUse"><path id="path16" d="M0 68.959h76.166V0H0z"/></clipPath></defs><g transform="matrix(1.33333 0 0 -1.33333 0 91.945)" id="g10"><g id="g12"><g clip-path="url(#clipPath18)" id="g14"><g transform="translate(73.166 15.21)" id="g20"><path id="path22" d="M0 0c0-.679-.573-1.252-1.252-1.252h-67.662c-.679 0-1.252.573-1.252 1.252v3.454c0 .679.573 1.252 1.252 1.252h67.662C-.573 4.706 0 4.133 0 3.454zm-5.208-5.289c0-3.815-3.104-6.922-6.921-6.922h-45.908c-3.816 0-6.921 3.105-6.921 6.922v1.037h59.75zm3.956 12.995h-67.662a4.265 4.265 0 01-4.252-4.252V0a4.265 4.265 0 014.252-4.252h.956v-1.037c0-5.457 4.464-9.922 9.921-9.922h45.908c5.456 0 9.921 4.465 9.921 9.922v1.037h.956A4.265 4.265 0 013 0v3.454a4.264 4.264 0 01-4.252 4.252" fill="#81b3d2" fill-opacity="1" fill-rule="nonzero" stroke="none"/></g><g transform="translate(16.162 31.102)" id="g24"><path id="path26" d="M0 0l5.473-4 5.477 4 5.479-4 5.478 4 5.479-4 5.478 4 5.479-4 5.48 4 5.489-4L55.68.645l-1.768 2.423-4.6-3.355-5.489 3.999-5.48-3.999-5.479 4-5.478-4-5.479 4-5.478-4-5.479 4-5.476-4L.001 3.714-5.476-.287l-4.593 3.354-1.77-2.421L-5.476-4z" fill="#81b3d2" fill-opacity="1" fill-rule="nonzero" stroke="none"/></g><g transform="translate(38.083 65.959)" id="g28"><path id="path30" d="M0 0c16.031 0 29.15-11.154 29.842-25.094h-59.684C-29.15-11.154-16.032 0 0 0m32.805-28.094c.041.61.054 2.616.037 3C32.159-9.476 17.721 3 0 3-17.72 3-32.159-9.476-32.842-25.094c-.017-.384-.004-2.389.039-3z" fill="#81b3d2" fill-opacity="1" fill-rule="nonzero" stroke="none"/></g><g transform="translate(38.083 55.917)" id="g32"><path id="path34" d="M0 0a2 2 0 10-.001-4.001A2 2 0 000 0" fill="#81b3d2" fill-opacity="1" fill-rule="nonzero" stroke="none"/></g><g transform="translate(30.083 60.876)" id="g36"><path id="path38" d="M0 0a2 2 0 10-.001-4.001A2 2 0 000 0" fill="#81b3d2" fill-opacity="1" fill-rule="nonzero" stroke="none"/></g><g transform="translate(46.083 60.876)" id="g40"><path id="path42" d="M0 0a2 2 0 10-.001-4.001A2 2 0 000 0" fill="#81b3d2" fill-opacity="1" fill-rule="nonzero" stroke="none"/></g></g></g></g></svg>