<svg width="17" height="30" xmlns="http://www.w3.org/2000/svg"><path fill="none" id="canvas_background" d="M-1-1h19v32H-1z"/><g transform="matrix(.47057 0 0 .38697 -1.393 2.452)"><g transform="matrix(.03667 0 0 .04516 -8.383 8.577)" id="Layer_x0020_1"><path id="svg_1" d="M412.293 275.553H592.56V46.22c0-.7.045-1.39.132-2.067 3.715-70.48 17.96-134.177 50.795-180.936 34.057-48.502 87.01-78.331 167.06-78.331h288.683c8.836 0 16 7.164 16 16V32.042c0 8.836-7.164 16-16 16H985.27c-29.394 0-51.449 4.503-65.756 16.317l-10.187-12.312 10.187 12.338c-.31.255-.626.495-.947.724-13.261 11.504-20.737 30.839-22.362 60.738h.023v149.705h203c8.835 0 16 7.165 16 16v245.334c0 8.836-7.165 16-16 16h-203v720.001c0 8.836-7.165 16-16 16h-271.67c-8.836 0-16-7.164-16-16v-720H412.293c-8.836 0-16-7.165-16-16.001V291.553c0-8.836 7.164-16 16-16z" fill="#3b5998" fill-rule="nonzero"/></g><path stroke="null" id="svg_2" fill="none" d="M1-3h15v70H1z"/></g></svg>