<svg version="1.0" xmlns="http://www.w3.org/2000/svg" viewBox="0 0 75 69"><symbol id="like-icon" viewBox="0 0 75 69"><path d="M332 537L230 435V267c0-97 4-177 10-188 10-18 23-19 174-19 143 0 165 2 178 18 32 35 108 235 108 283 0 70-15 79-140 79H457l7 38c16 84 18 120 7 141-7 11-17 21-24 21s-58-46-115-103zm68-73c-7-32-15-64-17-71-4-10 24-13 126-13h131v-28c0-15-20-75-44-132l-44-105-131-3-131-3v305l57 58c31 32 59 56 61 54 2-3-2-31-8-62zM50 235V60h120v350H50V235z" transform="matrix(.1 0 0 -.1 0 69)" fill="currentColor"/></symbol></svg>