<svg xmlns="http://www.w3.org/2000/svg" viewBox="0 0 32 31" height="22" width="24" xml:space="preserve" id="svg2" version="1.1"><symbol id="like-icon" viewBox="0 0 32 31"><defs id="defs6"><clipPath id="clipPath18" clipPathUnits="userSpaceOnUse"><path id="path16" d="M0 22.381h24V0H0z"/></clipPath></defs><g transform="matrix(1.33333 0 0 -1.33333 0 29.842)" id="g10"><g id="g12"><g clip-path="url(#clipPath18)" id="g14"><g transform="translate(23 12)" id="g20"><path id="path22" d="M0 0v-.044zm-18 1h-4v-12h4zm9.2 8l-6.6-6.6c-.4-.3-.6-.8-.6-1.4V-9c0-1.1.9-2 2-2h9c.8 0 1.5.5 1.8 1.2l3 7.1c.1.2.1.5.1.7v2H0c0 1.1-.9 2-2 2h-6.3l1 4.6v.3c0 .4-.2.8-.4 1.1zM-20-1v-8 8m10.383 6.354l-.637-2.929L-10.781 0H-2.1v-2l.001-.058L-5-9h-9V.971l.014.015 4.369 4.368" fill="currentColor" fill-opacity="1" fill-rule="nonzero" stroke="none"/></g></g></g></g></symbol></svg>