<svg xmlns="http://www.w3.org/2000/svg" height="128.567" width="248.857" xml:space="preserve" id="svg2" version="1.1"><defs id="defs6"><clipPath id="clipPath18" clipPathUnits="userSpaceOnUse"><path id="path16" d="M0 96.425h186.643V0H0z"/></clipPath></defs><g transform="matrix(1.33333 0 0 -1.33333 0 128.567)" id="g10"><g id="g12"><g clip-path="url(#clipPath18)" id="g14"><g transform="translate(186.643 96.425)" id="g20"><path id="path22" d="M0 0h-186.643l80.487-90.474c7.06-7.936 18.61-7.936 25.67 0z" fill="#81b3d3" fill-opacity="1" fill-rule="nonzero" stroke="none"/></g><g transform="translate(43.242 95.704)" id="g24"><path id="path26" d="M0 0l49.522-58.35L98.847-.353z" fill="#23a9e1" fill-opacity="1" fill-rule="nonzero" stroke="none"/></g><g transform="translate(122.022 79.093)" id="g28"><path id="path30" d="M0 0l-15.187-.084C-9.186 6.847-6.489 6.106 0 0" fill="#fff" fill-opacity="1" fill-rule="nonzero" stroke="none"/></g><g transform="translate(80.849 73.735)" id="g32"><path id="path34" d="M0 0h26.68c-1.986 1.233-6.708 7.059-9.308 4.893-.212-.178-7.505 8.848-12.296 4.499-4.179-3.799-6.12.498-10.857-2.511C-11.18 3.311-2.661 1.206 0 0" fill="#fff" fill-opacity="1" fill-rule="nonzero" stroke="none"/></g><g transform="translate(137.107 90.882)" id="g36"><path id="path38" d="M0 0v3.75h3.203zm-75.858-14.494l.14-.13c.035.038 3.583 3.869 9.215 7.648C-61.316-3.497-53.268.639-44.347.59c8.901-.043 17.064-4.193 22.346-7.667 5.646-3.712 9.284-7.456 9.446-7.625l-3.875-4.536c-6.912-.949-11.863-6.077-18.603-4.956-3.396.564-3.498 2.514-4.469 4.456-.746 1.493-1.936 1.303-3.487 1.91-1.443.565-2.278 1.738-5.162 1.061-2.529-.593-2.807-4.518-5.953-4.293-1.689.121-1.81 2.497-4.244 5.539-6.301 7.571-12.158 6.523-16.247-.475l30.251-35.938zM-88.745 3.75V.814l-2.471 2.936zm82.992 0h4.97V-.918l-4.97-5.818zM-12-13.897V3.75h5.463V-7.655l-5.393-6.313a1.49 1.49 0 01-.07.071m-.782 16.004v-15.241a63.244 63.244 0 01-5.479 4.6zm-6.416.552V-7.845a64.432 64.432 0 01-2.256 1.558 57.371 57.371 0 01-3.381 2.065zm-6.642.204v-6.532a50.577 50.577 0 01-4.806 2.272zm.783.887h5.74l-5.74-7.008zm6.641 0h5.599l-5.599-10.876zm-13.55 0h5.945l-5.435-4.818c-.168.065-.341.125-.511.188v4.63zm-.784-.642V-.593A39.937 39.937 0 01-37.525.773zm-6.475-.065v-1.94a33.056 33.056 0 01-3.356.388zm-10.423.06l3.464-1.604a31.991 31.991 0 01-3.464-.39zm-6.347.005L-51.272.8a38.627 38.627 0 01-4.723-1.347zm5.563-1.847l-5.091 2.489h5.091zm5.492.526l-4.242 1.963h4.242zm.938 1.963h4.439l-4.439-2.055zm5.791 0h4.99l-4.99-2.439zM-57.33-1.042l-5.406 4.792h5.959V-.833c-.185-.07-.37-.138-.553-.209m-5.573 3.893l4.764-4.223a48.502 48.502 0 01-4.764-2.293zm-6.643-.197l5.608-6.9a55.303 55.303 0 01-5.608-3.715zm-6.416-.551l5.524-10.744c-2.753-2.14-4.692-4.012-5.524-4.854zm5.633-9.243l-5.599 10.89h5.599zm6.641 3.828l-5.739 7.062h5.739zM-82.991-6.02l-4.971 5.904V3.75h4.971zm.783 9.77h5.462v-17.191l-5.462 6.489zm38.204 1.777h-50.92v-22.463l50.581-61.522.339.423L6.744-17.641V5.527z" fill="#491213" fill-opacity="1" fill-rule="nonzero" stroke="none"/></g><g transform="translate(88.745 25.51)" id="g40"><path id="path42" d="M0 0l4.02 6.5L8.023 0 4.02-6.515z" fill="#23a9e1" fill-opacity="1" fill-rule="nonzero" stroke="none"/></g><g transform="translate(65.464 64.16)" id="g44"><path id="path46" d="M0 0c.513-.618.891-1.284.806-2.116-.059-.579-.936-1.55-.27-1.846l2.242 2.834c-.601.151-5.365 5.848-5.442 6.472L-5.823 3.61c.164-.661 1.294-.005 1.854-.046.828-.06 1.425-.56 1.953-1.152-1.727-1.449-5.93-5.017-6.374-5.09-.225-.036-1.088.601-1.1.056-.006-.262.851-1.014 1.014-1.21l2.229-2.653c.619.282-.11.732.205 1.243C-5.811-4.868-1.141-.975 0 0" fill="#fff" fill-opacity="1" fill-rule="nonzero" stroke="none"/></g><g transform="translate(60.19 71.14)" id="g48"><path id="path50" d="M0 0c.443.095.624-.434.958.056l-2.449 2.917c-.371.442-.84.916-.706-.018.089-.63-6.114-5.664-6.493-5.82-.479-.197-.758.417-1.11-.097.732-.869 1.461-1.739 2.194-2.608.246-.292.476-.612.747-.882.338-.339.208.672.223.585-.091.513.528.948.856 1.228C-4.234-3.278-.382-.051 0 0" fill="#fff" fill-opacity="1" fill-rule="nonzero" stroke="none"/></g><g transform="translate(51.42 72.057)" id="g52"><path id="path54" d="M0 0c-1.767-.523-3.65.164-4.207 2.042-.543 1.835.614 3.757 2.071 4.801 1.44 1.032 3.589.97 4.373-.838.346-.799.159-1.706-.093-2.502-.161-.506-.597-1 .055-1.289L4.78 5.5c-1.054.633-1.517 1.683-2.3 2.595-.881 1.071-2.064 2.079-3.482 2.284-2.87.406-5.574-2.556-5.795-5.245-.136-1.457.374-2.848 1.246-4.001.75-.994 1.868-1.623 2.435-2.754C-2.854-1.716-.411-.588.17-.366.118-.255.081-.091 0 0c-.761-.226 0 0 0 0" fill="#fff" fill-opacity="1" fill-rule="nonzero" stroke="none"/></g><g transform="translate(90.72 35.648)" id="g56"><path id="path58" d="M0 0c-1.15.768-4.025 4.689-4.573 5.341l-.329.391c-.011.014-.285-.224-.246-.191-.173-.145.133-.573-.052-.864-.793-1.241-5.758-4.984-6.016-5.163-.555-.384-1.164.159-1.489-.317.719-.853 2.78-3.543 3.018-3.582.48-.078.149.816.211 1 .123.369 2.633 2.446 3.549 3.211.336.281.688-.426.888-.722.327-.485.474-1 .298-1.569-.116-.37-.717-.92-.25-1.174L-2.378-.59c.252.293-.566.037-.469.087-.37-.191-.717-.235-1.063.028C-4.006-.403-4.999.607-4.9.691c.43.362.959.963 1.516 1.1.863.213 1.582-1.516 1.709-2.129a3.451 3.451 0 00-.076-1.75c-.124-.387-.487-.696.018-.93.712.974 1.421 1.947 2.13 2.92A.714.714 0 000 0c-.127.085.139-.07 0 0" fill="#fff" fill-opacity="1" fill-rule="nonzero" stroke="none"/></g><g transform="translate(80.031 44.532)" id="g60"><path id="path62" d="M0 0c-.647-1.51-2.201-3.063-3.732-3.667-1.819-.715-3.1.827-2.361 2.553.651 1.515 2.203 3.056 3.738 3.666C-.504 3.287.711 1.706 0 0c-.382-.89.07.169 0 0m.465-4.753C2.67-2.897 2.947.3 1.233 2.586-.634 5.075-4.138 5.682-6.57 3.638c-2.204-1.854-2.49-5.047-.758-7.325C-5.338-6.308-2.13-6.604.465-4.753c1.155.975-.1-.07 0 0" fill="#fff" fill-opacity="1" fill-rule="nonzero" stroke="none"/></g><g transform="translate(74.052 54.388)" id="g64"><path id="path66" d="M0 0c.475-.06.926-.55 1.269-.042L-.959 2.595c-.595-.269.047-.549-.194-.971-.244-.427-2.56-.781-3.176-.89.224.644.894 2.615 1.157 2.835.544.445.883-.432 1.283.141l-2.743 3.253c-.309.366-.558 1.028-.98.68.038.031.006-1.472-.089-1.733-.086-.236-.936-3.638-1.926-4.47-.493-.414-2.237-1.934-2.702-2.097-.541-.189-.825.598-1.22.038l2.491-2.957c.125-.148.602-.863.767-.893.521-.094.06.893.113 1.086.152.431 2.5 2.719 3.497 2.859C-3.22-.319-1.481.178 0 0c.339-.042-.352.043 0 0" fill="#fff" fill-opacity="1" fill-rule="nonzero" stroke="none"/></g><g transform="translate(67.792 73.551)" id="g68"><path id="path70" d="M0 0c-4.043.167-2.351 3.954.395 4.808 2.611.813 8.088-1.717 9.842-3.398C7.454.555 3.852.678.79.536.564 3.656-.167 2.568 0 0" fill="#dc6243" fill-opacity="1" fill-rule="nonzero" stroke="none"/></g><g transform="translate(77.295 61.002)" id="g72"><path id="path74" d="M0 0c-8.62.071-2.792 13.322.141 12.521C3.514 11.448 3.136-.101 0 0" fill="#dc6243" fill-opacity="1" fill-rule="nonzero" stroke="none"/></g><g transform="translate(83.4 65.332)" id="g76"><path id="path78" d="M0 0c-.84-2.501-2.361-2.968-2.192.07.194 3.503 2.478 2.662 4.929 4.004 2.04 1.119 3.139 5.214 6.641 2.765 1.561-1.093 3.351-.179 3.851-1.833-.026.084-4.545-10.308-2.032-10.308-4.961 0-2.773 5.922-.874 9.899-1.846-.885-4.842-6.688-2.382-7.643C6.66-4.732 2.747-6.991.707-5.344-.843-4.095.018-2.019 0 0" fill="#dc6243" fill-opacity="1" fill-rule="nonzero" stroke="none"/></g><g transform="translate(87.505 55.728)" id="g80"><path id="path82" d="M0 0c-3.489-1.046-8.122 1.207-2.51 2.34C.973 3.044 4.677 1.562 0 0c.141.042-.128-.043 0 0" fill="#dc6243" fill-opacity="1" fill-rule="nonzero" stroke="none"/></g><g transform="translate(91.875 55.87)" id="g84"><path id="path86" d="M0 0c-.736 1.658.562 3.635 2.68 2.199C4.526.947 1.829-.907 0 0" fill="#dc6243" fill-opacity="1" fill-rule="nonzero" stroke="none"/></g><g transform="translate(88.929 51.201)" id="g88"><path id="path90" d="M0 0c-2.411.747-10.537.561-5.218 2.764C-3.578 3.443 4.937 2.666 0 0" fill="#dc6243" fill-opacity="1" fill-rule="nonzero" stroke="none"/></g><g transform="translate(99.362 47.887)" id="g92"><path id="path94" d="M0 0c-1.437 1.227-2.891 1.295-4.229 0-1.795 3.293-8.319 2.19-11.367 2.651C-13.956-1.377-.73-2.129 0 0" fill="#dc6243" fill-opacity="1" fill-rule="nonzero" stroke="none"/></g><g transform="translate(97.46 45.463)" id="g96"><path id="path98" d="M0 0c-3.151.146-6.671.563-9.646-.084 1.86-.466 6.395-1.795 2.171-2.918 1.515-2.168 3.973-2.029 5.584-.127-.655.322-1.009.719-1.551 1.057C-1.771-1.769-.208-.805 0 0" fill="#dc6243" fill-opacity="1" fill-rule="nonzero" stroke="none"/></g><g transform="translate(101.056 49.34)" id="g100"><path id="path102" d="M0 0c-5.288 3.112-3.95 5.427.354 7.586 2.253 1.131 7.324 5.208 9.447 3.85L0 0" fill="#dc6243" fill-opacity="1" fill-rule="nonzero" stroke="none"/></g><g transform="translate(97.291 56.616)" id="g104"><path id="path106" d="M0 0c-4.479 4.601 6.689 4.178 8.487 5.796 1.311-.437 10.768 8.283 13.072 7.741-1.656-1.941-5.22-8.136-7.776-8.136-1.964 0-3.95.292-5.471-1.107C6.087 2.246 2.402 1.204 0 0" fill="#f49774" fill-opacity="1" fill-rule="nonzero" stroke="none"/></g><g transform="translate(98.758 62.242)" id="g108"><path id="path110" d="M0 0c-2.453-1.319-4.772 3.907-.537 3.398 2.813-.338 5.662.237 8.348-.226C5.884.881 3.104-.381 0 0" fill="#f4b1a4" fill-opacity="1" fill-rule="nonzero" stroke="none"/></g><g transform="translate(111.39 43.959)" id="g112"><path id="path114" d="M0 0c.191-.648.299-1.332.215-2.009-.108-.873-.979-2.925-2.173-2.34-1.169.574-2.194 1.728-3.188 2.552.802.936 1.507 1.749 2.854 1.295.37-.123.688.036.299.262-.405.234-3.114 1.965-3.261 1.799-.27-.311.528-.869.221-1.473-.229-.447-.611-.834-.932-1.219-.72.608-1.923 1.253-1.056 2.256.542.66 1.25 1.172 2.097 1.342.566.114 1.841-.389 2.006.223l-3.258 1.565c.177-.799-3.348-4.524-4.131-5.464-.113-.137-.658-.609-.664-.797-.008-.429.622-.096.658-.084.486.18 6.816-5.109 6.972-5.471.1-.281-.221-.574-.029-.732-.011.01.227-.216.253-.184.39.468 4.522 5.975 5.374 6.217C1.463-1.047.669.168-.111 1.391-.701 1.133-.13.442 0 0" fill="#fff" fill-opacity="1" fill-rule="nonzero" stroke="none"/></g><g transform="translate(105.228 37.256)" id="g116"><path id="path118" d="M0 0c-2.077 1.34-5.596-1.279-6.125-1.531-1.039-.492-1.789.543-1.251 1.502.469.83 1.393 1.234 2.31 1.289.277.016 1.349-.198 1.459-.027.129.203.227.22.042.345l-2.568 1.735C-6.309 2.258-7.518 1.586-8.209.871c-.823-.854-1.52-1.93-1.52-3.156 0-1.135.679-2.142 1.677-2.66 1.136-.592 2.318-.117 3.324.51.627.392 1.254.857 1.924 1.171.996.467 2.304.063 1.953-1.269-.282-1.073-1.35-2.061-2.405-2.34-.616-.164-1.269-.109-1.872.09-.432.141-.993.734-1.23.111l3.482-2.537c.103.76.522 1.09 1.086 1.564C-1.055-7-.352-6.324.204-5.515 1.364-3.82 1.743-1.451 0 0" fill="#fff" fill-opacity="1" fill-rule="nonzero" stroke="none"/></g><g transform="translate(105.228 37.256)" id="g120"><path id="path122" d="M0 0c.925-.598-.591.494 0 0" fill="#fff" fill-opacity="1" fill-rule="nonzero" stroke="none"/></g><g transform="translate(134.462 74.57)" id="g124"><path id="path126" d="M0 0c-.007-.004-.007-.004 0 0" fill="#fff" fill-opacity="1" fill-rule="nonzero" stroke="none"/></g><g transform="translate(134.546 74.624)" id="g128"><path id="path130" d="M0 0c.077.049.153.098 0 0a2.533 2.533 0 01-.084-.054l.082.052A5.722 5.722 0 01-.96-.763c-.521.897-1.044 1.795-1.564 2.693C-1.348 1.439-.173.945 1 .449A3.735 3.735 0 010 0m7.374 2.156c-.729-.729-8.42 2.341-8.982 2.764-.29.116-.3 1.321-.705.833L-3.529 4.29l-1.256-1.513c-.26-.314-.537-.458-.038-.72.837.419 5.417-7.346 5.008-8.461C-.54-6.78-6.73-1.347-6.896-.989c-.052.146.273 1.021-.211.945-.229-.036-.744-.896-.889-1.072l-.889-1.072c.332-.485.517.021.959-.042.383-.077 1.844-1.331 2.241-1.664-.724-.027-2.684-.131-2.933-.113-.903-.112-.422.663-1.015.931L-11.91-5.84l-1.326-1.607c-.054-.065-.047-.032.049-.112.331-.273.105-.168.569-.006.506.177 6.558-4.931 6.776-5.19.377-.45-.154-.975.411-1.221l1.798 2.184c.091.11.141.1.021.198-.427.353-.476-.212-1.002-.154-.533.089-4.395 3.369-5.895 4.61l8.199.304c.3.011 1.139-.896 1.069-1.216-.081-.378-.463-.558.053-.794.48.575.986 1.149 1.457 1.734l.226.282a.74.74 0 01.21.265l.168.211c.425.485 1.8 2.006 1.635 2.15-.461.4-.685-.466-1.298.054C.862-3.899-.013-2.36-.233-1.986c-.264.449.608.897.963 1.119.777.482 3.248 1.183 3.483-.348.04-.258-.271-.55-.084-.704.044-.037.204-.242.269-.163.164.197 2.362 2.843 3.3 3.969-.098.082-.207.224-.324.269" fill="#fff" fill-opacity="1" fill-rule="nonzero" stroke="none"/></g><g transform="translate(124.52 56.8)" id="g132"><path id="path134" d="M0 0l-.026-.027c-1.233-1.292-3.359-.096-4.505.731-1.147.829-3.112 2.57-1.857 4.104 1.056 1.287 3.124.231 4.192-.482C-.996 3.523 1.216 1.73.08.11.154.2.206.258 0 0m.281 6.614c-2.375 1.979-5.63 1.404-7.586-.832-1.903-2.312-1.712-5.663.606-7.615 2.339-1.926 5.67-1.438 7.572.846C2.771 1.316 2.641 4.681.281 6.614" fill="#fff" fill-opacity="1" fill-rule="nonzero" stroke="none"/></g><g transform="translate(124.8 63.413)" id="g136"><path id="path138" d="M0 0c1.171-.959-.253.211 0 0" fill="#fff" fill-opacity="1" fill-rule="nonzero" stroke="none"/></g><g transform="translate(124.492 56.773)" id="g140"><path id="path142" d="M0 0l.026.027c.03.037.056.073.08.11C.057.076-.005 0 0 0" fill="#fff" fill-opacity="1" fill-rule="nonzero" stroke="none"/></g><g transform="translate(116.89 47.535)" id="g144"><path id="path146" d="M0 0c-.24-.296-.044-.054-.665-.65-.306-.293-6.438 4.675-6.192 4.944.835.918 2.567 1.556 3.577 1.297C-1.09 5.031 1.934 2.331 0 0m1.318 6.754c.113-.094.274-.224-.063.057-2.835 2.127-6.194 1.504-8.402-1.157a2327.56 2327.56 0 01-2.961-3.567c.35-.512.762.118 1.273-.176.436-.25 6.244-5.1 6.339-5.366.164-.458-.255-.548.143-.875.172-.143 4.537 5.245 4.935 6.191.691 1.755.141 3.678-1.264 4.893" fill="#fff" fill-opacity="1" fill-rule="nonzero" stroke="none"/></g></g></g></g></svg>