<svg xmlns="http://www.w3.org/2000/svg" height="111.979" width="135.557" xml:space="preserve" id="svg2" version="1.1"><defs id="defs6"><clipPath id="clipPath26" clipPathUnits="userSpaceOnUse"><path id="path24" d="M0 83.984h101.668V0H0z"/></clipPath></defs><g transform="matrix(1.33333 0 0 -1.33333 0 111.979)" id="g10"><g transform="translate(0 83.984)" id="g12"><path id="path14" d="M0 0l50.581-59.053L101.668 0z" fill="#23a9e1" fill-opacity="1" fill-rule="nonzero" stroke="none"/></g><g transform="translate(0 83.984)" id="g16"><path id="path18" d="M0 0v-22.462l50.582-61.522.338.424 50.748 60.394V0zm3.708-1.776h94.418L50.919-57.05l-.338-.411z" fill="#491213" fill-opacity="1" fill-rule="nonzero" stroke="none"/></g><g id="g20"><g clip-path="url(#clipPath26)" id="g22"><g transform="translate(50.581 26.523)" id="g28"><path id="path30" d="M0 0l.338.41 27.576 32.287c-6.912-.949-11.863-6.076-18.604-4.955-3.396.563-3.498 2.513-4.469 4.455-.746 1.493-1.939 1.303-3.487 1.91-1.443.564-2.277 1.738-5.162 1.06-2.528-.591-2.808-4.517-5.953-4.292-1.688.121-1.81 2.498-4.244 5.539-6.301 7.571-12.157 6.523-16.245-.475z" fill="#491213" fill-opacity="1" fill-rule="nonzero" stroke="none"/></g><g transform="translate(23.28 51.736)" id="g32"><path id="path34" d="M0 0c.513-.618.892-1.284.806-2.116-.06-.579-.937-1.55-.271-1.847l2.242 2.834c-.601.151-5.365 5.849-5.441 6.473-1.053-.578-2.107-1.156-3.159-1.735.164-.66 1.295-.005 1.854-.046.828-.059 1.424-.559 1.953-1.151-1.729-1.449-5.931-5.017-6.375-5.09-.226-.037-1.088.601-1.101.055-.007-.262.852-1.014 1.014-1.209.744-.885 1.486-1.771 2.229-2.652.619.281-.108.73.205 1.242C-5.81-4.867-1.14-.976 0 0" fill="#fff" fill-opacity="1" fill-rule="nonzero" stroke="none"/></g><g transform="translate(18.007 58.715)" id="g36"><path id="path38" d="M0 0c.442.095.623-.434.957.056-.814.973-1.633 1.945-2.447 2.918-.372.441-.841.916-.707-.019.089-.63-6.114-5.664-6.493-5.819-.479-.198-.758.416-1.109-.098l2.193-2.607c.246-.293.477-.613.747-.883.338-.339.208.672.224.586-.092.512.527.947.855 1.227C-4.235-3.278-.383-.051 0 0" fill="#fff" fill-opacity="1" fill-rule="nonzero" stroke="none"/></g><g transform="translate(9.235 59.632)" id="g40"><path id="path42" d="M0 0c-1.768-.523-3.649.164-4.207 2.042-.543 1.835.614 3.757 2.071 4.802 1.439 1.031 3.589.969 4.373-.838.346-.8.158-1.707-.094-2.503-.161-.506-.598-1 .056-1.288L4.78 5.5c-1.055.633-1.518 1.684-2.301 2.596-.881 1.07-2.063 2.078-3.481 2.283-2.87.406-5.574-2.556-5.795-5.244-.137-1.457.374-2.849 1.246-4.002.75-.994 1.867-1.623 2.436-2.754C-2.854-1.716-.411-.588.17-.365.118-.255.081-.091 0 0c-.761-.226 0 0 0 0" fill="#fff" fill-opacity="1" fill-rule="nonzero" stroke="none"/></g><g transform="translate(48.536 23.225)" id="g44"><path id="path46" d="M0 0c-1.15.768-4.025 4.689-4.574 5.34-.108.131-.22.262-.328.392-.012.016-.284-.224-.246-.189-.174-.147.134-.574-.053-.865-.793-1.239-5.759-4.981-6.017-5.162-.554-.385-1.164.158-1.487-.315.719-.855 2.778-3.543 3.019-3.582.48-.078.147.815.211 1 .123.369 2.633 2.445 3.549 3.211.336.281.689-.426.888-.723.327-.484.475-1 .299-1.568-.117-.371-.717-.92-.25-1.174l2.612 3.049c.253.293-.565.037-.469.086-.371-.189-.718-.234-1.063.029-.097.069-1.088 1.082-.99 1.166.431.36.959.963 1.517 1.1.863.213 1.582-1.516 1.709-2.129a3.45 3.45 0 00-.075-1.75c-.123-.387-.486-.697.018-.93.712.973 1.423 1.944 2.132 2.92A.675.675 0 000 0c-.128.084.139-.07 0 0" fill="#fff" fill-opacity="1" fill-rule="nonzero" stroke="none"/></g><g transform="translate(37.847 32.107)" id="g48"><path id="path50" d="M0 0c-.646-1.51-2.201-3.063-3.732-3.666-1.818-.715-3.1.826-2.359 2.553.65 1.515 2.203 3.056 3.736 3.666C-.504 3.287.711 1.707 0 0c-.381-.889.07.17 0 0m.465-4.752c2.205 1.856 2.482 5.053.77 7.338-1.867 2.49-5.371 3.097-7.805 1.052-2.203-1.853-2.488-5.046-.758-7.324 1.99-2.621 5.199-2.918 7.793-1.066 1.156.975-.1-.07 0 0" fill="#fff" fill-opacity="1" fill-rule="nonzero" stroke="none"/></g><g transform="translate(31.867 41.963)" id="g52"><path id="path54" d="M0 0c.476-.062.927-.551 1.269-.043C.528.836-.214 1.716-.959 2.595c-.596-.269.048-.55-.194-.972-.244-.426-2.56-.78-3.176-.89.225.644.895 2.616 1.157 2.835.543.445.884-.432 1.283.141-.916 1.084-1.83 2.17-2.744 3.253-.31.366-.558 1.028-.979.68.039.031.006-1.473-.088-1.732-.086-.235-.937-3.639-1.927-4.472-.493-.414-2.237-1.933-2.702-2.095-.541-.189-.824.597-1.22.037l2.49-2.957c.125-.149.603-.863.768-.893.521-.095.06.893.113 1.086.151.43 2.5 2.719 3.496 2.858C-3.22-.319-1.481.179 0 0c.339-.043-.351.043 0 0" fill="#fff" fill-opacity="1" fill-rule="nonzero" stroke="none"/></g><g transform="translate(69.206 31.535)" id="g56"><path id="path58" d="M0 0c.19-.648.299-1.332.215-2.01-.108-.873-.98-2.924-2.174-2.34-1.168.575-2.193 1.729-3.188 2.553.802.936 1.507 1.748 2.854 1.295.37-.123.689.035.299.262-.404.234-3.113 1.965-3.261 1.799-.27-.311.527-.868.222-1.473-.23-.447-.61-.834-.933-1.219-.721.608-1.924 1.252-1.056 2.256.541.66 1.25 1.172 2.097 1.342.565.113 1.841-.389 2.007.224-1.089.522-2.173 1.045-3.259 1.564C-6 3.455-9.526-.27-10.308-1.209c-.112-.139-.658-.609-.664-.799-.009-.428.621-.096.657-.084.486.182 6.816-5.107 6.972-5.471.101-.281-.22-.574-.028-.73-.011.01.228-.217.254-.186.39.469 4.52 5.977 5.373 6.217C1.463-1.047.668.17-.111 1.391-.701 1.133-.132.441 0 0" fill="#fff" fill-opacity="1" fill-rule="nonzero" stroke="none"/></g><g transform="translate(63.044 24.832)" id="g60"><path id="path62" d="M0 0c-2.076 1.34-5.597-1.279-6.125-1.531-1.039-.49-1.789.543-1.25 1.502.469.83 1.393 1.234 2.311 1.289.275.017 1.35-.197 1.459-.026.128.204.227.223.041.348L-6.13 3.314C-6.307 2.258-7.516 1.586-8.206.875-9.028.02-9.727-1.057-9.727-2.281c0-1.135.679-2.143 1.677-2.66 1.137-.592 2.318-.118 3.323.509.627.393 1.254.858 1.924 1.172.996.467 2.306.063 1.953-1.269-.28-1.075-1.351-2.063-2.403-2.34-.617-.164-1.27-.11-1.873.09-.433.14-.992.734-1.229.111 1.16-.848 2.32-1.691 3.48-2.537.104.76.522 1.09 1.086 1.562.735.647 1.438 1.319 1.994 2.129C1.364-3.82 1.744-1.451 0 0" fill="#fff" fill-opacity="1" fill-rule="nonzero" stroke="none"/></g><g transform="translate(63.044 24.832)" id="g64"><path id="path66" d="M0 0c.926-.598-.59.494 0 0" fill="#fff" fill-opacity="1" fill-rule="nonzero" stroke="none"/></g><g transform="translate(92.277 62.146)" id="g68"><path id="path70" d="M0 0c-.007-.004-.007-.004 0 0" fill="#fff" fill-opacity="1" fill-rule="nonzero" stroke="none"/></g><g transform="translate(92.361 62.2)" id="g72"><path id="path74" d="M0 0c.077.049.153.098 0 0l-.084-.054c.015.008.047.03.082.051a5.723 5.723 0 01-.959-.76c-.52.897-1.043 1.795-1.563 2.693C-1.347 1.438-.171.944 1 .448A3.715 3.715 0 010 0m7.373 2.155c-.728-.728-8.42 2.342-8.981 2.765-.289.116-.299 1.321-.705.833-.403-.488-.81-.977-1.215-1.463-.418-.506-.838-1.01-1.256-1.514-.261-.313-.537-.457-.039-.719.838.419 5.418-7.346 5.008-8.461-.726-.376-6.914 5.057-7.081 5.415-.052.146.273 1.021-.21.945-.23-.036-.745-.896-.89-1.072l-.889-1.072c.332-.485.516.021.959-.042.383-.078 1.844-1.332 2.24-1.664-.725-.027-2.686-.131-2.934-.113-.903-.112-.422.662-1.016.931l-2.277-2.765c-.441-.535-.885-1.071-1.325-1.606-.054-.066-.047-.032.05-.113.331-.272.104-.168.568-.005.507.177 6.559-4.931 6.775-5.19.377-.45-.154-.975.412-1.221l1.797 2.184c.092.109.141.1.022.197-.429.354-.478-.211-1.002-.153-.533.089-4.396 3.368-5.896 4.61l8.198.304c.3.011 1.14-.896 1.067-1.216-.079-.379-.463-.558.056-.795.478.576.983 1.15 1.455 1.735l.228.282a.728.728 0 01.209.265l.168.21c.426.486 1.801 2.006 1.635 2.151-.461.4-.684-.466-1.297.054C.859-3.899-.016-2.36-.235-1.986c-.265.449.606.897.963 1.119.776.481 3.248 1.182 3.481-.349.041-.258-.271-.549-.084-.703.045-.037.205-.242.271-.163.164.196 2.36 2.843 3.3 3.969-.095.082-.205.223-.323.268" fill="#fff" fill-opacity="1" fill-rule="nonzero" stroke="none"/></g><g transform="translate(82.335 44.374)" id="g76"><path id="path78" d="M0 0c-.019-.02-.023-.025-.025-.025-1.232-1.293-3.357-.098-4.506.73-1.146.828-3.11 2.568-1.856 4.104 1.058 1.287 3.125.231 4.192-.482C-.996 3.523 1.217 1.73.08.111.153.201.207.257 0 0m.28 6.613c-2.375 1.98-5.629 1.405-7.586-.831C-9.207 3.47-9.017.118-6.7-1.833c2.34-1.926 5.67-1.438 7.572.847C2.771 1.316 2.641 4.682.28 6.613" fill="#fff" fill-opacity="1" fill-rule="nonzero" stroke="none"/></g><g transform="translate(82.615 50.988)" id="g80"><path id="path82" d="M0 0c1.173-.959-.252.212 0 0" fill="#fff" fill-opacity="1" fill-rule="nonzero" stroke="none"/></g><g transform="translate(82.308 44.347)" id="g84"><path id="path86" d="M0 0l.025.026C.054.063.082.1.105.137.056.075-.004 0 0 0" fill="#fff" fill-opacity="1" fill-rule="nonzero" stroke="none"/></g><g transform="translate(74.706 35.111)" id="g88"><path id="path90" d="M0 0c-.24-.297-.043-.055-.664-.65-.308-.293-6.439 4.675-6.191 4.942.834.918 2.566 1.557 3.576 1.299C-1.091 5.031 1.934 2.33 0 0m1.317 6.753c.112-.093.274-.224-.061.057-2.836 2.127-6.194 1.504-8.402-1.156a2232.73 2232.73 0 01-2.961-3.567c.351-.511.763.118 1.273-.175.436-.25 6.243-5.101 6.338-5.365.164-.459-.254-.549.144-.875.172-.145 4.538 5.244 4.937 6.189.688 1.754.138 3.678-1.268 4.892" fill="#fff" fill-opacity="1" fill-rule="nonzero" stroke="none"/></g><g transform="translate(50.58 26.507)" id="g92"><path id="path94" d="M0 0l.339.409 27.576 32.288c-6.913-.949-11.864-6.077-18.603-4.956-3.397.564-3.499 2.514-4.47 4.456-.746 1.493-1.937 1.303-3.487 1.91-1.442.565-2.277 1.738-5.162 1.061-2.528-.593-2.807-4.518-5.952-4.293-1.689.121-1.811 2.497-4.244 5.539-6.302 7.571-12.158 6.523-16.247-.475z" fill="#491213" fill-opacity="1" fill-rule="nonzero" stroke="none"/></g><g transform="translate(46.56 13.068)" id="g96"><path id="path98" d="M0 0l4.02 6.5L8.023 0 4.02-6.515z" fill="#23a9e1" fill-opacity="1" fill-rule="nonzero" stroke="none"/></g><g transform="translate(23.28 51.719)" id="g100"><path id="path102" d="M0 0c.513-.618.891-1.284.806-2.116-.059-.579-.936-1.55-.27-1.846l2.242 2.834c-.602.151-5.365 5.848-5.442 6.472L-5.823 3.61c.164-.661 1.294-.005 1.854-.046.828-.06 1.425-.56 1.953-1.152C-3.744.963-7.947-2.605-8.39-2.678c-.226-.036-1.089.601-1.101.056-.006-.262.852-1.014 1.014-1.21l2.23-2.653c.619.282-.11.732.205 1.243C-5.811-4.868-1.141-.975 0 0" fill="#fff" fill-opacity="1" fill-rule="nonzero" stroke="none"/></g><g transform="translate(18.006 58.699)" id="g104"><path id="path106" d="M0 0c.443.095.624-.434.958.056-.815.973-1.633 1.945-2.448 2.917-.371.442-.841.916-.706-.018.089-.63-6.114-5.664-6.493-5.82-.48-.197-.758.417-1.11-.097.732-.869 1.461-1.739 2.194-2.608.246-.292.476-.612.747-.882.338-.339.208.672.223.585-.091.513.528.948.856 1.228C-4.234-3.278-.382-.051 0 0" fill="#fff" fill-opacity="1" fill-rule="nonzero" stroke="none"/></g><g transform="translate(9.235 59.616)" id="g108"><path id="path110" d="M0 0c-1.768-.523-3.65.164-4.207 2.042-.543 1.835.614 3.757 2.071 4.801 1.439 1.032 3.589.97 4.373-.838.346-.799.158-1.706-.094-2.502-.161-.506-.597-1 .056-1.289L4.78 5.5c-1.055.633-1.518 1.683-2.301 2.595-.881 1.071-2.063 2.079-3.481 2.284-2.87.406-5.574-2.556-5.795-5.245-.137-1.457.374-2.848 1.246-4.001.75-.994 1.867-1.623 2.435-2.754C-2.854-1.716-.411-.588.17-.366.118-.255.081-.091 0 0c-.761-.226 0 0 0 0" fill="#fff" fill-opacity="1" fill-rule="nonzero" stroke="none"/></g><g transform="translate(48.535 23.207)" id="g112"><path id="path114" d="M0 0c-1.15.768-4.025 4.689-4.573 5.341-.108.13-.219.261-.329.391-.011.015-.284-.224-.246-.19-.173-.146.134-.573-.052-.864-.793-1.24-5.758-4.983-6.016-5.163-.555-.384-1.164.159-1.489-.316.719-.854 2.78-3.543 3.019-3.582.479-.078.148.815.211 1 .123.369 2.633 2.445 3.549 3.211.336.281.688-.426.888-.723.327-.484.475-1 .298-1.568-.116-.37-.717-.92-.25-1.174l2.613 3.049c.252.293-.566.037-.469.087-.37-.19-.718-.235-1.063.028-.096.071-1.089 1.082-.99 1.166.431.361.959.963 1.517 1.1C-2.52 2.006-1.8.277-1.673-.336a3.451 3.451 0 00-.076-1.75c-.124-.387-.487-.696.018-.93C-1.019-2.042-.309-1.07.4-.096A.7.7 0 000 0c-.127.085.139-.07 0 0" fill="#fff" fill-opacity="1" fill-rule="nonzero" stroke="none"/></g><g transform="translate(37.847 32.09)" id="g116"><path id="path118" d="M0 0c-.647-1.51-2.201-3.063-3.732-3.667-1.819-.715-3.1.827-2.361 2.553.651 1.515 2.203 3.056 3.738 3.666C-.504 3.287.711 1.706 0 0c-.382-.89.07.169 0 0m.465-4.753C2.67-2.897 2.946.3 1.233 2.586-.634 5.075-4.138 5.682-6.57 3.638c-2.204-1.854-2.49-5.047-.758-7.325C-5.338-6.308-2.13-6.604.465-4.753c1.155.975-.1-.07 0 0" fill="#fff" fill-opacity="1" fill-rule="nonzero" stroke="none"/></g><g transform="translate(31.867 41.947)" id="g120"><path id="path122" d="M0 0c.475-.06.926-.55 1.269-.042C.527.837-.215 1.716-.959 2.595c-.595-.269.047-.549-.194-.971-.244-.427-2.56-.781-3.176-.89.224.644.895 2.615 1.157 2.835.544.445.883-.432 1.283.141l-2.743 3.253c-.31.366-.559 1.028-.98.68.038.031.006-1.472-.089-1.733-.086-.236-.936-3.638-1.926-4.47-.493-.414-2.237-1.934-2.702-2.097-.541-.189-.825.598-1.22.038l2.491-2.957c.125-.148.602-.863.767-.893.521-.094.06.893.113 1.086.151.431 2.5 2.719 3.497 2.859C-3.22-.319-1.481.178 0 0c.339-.042-.352.043 0 0" fill="#fff" fill-opacity="1" fill-rule="nonzero" stroke="none"/></g><g transform="translate(25.607 61.11)" id="g124"><path id="path126" d="M0 0c-4.043.167-2.352 3.954.395 4.808 2.611.813 8.088-1.717 9.842-3.398C7.455.555 3.852.678.791.536.564 3.656-.167 2.568 0 0" fill="#dc6243" fill-opacity="1" fill-rule="nonzero" stroke="none"/></g><g transform="translate(26.622 56.26)" id="g128"><path id="path130" d="M0 0c-2.04 1.579-1.396 5.266 1.763 4.146C5.769 2.062.907.907 0 0c0 0 .042.042 0 0" fill="#dc6243" fill-opacity="1" fill-rule="nonzero" stroke="none"/></g><g transform="translate(35.11 48.561)" id="g132"><path id="path134" d="M0 0c-8.62.071-2.792 13.322.141 12.521C3.514 11.448 3.136-.101 0 0" fill="#dc6243" fill-opacity="1" fill-rule="nonzero" stroke="none"/></g><g transform="translate(41.216 52.89)" id="g136"><path id="path138" d="M0 0c-.84-2.501-2.36-2.968-2.191.07.193 3.503 2.478 2.662 4.929 4.004 2.04 1.119 3.139 5.214 6.641 2.765 1.562-1.093 3.352-.179 3.851-1.833-.025.084-4.544-10.308-2.031-10.308-4.961 0-2.772 5.922-.874 9.899-1.846-.885-4.842-6.688-2.382-7.643C6.662-4.732 2.749-6.991.709-5.344-.843-4.095.018-2.019 0 0" fill="#dc6243" fill-opacity="1" fill-rule="nonzero" stroke="none"/></g><g transform="translate(45.32 43.287)" id="g140"><path id="path142" d="M0 0c-3.489-1.046-8.122 1.207-2.51 2.34C.973 3.044 4.677 1.562 0 0c.141.042-.128-.043 0 0" fill="#dc6243" fill-opacity="1" fill-rule="nonzero" stroke="none"/></g><g transform="translate(49.69 43.428)" id="g144"><path id="path146" d="M0 0c-.736 1.658.562 3.635 2.68 2.199C4.526.947 1.829-.907 0 0" fill="#dc6243" fill-opacity="1" fill-rule="nonzero" stroke="none"/></g><g transform="translate(46.744 38.76)" id="g148"><path id="path150" d="M0 0c-2.411.747-10.537.561-5.218 2.764C-3.578 3.443 4.937 2.666 0 0" fill="#dc6243" fill-opacity="1" fill-rule="nonzero" stroke="none"/></g><g transform="translate(49.959 39.113)" id="g152"><path id="path154" d="M0 0c-.007.96-.512 2.679 1.354 1.946C3.589 1.067 0-.705 0 0c0 0 0 .169 0 0" fill="#dc6243" fill-opacity="1" fill-rule="nonzero" stroke="none"/></g><g transform="translate(57.178 35.446)" id="g156"><path id="path158" d="M0 0c-1.437 1.227-2.891 1.295-4.229 0-1.794 3.293-8.318 2.19-11.366 2.651C-13.956-1.377-.73-2.129 0 0" fill="#dc6243" fill-opacity="1" fill-rule="nonzero" stroke="none"/></g><g transform="translate(55.275 33.022)" id="g160"><path id="path162" d="M0 0c-3.151.146-6.671.563-9.646-.084 1.86-.466 6.396-1.795 2.171-2.918 1.516-2.168 3.974-2.029 5.584-.127-.654.322-1.009.719-1.551 1.057C-1.771-1.769-.208-.805 0 0" fill="#dc6243" fill-opacity="1" fill-rule="nonzero" stroke="none"/></g><g transform="translate(58.871 36.899)" id="g164"><path id="path166" d="M0 0c-5.288 3.112-3.95 5.427.354 7.586 2.254 1.131 7.324 5.208 9.447 3.85L0 0" fill="#dc6243" fill-opacity="1" fill-rule="nonzero" stroke="none"/></g><g transform="translate(55.106 44.175)" id="g168"><path id="path170" d="M0 0c-4.479 4.601 6.688 4.178 8.486 5.796 1.312-.437 10.769 8.283 13.072 7.741-1.656-1.941-5.22-8.136-7.775-8.136-1.965 0-3.95.292-5.472-1.107C6.087 2.246 2.402 1.204 0 0" fill="#f49774" fill-opacity="1" fill-rule="nonzero" stroke="none"/></g><g transform="translate(56.573 49.8)" id="g172"><path id="path174" d="M0 0c-2.453-1.319-4.772 3.907-.537 3.398 2.813-.338 5.662.237 8.348-.226C5.884.881 3.104-.381 0 0" fill="#f4b1a4" fill-opacity="1" fill-rule="nonzero" stroke="none"/></g><g transform="translate(69.205 31.518)" id="g176"><path id="path178" d="M0 0c.191-.648.299-1.332.215-2.009-.107-.873-.979-2.925-2.173-2.34-1.169.574-2.194 1.728-3.188 2.552.802.936 1.507 1.749 2.854 1.295.37-.123.688.036.299.262-.404.234-3.113 1.965-3.261 1.799-.27-.311.528-.868.221-1.473-.229-.447-.61-.834-.932-1.219-.72.608-1.923 1.253-1.056 2.256.542.66 1.25 1.172 2.097 1.342.566.114 1.841-.389 2.006.224l-3.258 1.565c.177-.799-3.348-4.525-4.131-5.463-.113-.138-.658-.609-.664-.798-.008-.429.622-.097.658-.084.485.181 6.815-5.108 6.972-5.471.1-.281-.221-.574-.029-.731-.011.01.228-.217.253-.185.391.468 4.522 5.976 5.374 6.217A420.683 420.683 0 00-.111 1.391C-.701 1.133-.13.442 0 0" fill="#fff" fill-opacity="1" fill-rule="nonzero" stroke="none"/></g><g transform="translate(63.044 24.814)" id="g180"><path id="path182" d="M0 0c-2.077 1.34-5.596-1.279-6.125-1.531-1.039-.491-1.789.543-1.251 1.502.469.83 1.394 1.234 2.311 1.289.276.017 1.349-.197 1.459-.026.129.203.227.221.042.346l-2.568 1.733c-.176-1.055-1.385-1.727-2.076-2.44-.822-.854-1.52-1.931-1.52-3.156 0-1.135.679-2.143 1.677-2.66 1.136-.592 2.318-.117 3.324.51.627.392 1.254.857 1.924 1.171.996.467 2.304.063 1.953-1.269-.282-1.073-1.351-2.062-2.405-2.34-.616-.164-1.269-.109-1.872.09-.432.141-.993.734-1.229.111l3.481-2.537c.104.76.522 1.09 1.086 1.563.735.646 1.438 1.32 1.994 2.13C1.364-3.82 1.743-1.451 0 0" fill="#fff" fill-opacity="1" fill-rule="nonzero" stroke="none"/></g><g transform="translate(63.044 24.814)" id="g184"><path id="path186" d="M0 0c.925-.598-.591.494 0 0" fill="#fff" fill-opacity="1" fill-rule="nonzero" stroke="none"/></g><g transform="translate(92.277 62.129)" id="g188"><path id="path190" d="M0 0c-.007-.004-.007-.004 0 0" fill="#fff" fill-opacity="1" fill-rule="nonzero" stroke="none"/></g><g transform="translate(92.361 62.183)" id="g192"><path id="path194" d="M0 0c.077.049.153.098 0 0a2.533 2.533 0 01-.084-.054l.082.052A5.722 5.722 0 01-.96-.763c-.521.897-1.044 1.795-1.564 2.693A743.99 743.99 0 001 .449 3.735 3.735 0 010 0m7.374 2.156c-.729-.729-8.42 2.341-8.982 2.764-.29.116-.3 1.321-.705.833-.404-.488-.81-.976-1.216-1.463l-1.256-1.513c-.26-.314-.537-.458-.038-.72.837.419 5.417-7.346 5.008-8.461C-.54-6.78-6.73-1.347-6.896-.989c-.052.146.273 1.021-.211.945-.229-.036-.744-.896-.889-1.072l-.889-1.072c.332-.485.517.021.959-.042.383-.077 1.844-1.331 2.24-1.664-.724-.027-2.684-.131-2.933-.113-.903-.112-.422.663-1.015.931-.76-.922-1.52-1.843-2.277-2.764l-1.326-1.607c-.054-.065-.047-.032.049-.112.331-.273.105-.168.569-.006.506.177 6.558-4.931 6.776-5.19.377-.45-.154-.975.411-1.221.6.728 1.198 1.457 1.798 2.184.091.11.141.1.021.198-.427.353-.476-.212-1.002-.154-.533.089-4.395 3.369-5.895 4.61l8.198.304c.301.011 1.14-.896 1.069-1.216-.081-.378-.463-.558.054-.794.479.575.985 1.149 1.456 1.734l.227.282a.74.74 0 01.21.265l.168.211c.425.485 1.8 2.006 1.635 2.15-.461.4-.685-.466-1.298.054C.861-3.899-.014-2.36-.234-1.986c-.264.449.608.897.963 1.119.777.482 3.248 1.183 3.483-.348.04-.258-.272-.55-.084-.704.044-.037.204-.242.269-.163.164.197 2.362 2.843 3.301 3.969-.098.082-.207.224-.324.269" fill="#fff" fill-opacity="1" fill-rule="nonzero" stroke="none"/></g><g transform="translate(82.335 44.358)" id="g196"><path id="path198" d="M0 0l-.025-.027c-1.233-1.292-3.359-.096-4.506.731-1.146.829-3.111 2.57-1.856 4.104 1.056 1.287 3.124.231 4.192-.482C-.996 3.523 1.216 1.73.08.11.154.2.206.258 0 0m.281 6.614c-2.375 1.979-5.63 1.404-7.586-.832C-9.208 3.47-9.017.119-6.7-1.833c2.34-1.926 5.671-1.438 7.572.846C2.771 1.316 2.641 4.681.281 6.614" fill="#fff" fill-opacity="1" fill-rule="nonzero" stroke="none"/></g><g transform="translate(82.616 50.972)" id="g200"><path id="path202" d="M0 0c1.171-.959-.253.211 0 0" fill="#fff" fill-opacity="1" fill-rule="nonzero" stroke="none"/></g><g transform="translate(82.308 44.331)" id="g204"><path id="path206" d="M0 0l.025.027c.03.037.057.073.08.11C.057.076-.005 0 0 0" fill="#fff" fill-opacity="1" fill-rule="nonzero" stroke="none"/></g><g transform="translate(74.706 35.094)" id="g208"><path id="path210" d="M0 0c-.24-.296-.044-.054-.665-.65-.306-.293-6.438 4.675-6.191 4.944.835.918 2.566 1.556 3.576 1.297C-1.09 5.031 1.934 2.331 0 0m1.318 6.754c.112-.094.273-.224-.063.057-2.835 2.127-6.193 1.504-8.401-1.157-.989-1.189-1.977-2.378-2.961-3.567.35-.512.762.118 1.272-.176.437-.25 6.244-5.1 6.339-5.366.164-.458-.255-.548.144-.875.172-.143 4.537 5.245 4.935 6.191.69 1.755.14 3.678-1.265 4.893" fill="#fff" fill-opacity="1" fill-rule="nonzero" stroke="none"/></g></g></g></g></svg>