<svg version="1.0" xmlns="http://www.w3.org/2000/svg" viewBox="0 0 100 63"><symbol id="subtitles" viewBox="0 0 100 63"><path d="M50 617C2 593 0 574 2 303 5 55 5 50 28 28L51 5h898l23 23c23 22 23 25 23 287s0 265-23 287l-23 23-437 3c-338 1-443-1-462-11zm423-123c11-4 13-13 8-32-7-24-11-26-53-23-26 1-56-3-68-9-27-14-50-68-50-115 0-87 50-134 130-121 37 6 40 4 46-20 9-35-7-44-82-44-111 0-164 59-164 183s54 187 162 187c31 0 63-3 71-6zm280-2c3-4 3-19 0-33-4-24-7-25-58-21-47 4-57 1-78-21-51-50-44-164 11-208 22-17 37-20 75-16 44 4 48 2 54-21 8-33-9-42-82-42-43 0-70 6-93 20-95 58-97 262-3 326 29 19 48 24 103 24 37 0 69-3 71-8z" transform="matrix(.1 0 0 -.1 0 63)" fill="currentColor"/></symbol></svg>