<svg xmlns="http://www.w3.org/2000/svg" height="21.664" width="30.732" xml:space="preserve" id="svg2" version="1.1"><defs id="defs6"><clipPath id="clipPath18" clipPathUnits="userSpaceOnUse"><path id="path16" d="M0 16.248h23.049V0H0z"/></clipPath></defs><g transform="matrix(1.33333 0 0 -1.33333 0 21.664)" id="g10"><g id="g12"><g clip-path="url(#clipPath18)" id="g14"><g transform="translate(22.8 14.949)" id="g20"><path id="path22" d="M0 0l-1.051 1.051a.853.853 0 01-1.203 0l-11.853-11.854-6.192 6.191a.853.853 0 01-1.203 0l-1.051-1.051a.852.852 0 010-1.202l7.837-7.837a.847.847 0 01.609-.247c.22-.002.44.08.607.247L0-1.202A.852.852 0 010 0" fill="#373535" fill-opacity="1" fill-rule="nonzero" stroke="none"/></g></g></g></g></svg>