<svg viewBox="0 0 23.333 19.549" xmlns="http://www.w3.org/2000/svg" shape-rendering="geometricPrecision" text-rendering="geometricPrecision" image-rendering="optimizeQuality" fill-rule="evenodd" clip-rule="evenodd"><symbol id="twitter" viewBox="0 0 23.333 19.549"><path fill="red" fill-rule="nonzero" d="M1670.68 582.642a590.916 590.916 0 0081.424-28.965c5.088-2.882 11.577-2.861 16.774.603 7.351 4.9 9.338 14.836 4.437 22.187-20.684 31.028-44.206 60.192-70.23 87.148a624.964 624.964 0 01-77.934 68.335l.686 29.399c.064.575.096 1.16.096 1.754 0 219.372-90.23 456.91-262.303 628.959-146.66 146.635-352.59 245.782-612.57 245.782-85.24 0-167.652-12.261-245.684-35.106-80.425-23.546-156.005-58.302-225.06-102.426-5.515-3.024-8.953-9.162-8.216-15.8.974-8.781 8.885-15.112 17.667-14.138l-.004.029a642.725 642.725 0 0034.869 2.931c11.22.63 22.943.952 35.245.952 67.695 0 132.743-11.289 193.322-32.105a590.671 590.671 0 00138.018-68.697c-51.964-8.2-99.746-28.9-140.145-58.946-52.287-38.883-92.238-93.413-112.93-156.72a15.931 15.931 0 01-.959-9.139c1.638-8.683 10.006-14.394 18.69-12.756l-.007.04a286.587 286.587 0 0026.816 3.781c8.58.792 17.657 1.183 27.268 1.183 3.17 0 6.319-.049 9.44-.141-45.412-20.433-85.202-51.215-116.334-89.339-44.808-54.874-71.728-124.92-71.728-201.183v-3.604a15.928 15.928 0 011.99-7.804c4.266-7.737 13.998-10.55 21.736-6.285l-.013.024c19.906 10.975 41.079 19.785 63.23 25.904a279.932 279.932 0 0012.023 3.035 318.899 318.899 0 01-59.272-78.554c-23.92-44.7-37.51-95.716-37.51-149.707 0-28.65 3.803-56.533 10.958-83.087a313.09 313.09 0 0131.492-75.633 15.935 15.935 0 014.377-5.606c6.847-5.586 16.926-4.563 22.512 2.284l-12.398 10.114 12.374-10.062c74.385 91.192 167.312 166.44 273.078 220.027 96.617 48.95 203.922 79.819 317.564 88.258a323.471 323.471 0 01-2.03-14.704c-1.394-12.168-2.13-24.448-2.13-36.834 0-87.731 35.604-167.2 93.137-224.734 57.534-57.534 137.003-93.137 224.734-93.137 44.647 0 87.376 9.344 126.195 26.137 37.484 16.215 71.177 39.35 99.297 67.691a583.846 583.846 0 0088.042-25.839 589.472 589.472 0 0089.849-43.278 15.976 15.976 0 0113.89-1.962c8.405 2.724 13.01 11.749 10.287 20.155l-.047-.016c-12.013 37.05-30.456 71.093-54.043 100.76a319.234 319.234 0 01-31.694 34.362 575.528 575.528 0 0021.723-5.525z" id="Layer_x0020_1"/><path fill="none" d="M0 0h14v18H0z"/></symbol></svg>