<svg viewBox="0 0 45 28" xmlns="http://www.w3.org/2000/svg"><symbol id="youtube" viewBox="0 0 45 28"><path fill="none" id="canvas_background" d="M-1-1h51v34H-1z"/><g stroke="null" id="svg_1"><path stroke="null" id="svg_2" fill="#fff" fill-opacity="1" d="M24.376 3.06c1.845 0 3.682-.03 5.526.006 2.34.043 4.68.121 7.013.214.967.042 1.95.064 2.91.227 2.283.384 3.64 1.614 4.266 3.555.333 1.031.455 2.09.56 3.15.285 2.85.228 5.702.147 8.553-.05 1.685-.13 3.384-.618 5.033-.203.676-.439 1.351-.886 1.941-.812 1.074-1.983 1.685-3.413 1.913-1.227.199-2.47.22-3.713.27-2.3.092-4.6.135-6.9.185-2.722.064-5.444.05-8.158.028a256.611 256.611 0 01-6.615-.142c-1.86-.064-3.73-.092-5.566-.405-1.016-.17-1.918-.54-2.698-1.152-.732-.583-1.106-1.337-1.382-2.133-.593-1.706-.634-3.47-.756-5.233-.138-2.061-.097-4.123-.04-6.178.049-1.735.138-3.477.552-5.183.244-1.01.577-2.012 1.414-2.787 1.032-.953 2.349-1.408 3.836-1.5a222.32 222.32 0 015.347-.242c3.055-.114 6.119-.15 9.174-.12zm6.754 12.17c-.032-.085-.122-.1-.187-.128-1.91-.881-3.827-1.763-5.745-2.645-1.52-.696-3.039-1.4-4.559-2.104-.422-.192-.43-.185-.43.242v9.378c-.008.185.073.242.268.15.236-.114.471-.228.715-.342 3.202-1.45 6.412-2.908 9.613-4.358.114-.057.26-.078.325-.192z"/></g></symbol></svg>